<svg xmlns="http://www.w3.org/2000/svg" xmlns:xlink="http://www.w3.org/1999/xlink" version="1.1" x="0px" y="0px" viewBox="0 0 669 753" style="enable-background:new 0 0 669 753;" xml:space="preserve">
<style xmlns="http://www.w3.org/2000/svg" type="text/css">
	.st0{fill-rule:evenodd;clip-rule:evenodd;fill:#E2E2E2;}
	.st1{fill-rule:evenodd;clip-rule:evenodd;fill:#2A94F4;}
	.st2{fill:#FA968C;}
	.st3{fill:#595959;}
	.st4{fill:#FAB9AF;}
	.st5{fill:#808281;}
	.st6{fill:#0E538C;}
	.st7{fill:#965D53;}
	.st8{fill:#0B4870;}
	.st9{fill:#D3D3D3;}
	.st10{fill:#F7F7F7;}
	.st11{fill:#3E4546;}
	.st12{fill:#EDF5F7;}
	.st13{fill:#90A6B4;}
	.st14{enable-background:new    ;}
	.st15{fill:none;stroke:#3E4546;stroke-width:2;stroke-miterlimit:10;}
	.st16{fill:#ffbe55;}
	.st17{opacity:0.5;fill:#ffbe55;}
	.st18{fill-rule:evenodd;clip-rule:evenodd;fill:#808281;}
	.st19{fill-rule:evenodd;clip-rule:evenodd;fill:#4E5151;}
	.st20{fill-rule:evenodd;clip-rule:evenodd;fill:#595959;}
	.st21{fill:#2A94F4;}
</style>
<g xmlns="http://www.w3.org/2000/svg" id="background">
</g>
<g xmlns="http://www.w3.org/2000/svg" id="battery">
	<path class="st0" d="M608.5,167h-165c-6.6,0-12-5.4-12-12V53c0-6.6,5.4-12,12-12h165c6.6,0,12,5.4,12,12v102   C620.5,161.6,615.1,167,608.5,167z"/>
	<path class="st1" d="M478,260H313c-6.6,0-12-5.4-12-12v-51c0-6.6,5.4-12,12-12h165c6.6,0,12,5.4,12,12v51   C490,254.6,484.6,260,478,260z"/>
	<path class="st0" d="M608.5,367h-165c-6.6,0-12-5.4-12-12v-67c0-6.6,5.4-12,12-12h165c6.6,0,12,5.4,12,12v67   C620.5,361.6,615.1,367,608.5,367z"/>
	<g>
		<path class="st2" d="M477.6,539.7C488,606,436.3,604,418.3,604c-37.4,0-89.1,0-127.4,0v0.5c-22.9,3-46.9-45.2-56.1-66.3V538    c68.1,0.4,163.1,0.7,242.8,1.1V539.7z"/>
		<path class="st3" d="M472,709.4c-1.7-0.4-3.5-0.9-5.2-1.4c-8.6-2.1-16.9-4-25.2-5.4c-12.5-2.1-25-2.9-39-1.6    c1.5,5.3,3.3,11.8,4.3,18.1c0.6,3.6,1,7.1,1,10.1c-5.8-3.5-10.9-8.9-16.2-14c-7.3-7.1-14.9-13.7-25.1-14.6c-7.8-0.4-28,2.9-45.2,7    c-10,2.4-19,5-23.7,7.3c-0.6,0.3-1.2,0.6-1.6,0.9c7.1-5.7,13.9-11,21.1-15.7h0.1c5.3-3.5,10.6-6.6,16.2-9.4    c-6.7-0.1-15.5-1.3-22.7-0.9c-0.2-0.7-0.2-1.3-0.1-1.9l-0.3-0.3v-0.1c12.1-8.5,38.3-7.2,51.8-7.2c0,0.8,0,1.7,0,2.4    c4,6,18.9,7.3,22.2,1l-0.1-0.1c0-1,0-2.2,0-3.4C412.5,679.6,449.1,694.1,472,709.4z"/>
		<polygon class="st3" points="408,601 408,624 384.3,624 362.2,624 335.5,624 335.5,601   "/>
		<path class="st4" d="M251.2,418c-4.4-21.8-5.6-43.4-0.6-58.2c9-24.4,24.4-28,47-29.8c19-0.9,43.4-2.7,56.1,14.4l1.2-0.4    c13.2,36,26.4,95.7,34.5,131.9H270.4c-0.2-0.4-0.4-0.8-0.6-1.1h7.3L251.2,418z"/>
		<path class="st5" d="M384.3,683.8L384.3,683.8c-3.3,6.3-18.2,5-22.1-1c0-0.8,0-1.6,0-2.4c0-18.9,0-56.4,0-56.4h22.1    c0,0,0,37.5,0,56.4C384.3,681.6,384.3,682.8,384.3,683.8z"/>
		<path class="st2" d="M194.1,389.8c-4-69,30.9-74,39.7-76c26.9-5.8,99.8-14.3,114,12.1c2.7,5,5.5,11.4,8.2,18.9l-1.2,0.4    c-12.7-17.1-37.1-15.4-56.1-14.4c-22.6,1.8-38,5.4-47,29.8c-5,14.8,22,93.4,26.4,115.2h-58L194.1,389.8z"/>
	</g>
	
		<ellipse transform="matrix(0.3249 -0.9458 0.9458 0.3249 -62.8766 532.4352)" class="st6" cx="341.5" cy="310.3" rx="56.2" ry="43.6"/>
	<path class="st6" d="M392.9,246.2c0,0,25.8,13.1,24.7,34.1c0,0,12.2-10.4,12.2-42.5C429.9,215.5,392.9,246.2,392.9,246.2z"/>
	<g>
		<polygon class="st4" points="390.5,356 354.5,342.8 370.8,297.4 398.5,306.4   "/>
	</g>
	<path class="st2" d="M398.5,306.4l-27.7-9.1l-7.3,14.2c5,8.4,10.1,25.5,20.5,27.5c3.3,0.6,6.5,0.3,9.5-0.9L398.5,306.4z"/>
	<path class="st4" d="M399.8,327.5c-8.5,0.8-18-2.6-31.6-12.5c-7.8-5.7-14.2-16.2-14.9-23.7l-3.8-41.2l63.5-5.8   c0,0,6.8,21.5,4.1,43.6C415.1,304.5,406.4,326.9,399.8,327.5z"/>
	<path class="st6" d="M342.1,255.8c-1.2-12.9,8.3-24.3,21.2-25.4l21.4-1.9c6.1-0.6,11.9-2.7,16.9-6.1c7.2-5,16.9-4.4,22.6,2.1   c6.3,7.1,9.6,17-3.7,27.6c-6.6,5.3-17.3,1.1-24,3.9c-0.4,0-0.8,0-1.2,0l-18.9,1.7c-6.6,0.6-11.1,6.4-10.7,13c0.3,4.2-2.8,7.8-7,8.2   l-0.8,0.1l-3.9-9.4l-9.2,15.2L342.1,255.8z"/>
	<path class="st6" d="M408.2,244c-1.3,9.6,2.3,14.5-27.2,32c-29.5,17.5-39.9,12.1-48.1,28.8c0,0,1.8-26.6,18.1-37.1   c16.2-10.6,45.3-19.1,52.8-40.8C403.8,226.9,409,237.5,408.2,244z"/>
	<path class="st6" d="M402.4,246.3c0,0,4.1,31.6,33.2,44.3c0,0-14.4-22.9-15-38.6S399.6,235.7,402.4,246.3z"/>
	<path class="st4" d="M343.2,284.8c3.1,7.5,9.1,12.1,13.5,10.3c4.4-1.8,5.3-13.6,2.2-21.1s-8.9-7.8-13.3-6   C341.2,269.8,340.1,277.3,343.2,284.8z"/>
	<g id="XMLID_5_">
		<g>
			<path class="st7" d="M465.4,717.8c0.2,0.4,0.3,0.7,0.3,1.1c0,0.4-0.3,0.7-0.6,1c-3.1,3.3-7.9,4.5-12.4,4.3     c-4.5-0.2-8.8-1.8-13-3.3c-6.9-2.5-13.8-5-20.7-7.4c-2.7-4.4-6.6-7.9-11.1-10.6c0.5-1.5,1.1-2.9,1.9-4.2c0.4,0.3,0.8,0.5,1.3,0.7     c5.2,2.6,13.8,2.7,20.9,2.2c0-0.7,0-1.5,0-2.2c0-0.9,0-1.8,0-2.7c5.3,0.9,10.5,2.2,15.4,4.5C455.1,704.7,461.8,710.4,465.4,717.8     z"/>
			<path class="st6" d="M425.5,516.3l28,0.3c-14.8,65.8-20.7,114.3-21.4,180.3c-1.5-0.2-3-0.4-4.5-0.6c0.1,1,0.2,1.9,0.4,2.9     c-5.9,1.4-13.2,2.3-18-0.6c0,0.1-0.1,0.1-0.1,0.2c-0.8-0.6-1.6-1.3-2.1-2c-1.2-1.8-1.2-3.8-1.2-5.7c-0.1-40.7-0.3-81.4-0.4-122.1     h12.4c11.3,0,20.5-9.2,20.5-20.5v-13c0-0.6,0-1.1-0.1-1.7C438.3,525.7,432.9,518.9,425.5,516.3z"/>
			<path class="st8" d="M442.3,392.3c9.7,41.6,13.7,38.4,14.2,81.2c0,0-17.8,9.4-25.3-0.8c0.8-5.4,1-10.8,0.5-16.2     c0-0.1,0-0.1,0-0.2c-1-11.6-4.8-22.8-5-34.4c-0.4-18.2,7.9-36.3,4.4-54c-1.8-9.3-6.7-17.1-12.7-23.9c-1.2-1.4-2.5-2.7-3.8-3.9     c0,0,0,0,0,0c-1-1.1-2.1-2.2-3.2-3.3c8.1,5,14.5,12.7,19.2,21.2C436.4,368.6,439.6,380.4,442.3,392.3z"/>
			<path class="st6" d="M439,535.5v13c0,11.3-9.2,20.5-20.5,20.5h-12.4c0-6.5,0-12.9-0.1-19.4c0-2.7-0.1-5.4-0.3-8.2h15.3h9.5h0.6     c1.9,0,3.7-0.8,4.9-2.1c1.3-1.3,2.1-3,2.1-4.9c0-0.2,0-0.4,0-0.6l0.9-0.1C439,534.4,439,534.9,439,535.5z"/>
			<path class="st6" d="M438.9,533.8l-0.9,0.1c-0.2-2.8-2.1-5.1-4.7-6c-0.7-0.3-1.5-0.4-2.3-0.4h-28.7c-1.3-2.8-3.1-5.4-5.6-7.8     c-2.5,2.4-4.3,5-5.6,7.8h-47.1c-0.8-3.9-1.7-7.9-2.6-12l84,0.8C432.9,518.9,438.3,525.7,438.9,533.8z"/>
			<path class="st6" d="M438.1,533.9c0,0.2,0,0.4,0,0.6c0,1.9-0.8,3.7-2.1,4.9c-1.3,1.3-3,2.1-4.9,2.1h-0.6h-9.5h-15.3     c-0.4-4.8-1.3-9.6-3.4-14h28.7c0.8,0,1.6,0.1,2.3,0.4C436,528.7,437.8,531.1,438.1,533.9z"/>
			<path class="st6" d="M432.1,696.8c0,0.9,0,1.8,0,2.7c0,0.7,0,1.5,0,2.2c-7.1,0.5-15.8,0.4-20.9-2.2c-0.4-0.2-0.9-0.5-1.3-0.7     c0-0.1,0.1-0.2,0.1-0.2c4.8,2.9,12.1,2,18,0.6c-0.1-1-0.3-1.9-0.4-2.9C429.1,696.4,430.6,696.6,432.1,696.8z"/>
			<path class="st9" d="M431.8,456.5c0.5,5.4,0.3,10.9-0.5,16.2c-0.8-1.1-1.4-2.4-2-3.9c0-0.1,0-0.1,0-0.2     c-1.4-13.6-6.4-26.8-6.7-40.4c-0.5-21.3,10.6-42.6,5.9-63.4c-2.1-9.5-7.2-17.6-13.7-24.7c1.3,1.3,2.5,2.6,3.8,3.9     c6,6.7,10.8,14.5,12.7,23.9c3.5,17.7-4.8,35.8-4.4,54c0.2,11.7,4,22.8,5,34.4C431.7,456.4,431.7,456.4,431.8,456.5z"/>
			<path class="st9" d="M429.3,468.8c0.5,1.5,1.2,2.9,2,3.9c-1.4,9.8-4.8,19.2-9.8,27.3c-0.5-0.2-1.1-0.3-1.7-0.3h-75.3     c-0.6,0-1.2,0.1-1.8,0.3c-2.7-4.3-4.9-9.1-6.6-14c0.8-0.7,1.3-1.6,1.3-2.7l0.2-5.4l0.1-2l0-0.6c2.9,1,5.8,2,8.8,2.8     c6.8,1.7,14.3,2.5,21.1,1.2c1.2-0.2,2.5-0.6,3.5-1.1c1-0.6,1.9-1.3,2.4-2.2c-1.9,0.6-4.2,0.8-6.5,0.6c-7.2-0.7-2.6-0.5-2.1-5.8     c0.5-5.3-3.3-4,3.9-3.4c4,0.4,7.4,2,9.6,4.3c2.4-1.6,12.3-4.9,11.2-7.2c-1.2-2.4-13.2-12.8-16.5-13.4c-9.7-1.9-20.3,1-25.7,6.9     c-1.1,1.3-2.1,2.7-3.6,3.7c-1.5,1-3.5,1.6-5.6,1.7l-0.1,1.2l0.1-2.6l0.1-3.8c0.1-2.1-1.5-3.8-3.6-3.9l-3-0.1l-3.5-0.1     c-1,0-1.9,0.3-2.6,1c2.2-11.8,8.6-10.7,9-23.8c0.7-21.3-14.7-42.6-8.2-63.4c3.2-10.3,11.3-19,21.5-26.6c2.8-1.1,6.2-2.1,8.5-3.1     c1.1-0.5,2.1,0.2,2.7,1.3c0,0.1,0.1,0.1,0.1,0.2c2.4,2.7,5.5,4.3,8.7,5.6c4.6,1.8,9.4,2.9,14.2,3.4c0,0,0,0,0,0     c4.8-0.5,9.5-1.6,14.1-3.4c3.2-1.2,6.3-2.8,8.7-5.6c1.4-1.6,2.4-3.5,3.2-5.5c2.3,1.9,4.5,3.9,6.7,6c0,0,0,0,0,0     c6.5,7.1,11.6,15.2,13.7,24.7c4.7,20.8-6.4,42-5.9,63.4c0.3,13.7,5.4,26.8,6.7,40.4C429.3,468.6,429.3,468.7,429.3,468.8z"/>
			<path class="st6" d="M425.5,516.3l-84-0.8c0.9,4,1.8,8,2.6,12h-13.8c-0.8,0-1.6,0.1-2.3,0.4c-1,0.3-1.9,0.9-2.6,1.6     c-1.3,1.3-2.1,3-2.1,4.9c0,3.9,3.1,7,7,7h0.6h9.5h6.6c1.8,9.4,3.5,18.6,4.9,27.6h-33.4c-11.3,0-20.5-9.2-20.5-20.5v-13     c0-11.3,9.2-20.5,20.5-20.5h100C421,515,423.3,515.4,425.5,516.3z"/>
			<path class="st7" d="M419.4,714.1c0.2,0.3,0.4,0.7,0.4,1.1c0,0.4-0.3,0.8-0.5,1.1c-2.8,3.5-7.4,5.2-11.9,5.4     c-4.5,0.2-8.9-1-13.3-2.1c-10.8-2.8-21.5-5.6-32.3-8.4c-0.4-0.1-0.9-0.2-1.2-0.6c-0.3-0.4-0.4-1-0.4-1.5c0-2.5,0.6-5,1.5-7.4     c7.1,0.5,15.6,0.4,20.7-2.2c1.4-0.7,2.6-1.6,3.3-2.8c0.1-0.1,0.2-0.3,0.2-0.4c4.8,0.4,9.5,1.3,14.1,2.9c2.8,1,5.4,2.2,7.9,3.7     c-0.5,1.5-0.8,3-1,4.5c-0.1,0.5-0.1,1.1,0.2,1.5c0.3,0.4,0.7,0.5,1.1,0.7c3.6,1.3,7.1,2.6,10.7,3.9     C419.2,713.7,419.3,713.9,419.4,714.1z"/>
			<path class="st7" d="M419,713.5c-3.6-1.3-7.2-2.6-10.7-3.9c-0.4-0.1-0.9-0.3-1.1-0.7c-0.3-0.4-0.3-1-0.2-1.5c0.2-1.5,0.5-3,1-4.5     C412.4,705.6,416.3,709.2,419,713.5z"/>
			<path class="st6" d="M406.1,549.6c0,6.5,0,12.9,0.1,19.4h-18.8c0-6.5,0-12.9,0.1-19.4c0-2.7,0.1-5.4,0.3-8.2h18.1     C406,544.2,406.1,546.9,406.1,549.6z"/>
			<path class="st6" d="M405.8,541.4h-18.1c0.4-4.8,1.3-9.6,3.4-14h11.2C404.5,531.9,405.4,536.6,405.8,541.4z"/>
			<path class="st6" d="M402.4,527.4h-11.2c1.3-2.8,3.1-5.4,5.6-7.8C399.2,522,401,524.7,402.4,527.4z"/>
			<path class="st6" d="M344.1,527.4h47.1c-2.1,4.4-3,9.2-3.4,14H347C346.1,536.8,345.1,532.2,344.1,527.4z"/>
			<path class="st4" d="M389.5,464.5c1.1,2.3-8.8,5.7-11.2,7.2c-2.2-2.3-5.6-3.9-9.6-4.3c-7.2-0.7-3.4-1.9-3.9,3.4     c-0.5,5.3-5,5.1,2.1,5.8c2.3,0.2,4.5,0,6.5-0.6c-0.5,0.9-1.3,1.6-2.4,2.2c-1.1,0.5-2.3,0.8-3.5,1.1c-6.8,1.3-14.2,0.6-21.1-1.2     c-3-0.8-5.9-1.7-8.8-2.8l0.3-8.5l0.1-2.3l0.1-1.2c2.1-0.1,4.1-0.6,5.6-1.7c1.5-1,2.4-2.4,3.6-3.7c5.3-5.9,16-8.8,25.7-6.9     C376.3,451.7,388.3,462.1,389.5,464.5z"/>
			<path class="st6" d="M347,541.4h40.8c-0.2,2.7-0.3,5.5-0.3,8.2c0,6.5,0,12.9-0.1,19.4h-35.5C350.4,560,348.8,550.9,347,541.4z"/>
			<path class="st6" d="M351.9,569h35.5c-0.1,40.7-0.3,81.4-0.4,122.1c0,1.8,0,3.6-1,5.3c-2.1-0.2-4.2-0.3-6.2-0.3     c0.2,1,0.4,1.9,0.6,2.9c-5.7,2-12.9,3.5-17.9,1.1c-0.3,0.6-0.6,1.2-0.8,1.8c-0.1,0-0.1,0-0.2,0c0-0.7,0-1.5,0-2.2     C361,651.3,358.7,611.9,351.9,569z"/>
			<path class="st6" d="M386,696.4c-0.1,0.1-0.1,0.3-0.2,0.4c-0.8,1.1-1.9,2.1-3.3,2.8c-5.1,2.6-13.6,2.7-20.7,2.2     c0.2-0.6,0.5-1.2,0.8-1.8c5,2.4,12.2,0.9,17.9-1.1c-0.2-1-0.4-1.9-0.6-2.9C381.8,696.1,383.9,696.2,386,696.4z"/>
			<path class="st8" d="M349.9,339.7c-0.7,0.5-1.4,1-2,1.5c-2.4,0.9-4.5,1.8-5.3,2.8c-6,6.7-15.2,15.2-17,24.5     c-3.5,17.7,2.1,42.2,1.8,60.4c-0.2,11.7-4,15.9-5,27.4c0,0,1,0,2.3,0.1c-0.1,0.4-0.2,0.8-0.2,1.2l-0.1,1.5l-0.8,21.1l-0.1,2.6     c-0.1,1.8,1.1,3.3,2.7,3.8l-42.1-0.1c0.7-42.8,9.7-49.5,23.1-91.1c3.8-11.8,8.2-23.7,16.2-34.4     C329.7,352.5,338.7,344.8,349.9,339.7z"/>
			<path class="st6" d="M347,541.4h-6.6h-9.5h-0.6c-3.9,0-7-3.1-7-7c0-1.9,0.8-3.7,2.1-4.9c0.7-0.7,1.6-1.3,2.6-1.6     c0.7-0.3,1.5-0.4,2.3-0.4h13.8C345.1,532.2,346.1,536.8,347,541.4z"/>
			<path class="st9" d="M342.5,344c0.8-1,2.9-1.9,5.3-2.8c-10.2,7.6-18.3,16.3-21.5,26.6c-6.5,20.8,8.8,42,8.2,63.4     c-0.4,13.1-6.8,12-9,23.8c-0.4,0.4-0.8,0.9-1,1.4c-1.3,0-2.3,0-2.3-0.1c1-11.6,4.8-15.8,5-27.4c0.4-18.2-5.3-42.6-1.8-60.4     C327.3,359.2,336.5,350.7,342.5,344z"/>
			<path class="st10" d="M334.7,454.3c2.1,0.1,3.7,1.8,3.6,3.9l-0.1,3.8l-0.1,2.6l0,0.3l-0.6,6.7l-0.3,3.6l-0.2,0     c0-4.2-2.3-8.3-4.9-11.6c0-2.3,0-4.6,0.2-6.9c0,0-0.2,0-0.7,0l0.1-2.4L334.7,454.3z"/>
			<path class="st4" d="M338,464.8l0-0.3l-0.1,2.3l-0.3,8.5c-0.2-0.1-0.4-0.1-0.5-0.2l0.3-3.6L338,464.8z"/>
			<path class="st10" d="M337.6,475.3l0,0.6l-0.1,2l-0.2,5.4c0,1.1-0.5,2-1.3,2.7c-0.5-1.4-0.9-2.8-1.3-4.2c1.6-2.2,2.2-4.5,2.2-6.7     l0.2,0C337.3,475.1,337.4,475.2,337.6,475.3z"/>
			<path class="st10" d="M336.9,475.1c0,2.3-0.6,4.5-2.2,6.7c-1.7-5.9-2.6-12.1-2.7-18.4C334.6,466.7,336.9,470.9,336.9,475.1z"/>
			<path class="st10" d="M334.7,481.8c0.4,1.4,0.8,2.8,1.3,4.2c-0.7,0.6-1.6,0.9-2.6,0.9l-6.5-0.3c-0.3,0-0.6-0.1-0.8-0.1h3.4     C331.8,485,333.5,483.4,334.7,481.8z"/>
			<path class="st10" d="M332.3,456.5c-0.2,2.3-0.3,4.6-0.2,6.9c-3.2-4.1-6.7-6.8-6.7-6.9c0-0.1,0-0.1,0-0.2c2.2,0,5,0.1,6.3,0.1     C332,456.5,332.3,456.5,332.3,456.5z"/>
			<path class="st10" d="M332,463.5c0.1,6.2,1,12.4,2.7,18.4c-1.2,1.6-2.9,3.2-5.2,4.7h-3.4c-1.6-0.4-2.8-2-2.7-3.8l0.1-2.6     l0.8-21.1l0.1-1.5c0-0.4,0.1-0.8,0.2-1.2c0.2,0,0.5,0,0.8,0c0,0.1,0,0.1,0,0.2C325.3,456.6,328.8,459.4,332,463.5z"/>
			<path class="st10" d="M331.7,454.1l-0.1,2.4c-1.3,0-4.1-0.1-6.3-0.1c0.1-0.5,0.1-1,0.2-1.5c0.7-0.6,1.6-1,2.6-1L331.7,454.1z"/>
			<path class="st10" d="M325.6,454.9c-0.1,0.5-0.2,1-0.2,1.5c-0.3,0-0.5,0-0.8,0C324.8,455.8,325.1,455.3,325.6,454.9z"/>
			<path d="M281.7,581.1l0,0.4c-0.1-0.1-0.1-0.1-0.2-0.2C281.5,581.2,281.6,581.2,281.7,581.1z"/>
		</g>
		<g>
		</g>
	</g>
	<g>
		<g>
			<g>
				<g>
					<g>
						<path class="st11" d="M349.7,268.7c-5.1,0-8.5,4.9-7.6,10.9l2.4,15.4c0.9,6,5.8,10.9,10.9,10.9h7.5c5.1,0,8.5-4.9,7.6-10.9        l-2.4-15.4c-0.9-6-5.8-10.9-10.9-10.9H349.7z"/>
					</g>
				</g>
				<g>
					<path class="st12" d="M349.2,268.7c-0.1,0-0.2,0-0.3,0c0,0-0.1,0-0.1,0c-0.1,0-0.2,0-0.2,0c0,0-0.1,0-0.1,0c-0.1,0-0.2,0-0.3,0       c0,0-0.1,0-0.1,0c-0.1,0-0.2,0.1-0.3,0.1c0,0,0,0,0,0c-0.1,0-0.2,0.1-0.3,0.1c0,0-0.1,0-0.1,0c-0.1,0-0.2,0.1-0.2,0.1       c0,0-0.1,0-0.1,0c-0.1,0-0.2,0.1-0.3,0.1l6.7-3.1c0.1,0,0.2-0.1,0.3-0.1c0,0,0.1,0,0.1,0c0,0,0.1,0,0.1,0c0,0,0.1,0,0.1,0       c0,0,0.1,0,0.1,0c0.1,0,0.2-0.1,0.3-0.1c0,0,0,0,0,0c0.1,0,0.2-0.1,0.3-0.1c0,0,0.1,0,0.1,0c0.1,0,0.1,0,0.2,0c0,0,0.1,0,0.1,0       c0,0,0.1,0,0.1,0c0.1,0,0.2,0,0.2,0c0,0,0.1,0,0.1,0c0.1,0,0.2,0,0.3,0c0,0,0.1,0,0.1,0c0.1,0,0.3,0,0.4,0h7.5       c0.1,0,0.2,0,0.3,0c0.1,0,0.1,0,0.2,0c0,0,0.1,0,0.1,0c0.1,0,0.3,0,0.4,0c0,0,0,0,0.1,0c0.1,0,0.2,0,0.4,0.1c0,0,0.1,0,0.1,0       c0.1,0,0.3,0.1,0.4,0.1c0,0,0,0,0.1,0c0.1,0,0.2,0.1,0.4,0.1c0,0,0.1,0,0.1,0c0.1,0,0.3,0.1,0.4,0.1c0,0,0,0,0.1,0       c0.1,0,0.2,0.1,0.4,0.1c0,0,0.1,0,0.1,0c0.1,0.1,0.3,0.1,0.4,0.2c0,0,0,0,0,0c0.1,0.1,0.2,0.1,0.4,0.2c0,0,0.1,0,0.1,0.1       c0.1,0.1,0.3,0.1,0.4,0.2c0,0,0,0,0,0c0.1,0.1,0.2,0.1,0.3,0.2c0,0,0.1,0,0.1,0.1c0,0,0.1,0,0.1,0.1c0.1,0,0.1,0.1,0.2,0.1       c0.1,0,0.1,0.1,0.2,0.1c0.1,0.1,0.2,0.1,0.2,0.2c0.1,0,0.1,0.1,0.2,0.1c0.1,0.1,0.2,0.1,0.3,0.2c0,0,0.1,0.1,0.1,0.1       c0.1,0.1,0.2,0.2,0.3,0.3c0,0,0,0,0,0c0,0,0,0,0,0c0.1,0.1,0.2,0.2,0.3,0.3c0,0,0.1,0.1,0.1,0.1c0.1,0.1,0.2,0.2,0.3,0.3       c0,0,0.1,0.1,0.1,0.1c0.1,0.1,0.2,0.2,0.3,0.3c0,0,0,0,0,0c0.1,0.2,0.3,0.3,0.4,0.5c0,0,0.1,0.1,0.1,0.1       c0.1,0.1,0.2,0.3,0.3,0.4c0,0,0,0,0.1,0.1c0,0,0,0.1,0.1,0.1c0.1,0.1,0.1,0.2,0.2,0.3c0,0.1,0.1,0.1,0.1,0.2       c0.1,0.1,0.1,0.2,0.2,0.4c0,0,0,0.1,0.1,0.1c0,0,0,0,0,0c0.1,0.2,0.2,0.4,0.3,0.5c0,0,0,0.1,0,0.1c0.1,0.2,0.2,0.3,0.2,0.5       c0,0,0,0,0,0.1c0.1,0.1,0.1,0.2,0.2,0.4c0,0,0,0,0,0.1c0.1,0.1,0.1,0.3,0.2,0.4c0,0,0,0.1,0,0.1c0.1,0.1,0.1,0.3,0.1,0.4       c0,0,0,0,0,0c0,0,0,0.1,0,0.1c0,0.1,0.1,0.2,0.1,0.4c0,0.1,0,0.1,0,0.2c0,0.1,0.1,0.2,0.1,0.4c0,0,0,0.1,0,0.1       c0,0.2,0.1,0.3,0.1,0.5c0,0,0,0,0,0c0,0.2,0.1,0.4,0.1,0.6l2.4,15.4c0.3,1.9,0.2,3.7-0.3,5.3c-0.2,0.6-0.4,1.2-0.7,1.7       c-0.1,0.2-0.2,0.4-0.4,0.6c-0.1,0.2-0.3,0.4-0.4,0.6c-0.1,0.2-0.3,0.4-0.5,0.5c-0.2,0.2-0.5,0.5-0.8,0.7       c-0.1,0.1-0.2,0.1-0.3,0.2c-0.4,0.3-0.8,0.5-1.2,0.7l-6.7,3.1c3.3-1.5,5.2-5.5,4.5-10.2l-2.4-15.4c0-0.2-0.1-0.4-0.1-0.6       c0-0.2-0.1-0.3-0.1-0.5c0,0,0-0.1,0-0.1c0-0.1-0.1-0.2-0.1-0.4c0-0.1,0-0.1,0-0.2c0-0.1-0.1-0.2-0.1-0.4c0,0,0-0.1,0-0.1       c-0.1-0.2-0.1-0.3-0.2-0.5c0,0,0-0.1,0-0.1c-0.1-0.1-0.1-0.3-0.2-0.4c0,0,0,0,0-0.1c-0.1-0.1-0.1-0.3-0.2-0.4       c-0.1-0.2-0.2-0.3-0.2-0.5c0,0,0-0.1,0-0.1c-0.1-0.2-0.2-0.4-0.3-0.5c0-0.1-0.1-0.1-0.1-0.2c-0.1-0.1-0.1-0.2-0.2-0.4       c0-0.1-0.1-0.1-0.1-0.2c-0.1-0.1-0.1-0.2-0.2-0.3c0-0.1-0.1-0.1-0.1-0.2c-0.1-0.1-0.2-0.3-0.3-0.4c0,0-0.1-0.1-0.1-0.1       c-0.1-0.2-0.3-0.3-0.4-0.5c-0.1-0.1-0.2-0.2-0.3-0.3c0,0-0.1-0.1-0.1-0.1c-0.1-0.1-0.2-0.2-0.3-0.3c0,0-0.1-0.1-0.1-0.1       c-0.1-0.1-0.2-0.2-0.3-0.3c0,0,0,0,0,0c-0.1-0.1-0.2-0.2-0.3-0.3c0,0-0.1-0.1-0.1-0.1c-0.1-0.1-0.2-0.1-0.3-0.2       c-0.1,0-0.1-0.1-0.2-0.1c-0.1-0.1-0.2-0.1-0.2-0.2c-0.1,0-0.1-0.1-0.2-0.1c-0.1-0.1-0.2-0.1-0.2-0.2c0,0-0.1,0-0.1-0.1       c-0.1-0.1-0.2-0.1-0.3-0.2c0,0,0,0,0,0c-0.1-0.1-0.3-0.1-0.4-0.2c0,0-0.1,0-0.1-0.1c-0.1-0.1-0.2-0.1-0.4-0.2c0,0,0,0,0,0       c-0.1-0.1-0.3-0.1-0.4-0.2c0,0-0.1,0-0.1,0c-0.1,0-0.2-0.1-0.4-0.1c0,0,0,0-0.1,0c-0.1,0-0.3-0.1-0.4-0.1c0,0-0.1,0-0.1,0       c-0.1,0-0.2-0.1-0.4-0.1c0,0,0,0-0.1,0c-0.1,0-0.3-0.1-0.4-0.1c0,0-0.1,0-0.1,0c-0.1,0-0.2,0-0.4-0.1c0,0,0,0-0.1,0       c-0.1,0-0.3,0-0.4,0c0,0-0.1,0-0.1,0c-0.1,0-0.3,0-0.4,0h-7.5c-0.1,0-0.3,0-0.4,0C349.3,268.7,349.3,268.7,349.2,268.7z"/>
				</g>
			</g>
		</g>
		<g>
			<g>
				<g>
					<path class="st11" d="M371.1,232.7v0.3c-0.1,0-0.3-0.1-0.4-0.1c0,0-0.1,0-0.1,0c-0.1,0-0.3-0.1-0.4-0.1c-0.1,0-0.1,0-0.2,0       c-0.1,0-0.2,0-0.4,0c-0.1,0-0.1,0-0.2,0c-0.1,0-0.3,0-0.4,0c-0.1,0-0.1,0-0.2,0c-0.2,0-0.4,0-0.6,0H371.1z"/>
				</g>
			</g>
			<g>
				<g>
					<path class="st11" d="M344.8,262.3c0-0.1,0-0.2,0-0.3c0-0.2,0-0.3,0-0.5c0,0,0-0.1,0-0.1c0-0.3,0-0.5,0-0.8c0-0.1,0-0.1,0-0.2       c0-0.3,0-0.6,0.1-1c0-0.1,0-0.2,0-0.3c0-0.2,0-0.5,0.1-0.7c0-0.1,0-0.2,0-0.4c0-0.2,0-0.4,0.1-0.6c0-0.1,0-0.1,0-0.2       c0-0.1,0-0.2,0-0.3c0-0.1,0-0.2,0-0.3c0-0.2,0-0.4,0.1-0.5c0-0.1,0-0.2,0-0.3c0-0.2,0.1-0.5,0.1-0.7c0,0,0-0.1,0-0.1       c0-0.3,0.1-0.5,0.1-0.8c0-0.1,0-0.2,0-0.2c0-0.2,0.1-0.4,0.1-0.6c0-0.1,0-0.2,0.1-0.3c0-0.2,0.1-0.3,0.1-0.5       c0-0.1,0-0.2,0.1-0.3c0-0.2,0.1-0.3,0.1-0.5c0-0.1,0-0.2,0.1-0.3c0-0.1,0-0.1,0-0.2c0-0.1,0-0.1,0-0.1c0.1-0.3,0.2-0.7,0.2-1       c0,0,0-0.1,0-0.1c0.1-0.4,0.2-0.7,0.3-1.1c0-0.1,0-0.2,0.1-0.3c0.1-0.4,0.2-0.7,0.3-1.1c0,0,0,0,0,0c0.1-0.4,0.2-0.7,0.3-1.1       c0-0.1,0.1-0.2,0.1-0.2c0.1-0.4,0.2-0.7,0.4-1c0,0,0-0.1,0-0.1c0.1-0.3,0.2-0.6,0.4-1c0-0.1,0.1-0.2,0.1-0.2       c0.1-0.3,0.3-0.7,0.4-1c0-0.1,0-0.1,0.1-0.2c0.1-0.3,0.3-0.6,0.4-0.9c0,0,0-0.1,0.1-0.1c0,0,0-0.1,0-0.1       c0.1-0.3,0.3-0.6,0.4-0.9c0-0.1,0.1-0.1,0.1-0.2c0.1-0.3,0.3-0.5,0.4-0.8c0-0.1,0.1-0.1,0.1-0.2c0.2-0.3,0.3-0.6,0.5-0.9       c0-0.1,0.1-0.1,0.1-0.2c0.1-0.2,0.3-0.5,0.4-0.7c0,0,0-0.1,0.1-0.1c0-0.1,0.1-0.1,0.1-0.2c0.1-0.2,0.3-0.4,0.4-0.6       c0-0.1,0.1-0.1,0.1-0.2c0.1-0.1,0.2-0.3,0.3-0.4c0-0.1,0.1-0.1,0.1-0.2c0.1-0.1,0.2-0.2,0.3-0.4c0.1-0.1,0.1-0.1,0.2-0.2       c0,0,0.1-0.1,0.1-0.1c0.1-0.1,0.2-0.2,0.3-0.3c0,0,0,0,0-0.1c0.1-0.2,0.3-0.3,0.4-0.5c0,0,0.1-0.1,0.1-0.1       c0.1-0.1,0.2-0.3,0.3-0.4c0,0,0.1-0.1,0.1-0.1c0,0,0,0,0.1-0.1c0,0,0.1-0.1,0.1-0.1c0.1-0.1,0.3-0.3,0.4-0.4       c0.1-0.1,0.1-0.1,0.2-0.2c0.1-0.1,0.2-0.3,0.4-0.4c0,0,0.1-0.1,0.1-0.1c0,0,0,0,0.1-0.1c0.1-0.1,0.2-0.2,0.3-0.3       c0.1-0.1,0.1-0.1,0.2-0.2c0.1-0.1,0.2-0.2,0.4-0.3c0,0,0.1-0.1,0.1-0.1c0,0,0,0,0,0c0.1-0.1,0.2-0.2,0.3-0.2       c0.1-0.1,0.2-0.1,0.2-0.2c0.1-0.1,0.2-0.2,0.3-0.2c0.1-0.1,0.1-0.1,0.2-0.2c0,0,0,0,0,0c0.1-0.1,0.1-0.1,0.2-0.1       c0.1-0.1,0.2-0.2,0.3-0.2c0.1-0.1,0.1-0.1,0.2-0.2c0.1-0.1,0.2-0.1,0.3-0.2c0,0,0,0,0,0c0.1,0,0.1-0.1,0.2-0.1       c0.1-0.1,0.2-0.1,0.3-0.2c0.1,0,0.1-0.1,0.2-0.1c0.1,0,0.1-0.1,0.2-0.1c0,0,0.1,0,0.1-0.1c0.1,0,0.1-0.1,0.2-0.1       c0.1-0.1,0.2-0.1,0.3-0.2c0.1,0,0.1-0.1,0.2-0.1c0,0,0.1,0,0.1-0.1c0.1,0,0.1-0.1,0.2-0.1c0.1,0,0.1-0.1,0.2-0.1       c0.1-0.1,0.2-0.1,0.3-0.2c0.1,0,0.1-0.1,0.2-0.1c0,0,0,0,0.1,0c0.1-0.1,0.3-0.1,0.4-0.2c0,0,0.1,0,0.1,0       c0.2-0.1,0.3-0.1,0.5-0.2c0,0,0,0,0,0c0.1,0,0.1,0,0.2-0.1c0.1,0,0.3-0.1,0.4-0.1c0.1,0,0.1,0,0.2-0.1c0.1,0,0.2-0.1,0.2-0.1       c0,0,0.1,0,0.1,0c0.1,0,0.2,0,0.2-0.1c0.1,0,0.2-0.1,0.3-0.1c0.1,0,0.2,0,0.2-0.1c0,0,0.1,0,0.1,0c0.1,0,0.1,0,0.2,0       c0.1,0,0.2,0,0.3-0.1c0.1,0,0.2,0,0.3-0.1c0.1,0,0.2,0,0.2,0c0,0,0.1,0,0.1,0c0.1,0,0.1,0,0.2,0c0.1,0,0.2,0,0.3,0       c0.1,0,0.2,0,0.3,0c0.1,0,0.2,0,0.3,0c0,0,0.1,0,0.1,0c0.1,0,0.1,0,0.2,0c0.1,0,0.2,0,0.4,0c0.1,0,0.2,0,0.3,0       c0.1,0,0.2,0,0.4,0c0,0,0.1,0,0.1,0c0.1,0,0.2,0,0.3,0h2.8l2.4,0.9c0,0-2.5,1.6-2.5,1.7c-0.1,0.1-0.2,0.1-0.3,0.2       c-0.1,0-0.1,0.1-0.2,0.1c-0.1,0.1-0.2,0.1-0.3,0.2c-0.1,0-0.1,0.1-0.2,0.1c-0.1,0.1-0.2,0.1-0.3,0.2c-0.1,0.1-0.1,0.1-0.2,0.2       c-0.1,0.1-0.2,0.2-0.3,0.2c-0.1,0-0.1,0.1-0.2,0.1c-0.1,0.1-0.2,0.1-0.2,0.2c-0.1,0.1-0.2,0.2-0.3,0.2       c-0.1,0.1-0.2,0.1-0.2,0.2c-0.1,0.1-0.2,0.2-0.3,0.2c-0.1,0.1-0.1,0.1-0.2,0.2c-0.1,0.1-0.2,0.2-0.4,0.3       c-0.1,0.1-0.1,0.1-0.2,0.2c-0.1,0.1-0.2,0.2-0.3,0.3c-0.1,0.1-0.1,0.1-0.2,0.2c-0.1,0.1-0.2,0.3-0.4,0.4       c-0.1,0.1-0.1,0.1-0.2,0.2c-0.1,0.1-0.3,0.3-0.4,0.4c-0.1,0.1-0.1,0.1-0.2,0.2c0,0-0.1,0.1-0.1,0.1c-0.1,0.1-0.2,0.3-0.3,0.4       c0,0-0.1,0.1-0.1,0.1c-0.1,0.2-0.3,0.3-0.4,0.5c0,0,0,0,0,0.1c-0.1,0.2-0.2,0.3-0.3,0.5c-0.1,0.1-0.1,0.1-0.2,0.2       c-0.1,0.1-0.2,0.2-0.3,0.4c0,0.1-0.1,0.1-0.1,0.2c-0.1,0.1-0.2,0.3-0.3,0.4c0,0.1-0.1,0.1-0.1,0.2c-0.1,0.2-0.3,0.4-0.4,0.6       c-0.1,0.1-0.1,0.2-0.2,0.3c-0.2,0.2-0.3,0.5-0.4,0.7c0,0.1-0.1,0.1-0.1,0.2c-0.2,0.3-0.3,0.6-0.5,0.9c0,0.1-0.1,0.1-0.1,0.2       c-0.1,0.3-0.3,0.5-0.4,0.8c0,0.1-0.1,0.1-0.1,0.2c-0.2,0.3-0.3,0.6-0.4,0.9c0,0.1-0.1,0.1-0.1,0.2c-0.1,0.3-0.3,0.6-0.4,0.9       c0,0.1,0,0.1-0.1,0.2c-0.1,0.3-0.3,0.7-0.4,1c0,0.1-0.1,0.2-0.1,0.2c-0.1,0.3-0.2,0.6-0.4,1c0,0,0,0.1,0,0.1       c-0.1,0.3-0.2,0.7-0.4,1c0,0.1-0.1,0.2-0.1,0.3c-0.1,0.4-0.2,0.7-0.3,1.1c0,0,0,0,0,0c-0.1,0.4-0.2,0.7-0.3,1.1       c0,0.1,0,0.2-0.1,0.3c-0.1,0.4-0.2,0.7-0.3,1.1c0,0,0,0.1,0,0.1c-0.1,0.3-0.2,0.7-0.2,1c0,0.1,0,0.2-0.1,0.3       c0,0.1,0,0.2-0.1,0.3c0,0.2-0.1,0.3-0.1,0.5c0,0.1,0,0.2-0.1,0.3c0,0.2-0.1,0.3-0.1,0.5c0,0.1,0,0.2-0.1,0.3       c0,0.2-0.1,0.4-0.1,0.6c0,0.1,0,0.2,0,0.2c0,0.3-0.1,0.5-0.1,0.8c0,0,0,0.1,0,0.1c0,0.2-0.1,0.5-0.1,0.7c0,0.1,0,0.2,0,0.3       c0,0.2,0,0.4-0.1,0.5c0,0.1,0,0.2,0,0.3c0,0.2,0,0.3,0,0.5c0,0.2,0,0.4-0.1,0.6c0,0.1,0,0.2,0,0.4c0,0.2,0,0.5-0.1,0.7       c0,0.1,0,0.2,0,0.3c0,0.3,0,0.6-0.1,1c0,0.1,0,0.1,0,0.2c0,0.3,0,0.5,0,0.8c0,0.2,0,0.4,0,0.6c0,0.1,0,0.2,0,0.3       c0,0.3,0,0.6,0,0.8c0,0.3,0,0.6,0,0.9c0,0.1,0,0.2,0,0.3c0,0.2,0,0.4,0,0.6c0,0.3,0,0.5,0,0.8c0,0.1,0,0.1,0,0.2       c0,0.2,0,0.4,0,0.6c0,0.1,0,0.2,0,0.3c0,0.2,0,0.3,0,0.5c0,0.1,0,0.2,0,0.3c0,0.2,0,0.4,0,0.5c0,0.1,0,0.2,0,0.2       c0,0,0,0.1,0,0.1h-6.7c-1.7,0-3.3,0.6-4.5,1.6c0,0,0-0.1,0-0.1c0-0.2-0.1-0.5-0.1-0.7c0,0,0,0,0,0c0-0.3-0.1-0.5-0.1-0.8       c0-0.1,0-0.2,0-0.2c0-0.1,0-0.2,0-0.3c0-0.1,0-0.2,0-0.2c0-0.1,0-0.2,0-0.3c0-0.2,0-0.3,0-0.5c0-0.1,0-0.2,0-0.3       c0-0.2,0-0.4,0-0.6c0-0.1,0-0.1,0-0.2c0-0.3,0-0.5,0-0.8c0,0,0,0,0,0c0-0.2,0-0.4,0-0.6c0-0.1,0-0.2,0-0.3c0-0.3,0-0.6,0-0.9       C344.8,262.9,344.8,262.6,344.8,262.3z"/>
				</g>
			</g>
			<g>
				<g>
					<path class="st12" d="M362.8,237.9c2.4-3.7,7.2-8.2,10.3-10.1l4,1.6c-6.1,5.1-16.3,21.9-16.3,33.8c0,2.2,0.1,4.4,0.4,6.5       c-1.2-0.6-2.6-0.9-3.9-0.9h-0.9c-0.2-1.8-0.3-3.6-0.3-5.5C356.1,253.6,358.5,244.7,362.8,237.9z"/>
				</g>
			</g>
		</g>
		<g>
			<path class="st13" d="M348.8,263.2c0-10.1,2.5-19.3,6.9-26.1c2.4-3.6,6-7.1,10.4-9.9c0.1,0,0.1,0,0.2,0c0.1,0,0.2,0,0.3,0     c0,0,0.1,0,0.1,0c0.1,0,0.1,0,0.2,0c0.1,0,0.2,0,0.4,0c0.1,0,0.2,0,0.3,0c0.1,0,0.2,0,0.4,0c0,0,0.1,0,0.1,0c0.1,0,0.2,0,0.3,0     h0.3h2.4h1c-0.8,0.4-1.6,0.8-2.4,1.3c-4.9,2.8-9.1,6.5-11.6,10.4c-4.2,6.3-6.5,15-6.5,24.5c0,1.8,0.1,3.6,0.3,5.4l-1.4,0.1h-0.8     c-0.2,0-0.4,0-0.7,0C348.9,266.9,348.8,265,348.8,263.2z"/>
		</g>
		<g>
			<g class="st14">
				<g>
					<g>
						<path class="st13" d="M349.5,287.5c-0.3-1.8,0.2-3.6,1.2-4.8c0.9-1,2.1-1.6,3.5-1.6c3,0,5.7,2.6,6.2,6        c0.3,1.8-0.2,3.6-1.2,4.8c-0.9,1-2.1,1.6-3.5,1.6C352.7,293.5,350,290.9,349.5,287.5z M352.8,284.5c-0.5,0.6-0.7,1.5-0.6,2.5        c0.3,1.9,1.9,3.6,3.4,3.6c0.5,0,1-0.2,1.4-0.6c0.5-0.6,0.7-1.5,0.6-2.5c-0.3-1.9-1.9-3.6-3.4-3.6        C353.7,283.9,353.2,284.1,352.8,284.5z"/>
					</g>
				</g>
			</g>
		</g>
	</g>
	<path class="st15" d="M360.9,302.5l0.3,0.7c2.6,6.3,8,11.1,14.6,12.9l3.1,0.8"/>
	<ellipse class="st11" cx="379.5" cy="316" rx="4.5" ry="3"/>
	<g>
		<polygon class="st16" points="277,473.9 374.7,473.9 611.2,473.9 611.2,496.7 598,496.7 380,496.7 224.4,496.7 145.6,496.7     129.3,496.7 129.3,474 129.3,473.9 219.2,473.9   "/>
		<path class="st16" d="M598,540.1V726h-22.6L573,541.4c0,0-14.4,0-37.8-0.1v-1.2h-27.6H173.2L170.7,726h-25c0,0,0-119,0-185.9v-3.4    v-40.9h78.8H380h218V540.1z"/>
		<path class="st16" d="M535.2,539.6l-2.5,184.7h-25.1c0,0,0-117.7,0-184.8C517.7,539.6,527,539.6,535.2,539.6z"/>
		<path class="st16" d="M145.6,536.7v3.4h-33.5L109.6,726h-25c0,0,0-119,0-185.9h0.4v-44.3h44.4h16.3V536.7z"/>
		<polygon class="st16" points="129.3,474 129.3,496.7 84.9,496.7 76,496.7 76,474   "/>
		<polygon class="st16" points="277,473.9 374.7,473.9 611.2,473.9 611.2,496.7 598,496.7 380,496.7 224.4,496.7 145.6,496.7     129.3,496.7 129.3,474 129.3,473.9 219.2,473.9   "/>
		<path class="st17" d="M598,540.1V726h-22.6L573,541.4c0,0-14.4,0-37.8-0.1v-1.2h-27.6H173.2L170.7,726h-25c0,0,0-119,0-185.9v-3.4    v-40.9h78.8H380h218V540.1z"/>
	</g>
	<g>
		<polygon class="st18" points="457,438.3 494.3,438.3 511.7,475 439.6,475   "/>
		<path class="st19" d="M388,316h175.4c4.9,0,9,4.7,9,10.4v110.8c0,5.7-4,10.4-9,10.4H388c-4.9,0-9-4.7-9-10.4V326.4    C379,320.7,383,316,388,316z"/>
		<path class="st20" d="M368.6,463.9h214.1c2.6,0,4.8,2.5,4.8,5.5l0,0c0,3-2.1,5.5-4.8,5.5H368.6c-2.6,0-4.8-2.5-4.8-5.5l0,0    C363.8,466.4,366,463.9,368.6,463.9z"/>
		<path class="st0" d="M590,325.9L590,325.9c0.5,0,0.8,0.4,0.8,1v6.8c0,0.5-0.4,1-0.8,1l0,0c-0.5,0-0.8-0.4-0.8-1v-6.8    C589.2,326.3,589.6,325.9,590,325.9z"/>
		<path class="st20" d="M442.2,463.9h140.5c2.6,0,4.8,2.5,4.8,5.5l0,0c0,3-2.1,5.5-4.8,5.5H443.2L442.2,463.9z"/>
	</g>
	<polygon class="st21" points="585.3,350.4 607.4,356 635.1,314.5 616.3,306.4 606.5,346.6 591.1,333.7  "/>
</g>
</svg>