<svg xmlns="http://www.w3.org/2000/svg" id="Layer_1" data-name="Layer 1" viewBox="0 0 1117 979"><defs xmlns="http://www.w3.org/2000/svg"><style>.cls-1{fill:#0e538c;}.cls-2{fill:#0b4870;}.cls-3{fill:#f5fafa;}.cls-4{fill:#2a94f4;}.cls-5{fill:#ffb750;}.cls-6{fill:#fff;}.cls-7{fill:#cce9ff;}.cls-8{fill:#ffe3ca;}.cls-9{fill:#fcd2b1;}.cls-10{fill:#f7f7f7;}.cls-11{fill:#d3d3d3;}.cls-12{fill:#f2f0f0;}.cls-13{fill:#492817;}.cls-14{fill:#f2f2f2;}.cls-15{fill:#ffbe55;}.cls-16{fill:#ccc6c6;}.cls-17{fill:none;stroke:#cce9ff;stroke-miterlimit:10;stroke-width:0.75px;}</style></defs><title xmlns="http://www.w3.org/2000/svg">Artboard 1 copy 5</title><path xmlns="http://www.w3.org/2000/svg" class="cls-1" d="M967.87,276C949.22,274.35,936,289,917,291.23c-7.74.9-15.77.48-23,3.69-11.21,5-17.84,17.4-20.87,29.43-2.13,8.44-3.27,17.74-9.23,24.15-5.39,5.79-13.42,7.76-20,12C825.5,372.42,822,397.63,819,417.14c-1.46,9.44-2.3,19.15.13,28.28.15.55,3.39,8.51,3.39,8.51l49.16-60.18c32.06-39.25,63.68-79,96.25-117.78Z"/><path xmlns="http://www.w3.org/2000/svg" class="cls-2" d="M967.87,276c-.56.69,1.77,12.53,1.57,15a33.28,33.28,0,0,1-7.2,18.41c-4.56,5.9-10,12.26-9.67,19.54.29,6.13,4.7,11,6.07,16.91,1.92,8.3-2.43,17.14-7.54,24.35-9.56,13.51-22.05,23.92-36.24,31.8-13.22,7.33-17.19,16.6-25.18,29.35-9.46,15.1-23.17,17.15-38.31,21.09-6.91,1.8-12.94,3.9-20.2,3.3-.54,0-8.68-1.77-8.68-1.77Z"/><path xmlns="http://www.w3.org/2000/svg" class="cls-3" d="M821.76,454.82a1.14,1.14,0,0,1-.09-1.58l145.38-178a1.1,1.1,0,0,1,1.55-.2,1.14,1.14,0,0,1,.09,1.58l-145.38,178A1.1,1.1,0,0,1,821.76,454.82Z"/><path xmlns="http://www.w3.org/2000/svg" class="cls-3" d="M859.2,409a1.24,1.24,0,0,1-.18-.21,1.18,1.18,0,0,1,.3-1.58c1.89-1.41,46.68-34.41,74.13-28.72a1,1,0,0,1,.78,1.32,1.17,1.17,0,0,1-1.34.89c-26.5-5.5-71.9,28-72.35,28.3A1.08,1.08,0,0,1,859.2,409Z"/><path xmlns="http://www.w3.org/2000/svg" class="cls-3" d="M902.81,355.6a1.09,1.09,0,0,1-.3-1.22c.13-.36,12.92-36-2.83-49.19a1.14,1.14,0,0,1-.09-1.58,1.09,1.09,0,0,1,1.54-.2c16.9,14.18,4,50.12,3.43,51.64a1.16,1.16,0,0,1-1.42.74A1.09,1.09,0,0,1,902.81,355.6Z"/><path xmlns="http://www.w3.org/2000/svg" class="cls-4" d="M1099.61,374.27c-5.2,16.41-14,39.5-29.2,48.23-7.25,4.17-15.7,7.18-22.06,13.12-7.33,6.85-8.41,15.9-14.45,23.31-24.5,30.08-57.57-.9-81.48,19.95-5.86,5.1-9.81,12.35-15.6,17.55-7.42,6.67-17.2,9.3-26.27,9.17-16.6-.24-33.23-5.92-47.32-13.24-9.54-5-19.79-6.44-27.83-14.33-.4-.4-6-7.45-6-7.44Z"/><path xmlns="http://www.w3.org/2000/svg" class="cls-4" d="M1099.6,374.27c-5.25,1.8-16.93-10.62-20.91-13.06-9.59-5.9-21.23-10.41-32.92-11.1-7.81-.46-16.42,1.71-22.73,7.65-2.35,2.22-4.42,5-7.24,6.34-4.16,2-8.73.38-12-2.24-12-9.54-22.62-16.56-39.44-6.64-12.67,7.47-29.36,21.6-38.91,32.95-3.39,4-6.65,8.6-11.21,10.81-4.13,2-8.61,1.76-13,2.1-25.34,2-56.82,25.19-66.24,51.1-.32.89-6,18.52-5.66,18.41Z"/><path xmlns="http://www.w3.org/2000/svg" class="cls-3" d="M828,471.07a1.2,1.2,0,0,0,1.63.91l270.26-96.33a1.68,1.68,0,0,0,1.06-1.86,1.2,1.2,0,0,0-1.63-.91L829.07,469.21A1.67,1.67,0,0,0,828,471.07Z"/><path xmlns="http://www.w3.org/2000/svg" class="cls-3" d="M897.6,446.27a1.16,1.16,0,0,0,.12.34,1.24,1.24,0,0,0,1.85.39c2.55-1.71,62.5-42.15,71.57-79.74a1.27,1.27,0,0,0-1-1.64,1.59,1.59,0,0,0-1.68,1.27c-8.76,36.29-69.54,77.27-70.15,77.68A1.69,1.69,0,0,0,897.6,446.27Z"/><path xmlns="http://www.w3.org/2000/svg" class="cls-3" d="M978.66,417.37a1.2,1.2,0,0,0,1.15,1c.45,0,45.54,1.38,51,27.86a1.19,1.19,0,0,0,1.63.9,1.68,1.68,0,0,0,1.07-1.86c-5.82-28.4-51.32-29.79-53.26-29.83a1.62,1.62,0,0,0-1.56,1.43A1.45,1.45,0,0,0,978.66,417.37Z"/><path xmlns="http://www.w3.org/2000/svg" class="cls-3" d="M868.12,459.25a1.2,1.2,0,0,0,1.15,1c.45,0,45.54,1.38,51,27.86a1.19,1.19,0,0,0,1.63.9,1.67,1.67,0,0,0,1.07-1.86c-5.82-28.4-51.32-29.79-53.25-29.83a1.63,1.63,0,0,0-1.57,1.43A1.45,1.45,0,0,0,868.12,459.25Z"/><path xmlns="http://www.w3.org/2000/svg" class="cls-5" d="M1070.32,540.17c-8.06-16.9-27.42-20.85-38.91-36.08-4.7-6.23-8.4-13.36-14.86-18-9.95-7.16-24-6.57-35.94-3.09-8.35,2.44-17,6.17-25.5,4.27-7.72-1.71-13.49-7.64-20.49-11.15-19.59-9.84-43.11-.11-61.45,7.19-8.88,3.53-17.68,7.72-24.32,14.44-.4.4-5.61,7.23-5.62,7.23L920,516.88c50.09,7.76,100.37,14.89,150.31,23.32Z"/><path xmlns="http://www.w3.org/2000/svg" class="cls-5" d="M1070.33,540.17c-.88-.14-9.91,7.87-12.13,9a33.33,33.33,0,0,1-19.53,3.12c-7.4-.94-15.64-2.42-21.74,1.56-5.14,3.35-7.1,9.62-11.5,13.79-6.19,5.86-16,6.59-24.82,5.84-16.49-1.4-31.8-6.89-45.77-15.13-13-7.69-23-6.42-38.07-6.85-17.81-.5-26.52-11.28-37.59-22.34-5-5.05-9.92-9.18-13.08-15.75-.24-.48-2.86-8.38-2.87-8.38Z"/><path xmlns="http://www.w3.org/2000/svg" class="cls-3" d="M842.1,504.81a1.13,1.13,0,0,1,1.31-.89l227.09,35.19a1.1,1.1,0,0,1,1,1.24,1.13,1.13,0,0,1-1.31.88L843.05,506A1.09,1.09,0,0,1,842.1,504.81Z"/><path xmlns="http://www.w3.org/2000/svg" class="cls-3" d="M900.58,513.87a2.76,2.76,0,0,1,.08-.27,1.17,1.17,0,0,1,1.52-.53c2.17.92,53.32,22.81,62.32,49.36a1.05,1.05,0,0,1-.75,1.34,1.17,1.17,0,0,1-1.44-.71c-8.69-25.63-60.54-47.81-61.06-48A1.06,1.06,0,0,1,900.58,513.87Z"/><path xmlns="http://www.w3.org/2000/svg" class="cls-3" d="M968.7,524.42a1.1,1.1,0,0,1,.9-.88c.38-.06,37.57-7.08,41-27.35a1.14,1.14,0,0,1,1.31-.89,1.1,1.1,0,0,1,1,1.24c-3.67,21.75-41.2,28.82-42.79,29.11a1.14,1.14,0,0,1-1.35-.85A1,1,0,0,1,968.7,524.42Z"/><path xmlns="http://www.w3.org/2000/svg" class="cls-6" d="M875,452.5c0,80.91-30.89,146.5-69,146.5s-69-65.59-69-146.5S775.89,286,814,286,875,371.59,875,452.5Z"/><path xmlns="http://www.w3.org/2000/svg" class="cls-7" d="M885.84,506.08q-.71-22-2.67-44.16c-7.34-82-28.45-164.16-69.46-233.6q-4.55-7.69-9.41-15.14c-27.68-42.26-67.87-76.73-114.5-85.8-38.79-7.54-78.36,3.35-113,22.73-34.82,19.5-61.3,49.07-93,73.31C396.81,290,277.57,291.16,194,362.87c-82,70.39-110.92,202.2-76.63,310.18,16.28,51.56,41,95.12,72.66,130h541v20.25c81.17-56.08,112.76-127.37,126.21-161.81C876.21,613,887.5,558.41,885.84,506.08Z"/><path xmlns="http://www.w3.org/2000/svg" class="cls-2" d="M593,523.38c1.41,4.49,3.26,9.09,6.92,12.21,5.37,4.59,13.24,4.94,20.43,5,8.3.12,17.39,0,23.72-5.15,3.58-2.9,5.78-7.07,7.38-11.3a56.59,56.59,0,0,0-2.54-45.3,20.09,20.09,0,0,0-5.09-6.84c-3-2.36-6.89-3.29-10.73-3.64a43.2,43.2,0,0,0-27.8,7.1c-7.68,5.2-13.93,13.38-16.23,22.2C587,505.64,590.63,515.83,593,523.38Z"/><path xmlns="http://www.w3.org/2000/svg" class="cls-8" d="M647.2,583c-4.07,2.74-16,1.05-19.94,3.31s-17.08,2.93-20.93,1.88c0-19.47,8.91-39.16,9.08-57.07,7.86,16.47,16.09,7.42,24.08-3.85C639.33,544.82,647,565.43,647.2,583Z"/><path xmlns="http://www.w3.org/2000/svg" class="cls-9" d="M615.07,545.08a24.69,24.69,0,0,0,2.8,5.47,15.79,15.79,0,0,0,9.06,6.51c4.4,1.25,8.87-1,12.18-3.81,1.08-.93,2.12-1.92,3.14-2.92-1.54-7.92-2.83-15.74-2.76-23-8,11.27-16.22,20.32-24.08,3.85.49,1-.14,3.67-.24,4.81-.15,1.77-.46,3.52-.64,5.29A9.32,9.32,0,0,0,615.07,545.08Z"/><path xmlns="http://www.w3.org/2000/svg" class="cls-2" d="M657.68,472.73c0-.75-.1-1.5-.2-2.25-.39-3-2-5.26-3.07-8.08a23.39,23.39,0,0,0-4.47-7.38,34.71,34.71,0,0,0-2.92-3.79l-.56-.81c-1.64-2.49-3-5.18-5-7.37-5.72-6.2-15.15-7-23.58-6.63-5.22.21-10.52.7-15.34,2.7s-9.14,5.72-10.77,10.68a13.06,13.06,0,0,0-.43,1.8c-11.37,7.22-17.76,22.08-14.34,35.24,1.16,4.44,3.29,9,2.38,13.42.37,2.6.64,5.22.85,7.84,1.89,2.1,4.91,3.17,6.88,1.3,1.43-1.36,1.55-3.55,1.58-5.52q.14-8.72.26-17.42a6.89,6.89,0,0,1,.56-3.16,7.77,7.77,0,0,1,2.34-2.26,29.66,29.66,0,0,0,8.57-10.21,39.26,39.26,0,0,0,12,7.7c7.85,3,16.5,3.2,24.83,2.23a55.63,55.63,0,0,0,6.88-1.2q.72,12.1,1.45,24.19c.17,3,.87,6.64,3.73,7.48,1.94.58,4.07-.6,5.22-2.27a14.08,14.08,0,0,0,1.86-5.74c.64-3.87,1.16-7.77,1.46-11.68.16-2,.36-4,.42-6.07s-.23-3.73-.34-5.64C657.72,477.46,657.8,475.09,657.68,472.73Z"/><path xmlns="http://www.w3.org/2000/svg" class="cls-8" d="M653.28,503.6c-.29-1.39-.76-2.9-1.88-3.59a3.44,3.44,0,0,0-2.18-.37,6.89,6.89,0,0,0-4.42,2.5,1.93,1.93,0,0,0-.49.26c.11,2.64.08,5.28.08,8,0,5.22.17,8.32-.57,13.52-.08.51-.69,3.26-.88,3.72a5.33,5.33,0,0,0,1.92-.56c3.94-1.48,6.92-5.37,8.25-9.76A27.7,27.7,0,0,0,653.28,503.6Z"/><path xmlns="http://www.w3.org/2000/svg" class="cls-8" d="M577.44,486.42s5.77,13.6,8.26,25.28,8.66,40.78,27.75,34.54,27.29-11.39,29.63-17.71,7.12-41.12-6.63-52.64S581.31,457.73,577.44,486.42Z"/><path xmlns="http://www.w3.org/2000/svg" class="cls-2" d="M634.19,453.83a13.06,13.06,0,0,0-.43-1.8c-1.62-5-6-8.68-10.77-10.68s-10.12-2.5-15.33-2.7c-8.44-.34-17.87.43-23.59,6.63-2,2.19-3.39,4.88-5,7.37l-.56.81a38.41,38.41,0,0,0-2.92,3.78c-1.39,1.65-2.84,3.24-4.3,4.83-1.23,1.33-2.87,2.8-4.62,2.29L566,461.9c-1.18-.56-2.08,1.21-2.05,2.51.07,3.87,1.94,6.44,3.88,9.58a53.1,53.1,0,0,1,6.42,13.76c.6,2.24.94,4.7,1.49,7.08.73,3.2,2.72,6.68,4.39,9.42.13-1.95,1.92-22.32,1.35-22.46a53.34,53.34,0,0,0,6.87,1.19c8.34,1,17,.74,24.83-2.22a39.45,39.45,0,0,0,12-7.7,29.66,29.66,0,0,0,8.57,10.21,7.66,7.66,0,0,1,2.34,2.26,8.13,8.13,0,0,1,.56,3.16c1.77,18.7,7.35,24.39,9.24,22.28.21-2.62,0-5.88.33-8.48.23-5.17,1.63-8.72,2.79-13.17C652.36,476.17,645.56,461.05,634.19,453.83Z"/><path xmlns="http://www.w3.org/2000/svg" class="cls-8" d="M529.7,622s-35.51,67.54-33.6,75.66,20.53,14,60.17,5.81,44-10.47,44-10.47L594.48,681s-61.13,10-59.7,2.14,29.14-40.35,29.14-40.35Z"/><path xmlns="http://www.w3.org/2000/svg" class="cls-1" d="M696.67,695.53c-2.14-16-4.14-32.23-6.47-48.4Q689,639,687.73,630.87c-.9-5.55-1.76-11.23-2.7-17-2.64-16-5.2-35.93-11.93-50.51a7,7,0,0,1-.47-1.35c-.34-.08-23.41-8.45-30.6-9,.2,5.31,3.41,26.18-14.74,25.34-15.16-.7-13.93-17.23-14.23-25.34-9.6.87-30.57,9.13-30.64,9.15-5.11,1.09-8.44,31.14-9,35-2.63,16.9-5.58,33.45-7.77,50.36l-.06.49c-1.67,13-3.21,26-4.73,39.06q-4.12,35.26-8,70.55c-.14,1.23-.27,2.45-.41,3.67l153.11.41Q701.09,728.65,696.67,695.53Z"/><path xmlns="http://www.w3.org/2000/svg" class="cls-2" d="M696.67,695.53c-2.14-16-4.14-32.23-6.47-48.4Q689,639,687.73,630.87c-.9-5.55-1.76-11.23-2.7-17-2.64-16-5.2-35.93-11.93-50.51a7,7,0,0,1-.47-1.35c-.14,0-3.91-1.39-8.84-3q.09.48.15,1c0,.35,0,1.33.19,1.63-.06-.08-.31-2.06-.06-.49.13.78.25,1.56.38,2.33q.45,2.63,1,5.23c.77,3.67,1.63,7.33,2.49,11,1.92,8.11,3.87,16.23,5.16,24.47,2.23,14.12,3.48,30.35-4.27,43.14-7.3,12-21.86,17.72-34.68,21.66-5.52,1.7-11.14,3.06-16.72,4.57-8.84,2.39-17.54,5.29-26.27,8.06-10.19,3.23-20.4,6.33-30.74,8.86q-3.93,33.63-7.64,67.28c-.14,1.23-.27,2.45-.41,3.67l153.11.41Q701.09,728.65,696.67,695.53Z"/><path xmlns="http://www.w3.org/2000/svg" class="cls-1" d="M582.42,562.2l.27-.06c-5.66,1.75-16.05,8.33-21.56,11.44-9.07,5.11-16.65,13.31-22.53,23.16a124.89,124.89,0,0,0-12.24,29.09A38.66,38.66,0,0,0,538,638.61c6.88,4.76,20.7,9.81,22.07,10.41,3.06-5.85,5.9-9.4,7.11-12.53,1.85-12.33,4.24-26.83,6.17-39.25C574,593.34,577.31,563.29,582.42,562.2Z"/><path xmlns="http://www.w3.org/2000/svg" class="cls-8" d="M601,679.34s81.7,4.81,103.55,6.69c11.93,1.19,5.67-5.69-8.27-35.59C683.45,626.85,727.91,626,727.91,626s17.57,49.33,21.15,61.89c5.35,18.78-10.88,24-14.64,24-70.91.56-132.13-18.3-132.13-18.3S590.47,681,601,679.34Z"/><path xmlns="http://www.w3.org/2000/svg" class="cls-9" d="M706.46,671.88a42.52,42.52,0,0,0,10.16-6.33c7-6,12-13.88,17-21.67-4.2-12-7.71-21.87-7.71-21.87s-44.46.84-31.66,24.43C699.72,658.16,704,666.33,706.46,671.88Z"/><path xmlns="http://www.w3.org/2000/svg" class="cls-2" d="M717.08,595.43c-5.87-10-13.46-18.3-22.53-23.48-6-3.46-22.26-10-21.92-9.89.11.45,9.76,35.84,12.4,51.86.94,5.72-.08,8.35.82,13.9.87,5.39,10.55,26.73,15.12,32.35,6.11-1.72,17-8.66,21.15-11.88a47.51,47.51,0,0,0,10.3-10.42C729.4,627.38,722.36,604.4,717.08,595.43Z"/><path xmlns="http://www.w3.org/2000/svg" class="cls-4" d="M715.64,643.5A73.56,73.56,0,0,0,730.7,632c-.89-2.94-1.91-6.24-3-9.68a115.49,115.49,0,0,1-35.57,21.75c1.35,2.9,2.78,5.8,4.15,8.38C703.35,650.67,709.34,647.27,715.64,643.5Z"/><path xmlns="http://www.w3.org/2000/svg" class="cls-10" d="M639,702.68H522.76a2.68,2.68,0,0,1-2.17-1.44l-34-71.49c-.38-.79,0-1.43.8-1.43H603.67a2.66,2.66,0,0,1,2.17,1.43l34,71.49C640.21,702,639.85,702.68,639,702.68Z"/><path xmlns="http://www.w3.org/2000/svg" class="cls-11" d="M574.07,667.63c2,4.26-1.58,7.71-8.06,7.71s-13.37-3.45-15.4-7.71,1.59-7.71,8.07-7.71S572.05,663.37,574.07,667.63Z"/><path xmlns="http://www.w3.org/2000/svg" class="cls-12" d="M521.28,702.68H698.84a1.2,1.2,0,0,1,1.2,1.2v2.23a1.2,1.2,0,0,1-1.2,1.2H524.24a3,3,0,0,1-3-3v-1.67A0,0,0,0,1,521.28,702.68Z"/><path xmlns="http://www.w3.org/2000/svg" class="cls-12" d="M698.84,702.68H640.35v4.63h58.49a1.2,1.2,0,0,0,1.2-1.2v-2.23A1.2,1.2,0,0,0,698.84,702.68Z"/><path xmlns="http://www.w3.org/2000/svg" class="cls-4" d="M626.56,577.86s18,10.26,20.18,11,6.49.13,7.08-4.52,4.51-27,4.51-27l-16.71-10.67S643,562.37,639.17,568,626.56,577.86,626.56,577.86Z"/><path xmlns="http://www.w3.org/2000/svg" class="cls-4" d="M629,577.94s-17.94,10.26-20.17,11-6.49.13-7.09-4.52-4.11-27.58-4.11-27.58l15.53-8.36s-.62,14,3.24,19.66S629,577.94,629,577.94Z"/><rect xmlns="http://www.w3.org/2000/svg" class="cls-13" x="142.14" y="707.42" width="726.7" height="14.33"/><rect xmlns="http://www.w3.org/2000/svg" class="cls-11" x="178" y="721.74" width="625.4" height="124.49"/><polygon xmlns="http://www.w3.org/2000/svg" class="cls-14" points="803.4 846.23 190.19 721.75 803.4 721.75 803.4 846.23"/><path xmlns="http://www.w3.org/2000/svg" class="cls-15" d="M200.06,846c-1.7-22.77-3.78-45.67-6.28-69.71-1-9.34-2-18.81-5.35-27.57-10.39-27-44.36-42.16-71.67-31.72C94.5,725.51,79.19,747.21,75,768.33c-5,25.26-7.23,51.31-7.71,77.67Z"/><path xmlns="http://www.w3.org/2000/svg" class="cls-15" d="M125,846c12.4-32.39,31-61.43,63.48-73.85a29.34,29.34,0,0,1,4.67-1.32c-.86-7.54-2-15.05-4.75-22.11-10.39-27-44.36-42.16-71.67-31.72C94.5,725.51,79.19,747.21,75,768.33c-5,25.26-7.23,51.31-7.71,77.67Z"/><path xmlns="http://www.w3.org/2000/svg" class="cls-9" d="M284.08,675.37a.63.63,0,0,0,0,.43.67.67,0,0,0,.37.24c3.48,1.15,6.61,1.11,10.24,1.61,1.4.2,3.22.62,4.61.92s2.52,1.64,3.78,2.07a67.33,67.33,0,0,0,12.27,3,15.85,15.85,0,0,0,6.79-.11c.84-.24,9.34-4.81,9.63-5a28.82,28.82,0,0,0,4.59-4,2.33,2.33,0,0,0,.07-.25c6.07,15.61,9.21,11.87,9.21,11.87s-4.39-22.18-5.38-22.69-6.21-2.71-6.21-2.71l-12.2-3a7,7,0,0,0-1.42-.47c-.29,0-.59,0-.89-.08l-.16,0v0c-4.42-.36-9.31,1.84-13.62,2.2a46.61,46.61,0,0,0-18.31,5.82c-1.46.87-1.47,2.55-1.86,4.09C285.09,671.33,284.59,673.35,284.08,675.37ZM334.51,669v0h0Z"/><path xmlns="http://www.w3.org/2000/svg" class="cls-2" d="M293.66,661.73c-26,7.73-70.23,17.47-88.28-2.36-7.94-8.72-19.85-33.14-28.71-57-1.13-3-3.17-9.37-6-17.14-2.08-1.15-4.16-2.3-6.28-3.37-5.55-2.8-12.5-6.16-18.92-4.88-9.4,1.88-13.11,11.26-14.31,20.35,11.5,26.47,35,78.16,45.84,89.22a50.92,50.92,0,0,0,12,9.13c9.37,5.11,20.11,6.88,30.69,6.43,11-.46,21.79-3.11,32.13-6.71,9.85-3.43,19.29-5.87,28.53-10.67,3.79-2,10.09-4,13.82-6.05C294.79,670.94,295.27,666.21,293.66,661.73Z"/><path xmlns="http://www.w3.org/2000/svg" class="cls-4" d="M104.06,698.22c.37-9.56-.81-19.1-2-28.59-1.78-14.35-3.68-29.1-10.71-41.72-4.94-8.87-13.6-51.09,2.27-72.82,6-8.23,44.22-4.29,65.26,2.75,19,6.37,15.11,10.29,27,39.68,4.39,6.49,9.69,15,12.69,22.4,4.71,11.58-8.63,35.72-13.56,44,.59,18.19,2.81,33.92.68,58.31-.43,4.86,12.16,57.32,9.78,61.57-13.89,24.8-73.06,6-78.17-15-13.71,18.81-45.64,8.28-45.54,7.19C74.84,743.78,103.51,712.35,104.06,698.22Z"/><path xmlns="http://www.w3.org/2000/svg" class="cls-8" d="M167.71,582.34c1.88-1.71,1.2-5.44,1.13-7.62l-.36-11.47c-.09-3.09-7.2-4.61-9.58-5.41-15.51-5.19-40.32-8.69-54.71-6.87,3.72,2.22,7,5.47,10.4,7.86.13.09.22.19.33.28a3.69,3.69,0,0,1,1.11.52c4.4,3,7.81,6.73,12.74,8.87,6.35,2.76,12.78,5.39,19,8.37a86.37,86.37,0,0,0,9.86,3.78c2.31.77,6.8,3.28,9.18,2.25A2.77,2.77,0,0,0,167.71,582.34Z"/><path xmlns="http://www.w3.org/2000/svg" class="cls-8" d="M280.18,691.31a.47.47,0,0,0,.47.64c3.73.75,7,.3,10.76.35,1.47,0,3.4.22,4.87.36s2.81,1.36,4.16,1.65a71.46,71.46,0,0,0,13,1.48,16.51,16.51,0,0,0,7-1c.83-.36,9-6.16,9.29-6.34A29.69,29.69,0,0,0,334,683.7a2.6,2.6,0,0,0,0-.26c8.27,15.31,11,11,11,11s-7.38-22.3-8.46-22.69-6.76-2-6.76-2l-12.95-1.47a7.8,7.8,0,0,0-1.53-.3c-.3,0-.62,0-.93,0l-.17,0v0c-4.6.2-9.36,3.09-13.75,4a48.46,48.46,0,0,0-18.14,8.35c-1.39,1.09-1.19,2.83-1.39,4.46Zm51.17-13.06,0,0h0Z"/><path xmlns="http://www.w3.org/2000/svg" class="cls-1" d="M103.45,559.5c24-2.52,50.6,58.86,56.59,70.37,12.21,23.45,27.64,47.1,36.94,55.07,21.16,18.12,65.52,2.39,91.32-8.92,2.23,4.42,2.35,9.35,2.74,17.41-3.57,2.64-9.81,5.49-13.46,8-8.92,6.14-18.33,9.87-28,14.67-10.2,5-21,9.17-32.27,11-10.85,1.82-22.15,1.38-32.47-2.68a53.31,53.31,0,0,1-13.56-7.87c-16.17-12.83-62.31-91.79-67.15-100.63C87,584.72,87.8,561.15,103.45,559.5Z"/><path xmlns="http://www.w3.org/2000/svg" class="cls-8" d="M111,486.48c1.27-4.34,3.74-8.21,6.28-11.94s5.07-7.23,8.51-9.94c4.19-3.31,9.36-5.12,14.51-6.5,10.31-2.75,21.82-3.91,31.19,1.19a13.73,13.73,0,0,1,5.51,4.92,17.92,17.92,0,0,1,1.73,5.22c2.41,11,4.11,22.29,3.44,33.55s-3.82,22.57-10.4,31.73c-1.87,2.59-4.08,5.06-7,6.35a19.39,19.39,0,0,1-7.45,1.27c-.83,0-1.65-.05-2.47-.06-.8,4.78-1.5,9.71-2.28,15,4.83,1.25,9.77,2.75,10.22,3.73,1.05,2.29,2.21,13.33.13,16.5-10.38-4.83-26.76-11.32-37.12-14.71-2.21-.72-2.32-2.89-2.65-5.19-.13-.94,0,0,4.33-1-.21-4.74-.93-13-1.52-20.8-3.95-1.71-7.82-3.91-10-6.8a24.36,24.36,0,0,1-3.88-9.26,94.72,94.72,0,0,1-2.31-21.63A40.54,40.54,0,0,1,111,486.48Z"/><path xmlns="http://www.w3.org/2000/svg" class="cls-15" d="M177.79,452.24c-11.6-7.87-25-13.57-39-14.35s-28.61,3.8-38.32,13.92c-9.2,9.59-13.15,24.4-8.68,36.83a28.08,28.08,0,0,0-5.26-.28,29,29,0,0,0-13.29,3.42c-10.09,5.68-12.15,21-6.54,31.18,0,.1,0,.2-.07.3-4.42,1.75-7.88,5.67-9,12.45-1.13,7.17,2.47,15.12,9.06,18.16a16.84,16.84,0,0,0,13.74-.24c1.64,7,8.37,12.06,15.41,13.88a31,31,0,0,0,35.62-43.64c-2.31-4.72-5.78-8.78-8.31-13.39-6-10.87-2.43-17,5.48-20.15a1.29,1.29,0,0,1,.16.09c1.14.91,7.27,12.09,6.54,12.76,1.64-1.5,1.74-4,2.18-6.16.82-4,3-7.36,5.77-10.43,7.13-2.08,12.48-5.16,20.15-11S179.2,461.73,177.79,452.24Z"/><path xmlns="http://www.w3.org/2000/svg" class="cls-16" d="M416.66,705.73H362.35v-4.32h54.31c.93,0,23.17-.65,28.73-38,5.86-39.44,30.42-195.75,30.67-197.32l4.26.67c-.25,1.57-24.8,157.86-30.67,197.28C443.52,705.25,417.75,705.73,416.66,705.73Z"/><rect xmlns="http://www.w3.org/2000/svg" class="cls-16" x="300.7" y="701.41" width="53.85" height="4.31"/><path xmlns="http://www.w3.org/2000/svg" class="cls-2" d="M448.23,648c8.28-54.27,28.11-180.47,28.33-181.89l-4.26-.67C472.08,466.82,452.09,594,443.87,648Z"/><path xmlns="http://www.w3.org/2000/svg" class="cls-6" d="M463.76,630.67c6.84-44,14.3-91.87,21.07-135.15a4.1,4.1,0,0,0-3.46-4.7c-1.6-.22-3.2-.41-4.81-.56C469.41,536,461.44,587,454.22,633.55c1.46.24,2.92.49,4.38.76A4.4,4.4,0,0,0,463.76,630.67Z"/><rect xmlns="http://www.w3.org/2000/svg" class="cls-2" x="327.89" y="520" width="99.04" height="74.27" rx="25" ry="25"/><path xmlns="http://www.w3.org/2000/svg" class="cls-14" d="M369.9,537.12l24.22,16.73a2.83,2.83,0,0,1,.12,4.57L370,577.07a2.83,2.83,0,0,1-4.55-2.24V539.44A2.83,2.83,0,0,1,369.9,537.12Z"/><path xmlns="http://www.w3.org/2000/svg" class="cls-5" d="M245.82,337.45c-8.26-29-4.07-62.18,10.86-86,5.5-8.79,12.49-16.45,21-20.73,7.43-3.76,15.67-4.78,23.77-5.72q64.39-7.39,129.17-10.73c8.75-.45,18.05-.7,25.79,4.59,10,6.83,14.68,21,17.81,34.17,6.09,25.65,8.74,55.21-4,76.3-14.18,23.52-41.65,27.71-66.1,30l-76.7,7.13c-10.48,1-22.89.1-26.24,12.25-3.62,13.17,11.69,24.82-15.61,13C268.08,384.14,251.16,356.17,245.82,337.45Z"/><path xmlns="http://www.w3.org/2000/svg" class="cls-4" d="M558,349.36c0-13.76-.12-27.79-4.42-40.87S540,283.22,526.9,279c-14-4.47-28.49.24-42,4.13-12.28,3.54-24.45,5.5-37.1,7.08-14.09,1.76-29,4.7-40.42,13.65-20.52,16-22.34,44.35-11.32,66.46a38,38,0,0,0,8.51,11.83c7.06,6.19,16.37,5.23,25.14,5.82q16.63,1.11,33.29,1.64,30.78,1,61.57,0c3,6.08,8.27,12.92,16.73,14.35,13,2.19.2-3.56-1.19-16.6C554.6,381.92,558.05,366.89,558,349.36Z"/><path xmlns="http://www.w3.org/2000/svg" class="cls-4" d="M259.85,437.8A13.61,13.61,0,0,0,249.66,459l-17.54,12.88a13.62,13.62,0,1,0,2.11,17.31l17.24,7.12a13.38,13.38,0,0,0-.26,3.91,13.68,13.68,0,1,0,2.16-8.49l-17.25-7.11a13.43,13.43,0,0,0,.26-3.92,13.69,13.69,0,0,0-1.32-4.83l18.12-13.3a13.63,13.63,0,1,0,6.67-24.78Z"/><ellipse xmlns="http://www.w3.org/2000/svg" class="cls-6" cx="705.29" cy="240.85" rx="35.37" ry="36.23"/><path xmlns="http://www.w3.org/2000/svg" class="cls-2" d="M750.59,207.81c0-8.54-5.81-14.4-14.32-14.4h-62a15,15,0,0,0-3,.21A13.61,13.61,0,0,0,660,207.33c0,13.85.09,27.69.11,41.54,0,6.84-.12,13.69-.12,20.53,0,8.69,5.75,14.47,14.42,14.51,6.37,0,12.73,0,19.1,0a2.52,2.52,0,0,1,2.72,1.7c2.53,5.62,5.18,11.19,7.79,16.78.29.61.62,1.2,1.2,2.32.66-1.13,1.1-1.79,1.43-2.49,2.59-5.53,5.2-11.05,7.71-16.61a2.5,2.5,0,0,1,2.71-1.7c6.56.07,13.12.1,19.67,0,8.09-.1,13.83-6,13.83-14.11,0-8.68,0-17.36,0-26Q750.55,225.77,750.59,207.81Zm-45.3,58.44a28.34,28.34,0,1,1,28.35-28.34A28.34,28.34,0,0,1,705.29,266.25Z"/><path xmlns="http://www.w3.org/2000/svg" class="cls-2" d="M693.14,235.51a4.9,4.9,0,1,0-4.89-4.89A4.89,4.89,0,0,0,693.14,235.51Z"/><path xmlns="http://www.w3.org/2000/svg" class="cls-2" d="M718.05,225.72a4.9,4.9,0,1,0,4.9,4.9A4.9,4.9,0,0,0,718.05,225.72Z"/><path xmlns="http://www.w3.org/2000/svg" class="cls-2" d="M720.67,244.21a1.23,1.23,0,0,0-1.7.46,16.11,16.11,0,0,1-28,0,1.25,1.25,0,0,0-2.17,1.24,18.61,18.61,0,0,0,32.34,0A1.25,1.25,0,0,0,720.67,244.21Z"/><path xmlns="http://www.w3.org/2000/svg" class="cls-6" d="M804.38,413.86c3.88-3.06,5.63-7.24,4-10.65a8.2,8.2,0,0,0-5.51-4.17c3.67-3.32,5.09-8.05,3.16-12.13s-6.74-6.4-11.94-6.15c.52-2,.37-4.63-1.77-7.8-10.5-10.06-30.79,4.24-30.79,4.24,2.38-10.41-6.62-34.14-16.26-30.09s-2.33,15.7-2.33,15.7l-11.14,30.48a3.18,3.18,0,0,0,.06,2.31l22.26,52.07a1.84,1.84,0,0,0,2.4,1c8.22-3.4,33.56-10.68,44.43-16.35,3.69-1.93,9.4-7.62,6.75-14.39A8.8,8.8,0,0,0,804.38,413.86Z"/><path xmlns="http://www.w3.org/2000/svg" class="cls-4" d="M752.86,454.84l-16.2,6.81a4.59,4.59,0,0,1-6-2.44L705.3,398l21.88-4.3c3.42-.16,5,.13,6,2.44l22.15,52.72A4.58,4.58,0,0,1,752.86,454.84Z"/><circle xmlns="http://www.w3.org/2000/svg" class="cls-2" cx="646.07" cy="387.19" r="31.93" transform="translate(178.22 977.47) rotate(-82.53)"/><path xmlns="http://www.w3.org/2000/svg" class="cls-6" d="M651.94,374.91s-5.87,0-7,7.78c-.81-7.8-7-7.78-7-7.78s-9.8-.05-9.8,9.74S645,401.89,645,401.89v0s16.75-7.45,16.75-17.24C661.74,374,651.94,374.91,651.94,374.91Z"/><path xmlns="http://www.w3.org/2000/svg" class="cls-9" d="M810.59,733.14s-22.05-.51-22.08,18.92,14.18,32,14.18,32Z"/><path xmlns="http://www.w3.org/2000/svg" class="cls-9" d="M823.79,570s-15.66,10.78-21.17,84S797.94,787.5,799,787.73s22.31,3.95,22.31,3.95l16.78-115.11Z"/><path xmlns="http://www.w3.org/2000/svg" class="cls-15" d="M846.63,554.22S811,563,804,613.11l31,1Z"/><path xmlns="http://www.w3.org/2000/svg" class="cls-4" d="M845.68,846l23.05-75.15L868.19,846h71c4.89-32.89,8.53-62.62,9-80.86,1.65-62-24.74-84.79-24.74-84.79H832c-24.37,18.85-41.2,124.23-41.2,124.23l-8,41.42Z"/><path xmlns="http://www.w3.org/2000/svg" class="cls-17" d="M909.43,683.45s35.07,10,11.07,162"/><line xmlns="http://www.w3.org/2000/svg" class="cls-17" x1="868.73" y1="770.85" x2="868.73" y2="680.83"/><path xmlns="http://www.w3.org/2000/svg" class="cls-17" d="M852.49,680.83v52.6a16.45,16.45,0,0,0,16.44,16.45h.13"/><path xmlns="http://www.w3.org/2000/svg" class="cls-15" d="M884,550.05s36.91,7.45,47.22,28.42l-3.77,100.88L831.72,681l-3.93-112s14.07-14.42,34.61-20.23Z"/><path xmlns="http://www.w3.org/2000/svg" class="cls-8" d="M913.44,578.84C910.27,555.6,967.79,627.1,931,699c-12,19-44-17.12-44-17.12l24.19-17.34Z"/><path xmlns="http://www.w3.org/2000/svg" class="cls-15" d="M872.26,551.05s70.74-1,73.33,64l-45.82,2.87Z"/><path xmlns="http://www.w3.org/2000/svg" class="cls-8" d="M915.51,657.44l-89.46-10.76-5.86,17.44,84.56,35.23a21.8,21.8,0,0,0,29.79-20.75h0A21.8,21.8,0,0,0,915.51,657.44Z"/><path xmlns="http://www.w3.org/2000/svg" class="cls-8" d="M830.85,648l-8.48-11.32a18.51,18.51,0,0,0-10.78-7l-11.43-2.58,11.6,25.23Z"/><rect xmlns="http://www.w3.org/2000/svg" class="cls-11" x="781.66" y="607.52" width="27.39" height="48.92" rx="1.52" ry="1.52" transform="translate(1752.88 971.29) rotate(161.04)"/><path xmlns="http://www.w3.org/2000/svg" class="cls-8" d="M830.85,648l-18.48-8.62-25.6,2.07a2,2,0,0,0-2.28,2c.51,6.11,3.36,22.27,19.21,24.8,19.61,3.13,27.77-2.9,27.77-2.9Z"/><path xmlns="http://www.w3.org/2000/svg" class="cls-9" d="M839.61,498.11a11.89,11.89,0,1,1-11.88-11.88A11.88,11.88,0,0,1,839.61,498.11Z"/><path xmlns="http://www.w3.org/2000/svg" class="cls-2" d="M821.77,484.53c3.78,25.33,20.75,46.36,46.36,46.36a46.36,46.36,0,0,0,0-92.72C842.52,438.17,817.59,456.64,821.77,484.53Z"/><path xmlns="http://www.w3.org/2000/svg" class="cls-8" d="M885.26,549.24l-.19-47.53-34.07.16.18,47.52a17,17,0,0,0,17.11,17h0A17,17,0,0,0,885.26,549.24Z"/><path xmlns="http://www.w3.org/2000/svg" class="cls-9" d="M886.29,504.25s-3.58,40.71-35.07,40.06l-.06-20.39Z"/><path xmlns="http://www.w3.org/2000/svg" class="cls-8" d="M879.49,550.77S880.66,548.9,896,554c0,0-3.84,11.68-21,14.86-7.07,1.31-13.88-.89-20.52-3.67-4.42-1.86-10.61-7.75-11.73-9.44,0,0,9.68-5.28,15.61-6S879.49,550.77,879.49,550.77Z"/><path xmlns="http://www.w3.org/2000/svg" class="cls-8" d="M857.17,537.31h0c-18.25,0-33.19-11-33.19-29.26V476.66c0-13.47,14.71-27.66,22.65-27.66l29.28,8.21a14.49,14.49,0,0,1,14.44,14.44v31.27C890.35,521.17,872.56,537.31,857.17,537.31Z"/><path xmlns="http://www.w3.org/2000/svg" class="cls-2" d="M878.87,455.55s-12.12,32.73,7.42,42.56L905,468.3Z"/><path xmlns="http://www.w3.org/2000/svg" class="cls-8" d="M905,498.11a11.89,11.89,0,1,1-11.88-11.88A11.88,11.88,0,0,1,905,498.11Z"/><path xmlns="http://www.w3.org/2000/svg" class="cls-2" d="M890.15,429.09c-6.76,13.25-3.62,28.39,7,33.83s24.76-.89,31.53-14.14,3.62-28.39-7-33.83S896.92,415.84,890.15,429.09Z"/><path xmlns="http://www.w3.org/2000/svg" class="cls-2" d="M890.06,461s-47,26.49-76.3,5.25a12.84,12.84,0,0,1-5.42-8.45c-.61-4.3,1.22-9.35,13.43-8.82,20.93.9,35.28,5,45,0S890.06,461,890.06,461Z"/><path xmlns="http://www.w3.org/2000/svg" class="cls-2" d="M857.17,450.41S838,434.94,827.72,442s12.81,15.2,12.81,15.2Z"/></svg>