<svg xmlns="http://www.w3.org/2000/svg" xmlns:xlink="http://www.w3.org/1999/xlink" version="1.1" x="0px" y="0px" viewBox="0 0 750 500" style="enable-background:new 0 0 750 500;" xml:space="preserve">
<style xmlns="http://www.w3.org/2000/svg" type="text/css">
	.st0{fill:#2895F4;}
	.st1{opacity:0.5;fill:none;stroke:#0E538C;stroke-miterlimit:10;}
	.st2{opacity:0.5;fill:#0E538C;}
	.st3{fill:#D2D2D2;}
	.st4{fill:none;stroke:#B7B7B7;stroke-miterlimit:10;}
	.st5{fill:#E9BEAE;}
	.st6{fill:#F9CBBA;}
	.st7{fill:#0F528C;}
	.st8{fill:none;stroke:#0A4971;stroke-miterlimit:10;}
	.st9{fill:#FFBE58;}
	.st10{fill:none;stroke:#EAA542;stroke-miterlimit:10;}
	.st11{fill:#0E538E;}
	.st12{fill:#EAA542;}
	.st13{fill:#D38D2F;}
	.st14{fill:none;stroke:#D38D2F;stroke-miterlimit:10;}
	.st15{fill:#B76B2F;}
	.st16{fill:#1E0F00;}
	.st17{opacity:0.2;}
	.st18{opacity:0.2;fill:none;stroke:#1E0F00;stroke-miterlimit:10;}
	.st19{fill:#CC6947;}
	.st20{fill:none;stroke:#B26F1F;stroke-miterlimit:10;}
	.st21{fill:none;stroke:#D6903C;stroke-miterlimit:10;}
</style>
<g xmlns="http://www.w3.org/2000/svg" id="BACKGROUND">
</g>
<g xmlns="http://www.w3.org/2000/svg" id="OBJECTS">
	<path class="st0" d="M380.8,469.7c-16.5,2.5-24.6,3.1-41.8,1.3c-1.2-6.4-7.1-39.9-7.1-39.9s-6.8,32.6-7.6,40.4   c-14.7,5.1-40.9-0.4-40.9-0.4s-1.7-31.1-2.4-42.5c-2.5-42.4,16.6-59.3,16.6-59.3s15.2-2.4,35.6-2.2c20.4,0.2,33.8,1.8,33.8,1.8   s16.9,23.6,16,45.8C382.2,436.9,383,453.9,380.8,469.7z"/>
	<path class="st1" d="M306.1,431.1c0,0,13.8,7.1,26.2-1.3c0,0,13.8,9.3,28,0"/>
	<path class="st1" d="M334.1,390.2c0,0,2.2,22.2-1.3,36.9"/>
	<path class="st2" d="M346.1,389.8l1.8,21.8c0,0,12,7.6,18.2,5.8c6.2-1.8,13.8-12.9,13.8-12.9l-6.7-20c0,0-5.8,2.7-13.3,4   C353.7,389.5,346.1,389.8,346.1,389.8z"/>
	<path class="st2" d="M320.8,390.7l-1.8,21.8c0,0-12,7.6-18.2,5.8c-6.2-1.8-13.8-12.9-13.8-12.9l6.7-20c0,0,5.8,2.7,13.3,4   C313.2,390.4,320.8,390.7,320.8,390.7z"/>
	<path class="st3" d="M289.9,370.5c7.7,2.1,15.5,4,23.5,4.8c10.2,1.1,20.3,0.7,30.5-0.1c7.9-0.7,16.1-1.1,23.7-3.4   c0.9-0.3,1.7-0.6,2.6-0.9c-0.9-4.9-1.7-9.7-2.1-13.6c-0.4-3.6,1.6-20.7,2.9-31.6c1.3-10.9,1.3-44-3.9-47.5   c-5.2-3.5-17-4.7-20.1-5.2c-12.4-2.1-30.5-2-37.4-0.9c-6.5,1-16.1,5.3-18.7,11.3c-3.4,7.8-3,22.6-0.9,33.3   c2.2,10.7,2.8,31.5,2.7,36.4C292.5,356.2,291.3,363,289.9,370.5z"/>
	<path class="st4" d="M317.5,331c0,0,22.2,31.3,34.6,32.7"/>
	<path class="st5" d="M396.2,336.7c23.7,5.9,49.1-0.3,67.5-4.9c-1,17.3,6.3,29.9,5.5,32.2c-0.7,2.2-22.6,13-37.5,13.9   c-14.9,0.9-36.1-6.4-37.3-8.7C393.9,367.8,396.9,351.5,396.2,336.7z"/>
	<polygon class="st6" points="410.6,242.6 412,261.3 439,256.8 430.8,231.4  "/>
	<path class="st7" d="M455.4,214.3c-4-12.8,3.4-39.4-26.7-44.9c-24.1-4.4-36.7,16.4-36.7,16.4s-12,4.5-14.3,13.1   c-5.8,22.3,5.4,24.4,2.6,34.1c-2.8,9.7,2.3,19.5,10.9,21c8.6,1.5,15.4-3.4,15.4-3.4s6,2,13.2,0.9c3.7-0.5,7.7-1.9,11.4-4.7   c6.8,2.1,16.9,1.3,23.8-5.1C464.6,232.8,459.3,227,455.4,214.3z"/>
	<g>
		<path class="st8" d="M378.9,200.8c0,0-4.9,12-3.4,20.6c1.1,6.4,6.8,7.5,3.4,16.1c-2.8,7.1,1.1,12,4.1,13.1"/>
		<path class="st8" d="M437.2,179.2c0,0,5.6,4.9,6.9,11.4c1.3,6.6-1.5,15.2,1.1,19.7c2.6,4.5,5.1,11.3,4.9,18    c-0.2,6.8-5.8,14.1-5.8,14.1"/>
		<path class="st8" d="M449.8,210.3c0,0,3.8,7.1,4.5,14.1c0.8,6.9-3.4,15.2-4.9,15.9"/>
		<path class="st8" d="M385.6,194.2c0,0-7.9,8.6-5.1,15.2c2.8,6.6,6.9,14.1,5.6,17.8c-1.3,3.8-4.3,10.9-0.7,13.7"/>
		<path class="st8" d="M387.9,214.8c0,0,3.8,6.8,3,10.3c-0.8,3.6-3.6,9.4-0.6,13.1c3,3.8,4.7,7.7,4.7,7.7"/>
		<path class="st8" d="M393.3,204.8c0,0-1.7,7.8,1.5,12.5c3.3,4.8,4,9.8,3,14.3c-1,4.5,2.5,9.5,2.5,9.5"/>
	</g>
	<g>
		<g>
			<path class="st7" d="M390.7,188.6c0,0-18.2-0.8-18.3-14.1c-0.1-13.3,14.1-14.4,19.6-7.9c5,5.9,3.9,16.8,3.9,16.8L390.7,188.6z"/>
		</g>
		<g>
			<path class="st7" d="M389,188c-0.2,0.1-0.4,0-0.5,0c-6.4-3.1-13.1,2.9-13.1,2.9c-0.3,0.3-0.8,0.3-1.1,0c-0.3-0.3-0.3-0.8,0-1.1     c0.3-0.3,7.5-6.7,14.8-3.2c0.4,0.2,0.5,0.6,0.3,1C389.3,187.8,389.2,187.9,389,188z"/>
		</g>
		<g>
			<path class="st7" d="M377,196.8c-0.2,0-0.4,0-0.5,0c-0.4-0.2-0.5-0.6-0.4-1c0.2-0.4,4.3-9.2,12.4-8.7c0.4,0,0.7,0.4,0.7,0.8     c0,0.4-0.4,0.7-0.8,0.7c-7.1-0.4-10.9,7.8-10.9,7.9C377.4,196.6,377.2,196.8,377,196.8z"/>
		</g>
	</g>
	<path class="st8" d="M445.6,182c0,0,9.4,12.8,9.8,21.4c0.4,8.6,1.5,10.5,5.6,16.1c4.1,5.6,5.3,10.9,1.1,17.3"/>
	<g>
		<path class="st8" d="M375.5,172.6c0,0-0.6,6.6,4.3,10.1c4.9,3.6,8.4,2.4,8.4,2.4"/>
		<path class="st8" d="M380.3,174.4c0,0-0.1,2.8,3.4,5.9c3.5,3.1,6.6,2.6,6.6,2.6"/>
	</g>
	<g>
		<path class="st6" d="M500.3,195c-3.7,0.5-7,1.5-7,1.5s-0.3,14.3-1,23.8c-0.8,9.5,1.8,24.5,1.8,24.5s-16.3,6.8-24.5,9.5    c-6.3,2.1-13.8,2-18.5,8.9c-4.7,6.9,0.5,32.4,12,30.6c11.5-1.7,18.5-6.8,31-15c13.9-9.1,18.8-15.1,22.7-21.6    c3.9-6.5,2.1-26.4-0.4-37.2c-1.6-6.7-7.8-25.8-7.8-25.8S504,194.5,500.3,195z"/>
		<path class="st6" d="M494.9,199.9c4,1.4,12-2.1,13.9-3.6c2-1.6,2.6-4.8,3.3-7.1c0.7-2.3,0-9.6-0.1-12.9c-0.1-3.4-2-12.1-3.5-17.2    c-1.5-5.5-6-4.8-5.3-0.9c0.6,3.5,1,10.2,1,10.2s-2.6-3.6-4.9-3.6c-2.3,0-3.6,1.7-3.6,1.7s-0.8-2.3-3.4-1.8    c-2.6,0.5-2.5,3.6-2.5,3.6s-5-13.8-7.8-16.3c-2.8-2.5-5.4-0.5-3.8,3.3c1.6,3.8,2.6,6.9,3.9,11c1.9,6.1,2.6,12.2,2.6,12.2    s-4.9-4.7-6.9-5.1c-2-0.4-6-0.4-6.2,2c-0.3,2.4,6.7,6.8,7.6,7.9c1.7,1.9,3.2,4.1,6.5,9.8C487.2,195.4,490.9,198.5,494.9,199.9z"/>
	</g>
	<g>
		<path class="st0" d="M462.3,313c0-5.9,2.5-19.1,3.1-25.4c0.5-6.5,1-13.4-0.3-19.8c-1.3-6.6-4.9-9.6-9.1-11.1    c-4.2-1.5-25.5-1.8-31.9-0.6c-9.3,1.7-28.6,3.1-32.3,10.6c-3.7,7.4,0,35,1.2,50c0.8,10.3-2.4,33.6-2.4,33.6s19.3,7.9,45.3,3.4    c26-4.5,33.5-12,33.5-12S462.3,318.9,462.3,313z"/>
		<path class="st1" d="M452,290.4c0,0-10.1,9-14.6,19.5c-4.5,10.5-9.8,24.8-9.8,24.8"/>
	</g>
	<path class="st9" d="M434.6,476c-28,0.8-48.1-8.1-48.1-8.1s-0.1-37.3,0.6-55.6c0.5-12.6,6-38.6,6-38.6s0-3.3,0.2-4.5   c0.3-1.7,0.6-3.4,0.6-3.4s12.8,1.9,39.1-0.8c26.3-2.6,34.6-9.5,34.6-9.5s1.1,0.9,2.4,2.6c1.3,1.7,2.1,3.9,2.1,3.9s6.8,4.8,11.3,16   c4.6,11.1,5.4,29.3,5.4,40.8c0,11.5-0.8,47.3-0.8,47.3S464.8,475.2,434.6,476z"/>
	<g>
		<path class="st10" d="M393,373.6c0,0,25.3,3.7,44.2,0.7c19-3,34.4-12.7,34.4-12.7"/>
		<path class="st10" d="M433.4,468.1c0,0,8.7-23.9,17.2-31.9c8.6-8,11.8-30.4,11.8-30.4"/>
	</g>
	<g>
		<path class="st6" d="M288.2,248.7c-5.2-7.8-18.6-21.4-18.6-21.4s0.3-15.1-0.4-27.3c-0.7-12.3-2-25.6-4.4-32.5    c3.3-1.5,6.3-5.3,7.7-7.2c1.9-2.5,3.2-7.1,3.8-11.1c0.6-4-2.8-5.2-2.5-6.9c0.2-1.7,5.7-14.7,7.1-18.5c1.4-3.8-2.6-6.1-5.1-4.1    c-2.4,2-8.6,17.2-8.6,17.2s1.2-14.6,0.6-18c-0.6-3.4-3.1-4.5-5.4-2.6c-2.3,1.9-2.6,20.9-2.6,20.9s-2.2-2.1-5.1-0.5    c-3,1.6-2.9,3.5-2.9,3.5s-1.4-1.3-4,2.4c-2.6,3.7-0.6,19.2,2.6,22.4c0.6,0.6,1.2,1,1.8,1.4c-1,1.3-2,3-2.7,5.1    c-2.2,6.1-5.2,16.8-7.3,28.2c-2.3,12.2-1.7,28.7-0.4,36.5c1.3,7.8,17.4,33.3,27,43.3c9.2,9.6,22.9,13.8,29.4,6.5    C307.4,275.3,293.4,256.5,288.2,248.7z"/>
		<path class="st11" d="M289.5,315.3c0,0,4-14.3,7.2-22.2c3.9-9.8,14.4-20.9,14.4-20.9s-2.3-4-7.2-10.4    c-3.2-4.2-12.6-15.1-14.8-17.2c-5-4.8-10.9,3-16.1,14.8c-4.5,10.2-5,29.8-5,29.8s3.8,8.4,10.3,15.7    C281.9,309.2,289.5,315.3,289.5,315.3z"/>
	</g>
	<path class="st12" d="M236.7,481c-15.2,0.4-32.7-1.1-32.7-1.1s-16.3,0.7-29.4,0c-13.1-0.7-24.8-5.2-24.8-5.2s0-18.3-0.7-26.1   c-0.7-7.8-3.9-17.6-3.9-32c0-14.4,3.3-28.3,5.7-35c2.4-6.7,105.2-8.4,108.6,2.9c0.6,2,3,14.6,3.9,26.2c0.7,9.7,0,18.9,0,18.9   l5.2,41.8C268.6,471.4,252.9,480.5,236.7,481z"/>
	<path class="st13" d="M215.5,410.6l2.3,29c0,0,15.5,10.1,23.5,7.7c8-2.4,16.8-14.6,16.8-14.6l-3.3-27.9c0,0-11.8,2.3-21.5,4   C225.3,410.3,215.5,410.6,215.5,410.6z"/>
	<path class="st13" d="M152.1,411.3l2.8,29.1c0,0,11.9,12.5,20.1,11.5c8.2-1,17.8-11.7,17.8-11.7l-1.1-28.2c0,0-11.9,0.3-21.8,0.5   C161.9,412.6,152.1,411.3,152.1,411.3z"/>
	<path class="st14" d="M198.7,410.6c0,0-0.7,22.2,5.2,39.2c4.1,12,2.6,23.5,3.3,29.4"/>
	<path class="st14" d="M181.1,464.8c14.4,0,20.4-10.4,25.5-9.1c5.2,1.3,16.3,9.8,32,6.5"/>
	<path class="st15" d="M183.9,226.2l3.2-23.7l31.9,1.8l5.1,25.6c0,0-5.4,17.9-24.7,13.7C180.2,239.6,182.9,226.3,183.9,226.2z"/>
	<path class="st15" d="M237,177.5c-1-3.1-8.3-3.9-8.3-3.9l-4.5,20.2c0,0,5.7-0.7,8.4-3.6C235.2,187.4,238.2,181.4,237,177.5z"/>
	<path class="st15" d="M174.5,174.7c0,0-7.7-3.6-9.6,1.2c-1.7,4.3-0.2,9.1,2.9,12.4c2.4,2.5,9.7,4.6,9.7,4.6L174.5,174.7z"/>
	<path class="st16" d="M236.9,152.8c-1.2-0.4-4.2-1.4-4.2-1.4s6.1-5.4,6.8-7.7c0.8-2.3-1-5.8-10-6.4c-6.7-0.4-14.3,0.3-14.3,0.3   s5.9-5,5.1-8.4c-0.8-3.3-4.6-2-11.7,0.4c-9.4,3.2-18,4.4-18,4.4s-14.3,2.5-17.4,8.4c-3.1,5.9-1.1,11.2-1.1,11.2s-5,5.5-4.2,12.1   c0.8,6.6,1.2,12.5,4.1,20c2.9,7.4,5.9,12.2,8.6,14.8c2.6,2.6,5.7,11.8,5.7,11.8s7.4,0.7,17,0.7c9.6,0,16.1-4.4,16.1-4.4   s3-8.5,4.3-10.8c1.3-2.3,5.5-12,6.7-16c1.2-4.1,2.1-12.1,3.3-13.9c1.2-1.7,3-3.2,4.4-4.4c1.4-1.2,3.8-3.3,3.7-5.8   C241.8,154.6,239.2,153.6,236.9,152.8z"/>
	<g>
		<path class="st16" d="M179.7,152.7c0,0-4.5-10.8,7.4-11.8c15.7-1.3,25.7-3.9,25.7-3.9"/>
		<path class="st16" d="M183.2,154c0,0,1.3-7,13.1-4.8c11.8,2.2,31.3,2.2,31.3,2.2"/>
		<path class="st16" d="M188,155.3c0,0,6.1,2.2,17.8,4.8c11.8,2.6,19.2-0.4,19.2-0.4"/>
		<path class="st16" d="M179.3,158.3c0,0-7.4,5.2-4.8,16.3c2.6,11.1,7.8,18.1,7.8,18.1"/>
		<path class="st16" d="M182.8,161c0,0-5.2,9.1,0.4,18.3"/>
	</g>
	<path class="st9" d="M222.8,223.2c0,0,37.9,4.1,43.1,17.9c5.2,13.7,0.7,40.7-2,49.4c-2.7,8.7-4.3,40.1-4,55.2   c0.3,11.7,5.1,48.9,4.5,57.2c-0.5,8.3-1.8,17.5-16.9,18.8c-15,1.3-35.3-4.6-41.1-7.8c-5.9-3.3-18.3-5.7-26.8-7.2   c-5.5-0.9-10.1,0.3-20.6-0.3c-10.4-0.7-14.7-2.7-15.7-3.9c-1.5-1.9-1-62.9-1.3-74c-0.3-11.1-8.8-56.2-7-72.9   c1-9.2,3.3-20.5,9.2-25.2c8.2-6.4,39.6-7.4,39.6-7.4s6.3,3.1,17,3.1C211.9,226.1,222.8,223.2,222.8,223.2z"/>
	<g>
		<path class="st15" d="M349.6,306.8c-3.9,15.7-32.1,24.2-40.2,25.6c-8.1,1.4-19.2-8.2-27.4-15.4c-8.2-7.2-21.3-20.4-21.3-20.4    l20.5-38.6c0,0,8.6,8,16.5,16.5c8,8.5,19.3,20.8,19.3,20.8S353.5,291.1,349.6,306.8z"/>
		<path class="st9" d="M270.1,310.3c-3.7,1.9-11.9-9.4-19-10.5c-7.1-1.1-19.4-6.2-19.4-6.2s5.8-66.3,17.9-63.7    c16.1,3.5,40.6,30.6,43.4,36.5c2,4.2-3.8,11-8,20.2C280.7,295.8,273.8,308.4,270.1,310.3z"/>
	</g>
	<g>
		<path class="st15" d="M174.5,230.4c-5.6-7.6-18.5-10.3-25.4-18.9c-9.4-11.9-19.3-25.7-19.3-25.7s1-16.2-0.3-28.9    c-1.3-12.7-3.3-39.2-3.3-39.2l-18.6-8.2c0,0-11.8,30-14,45.7c-2.3,15.7-7.2,25.8-1,44.4c6.2,18.6,31.8,68.6,44.5,70.2    C149.9,271.4,180.1,238.1,174.5,230.4z"/>
		<path class="st15" d="M152.7,91.5c0.2-1.6-1.8-4.8-6.2-3.7c-3.4,0.9-8.4,8.3-9.1,6.9c-0.9-1.8,7.1-19.5,8.9-27.3    c0.9-3.9-3.1-6.5-6.2-1.9c-2.7,3.9-8,17.6-8.7,17.9c-0.7,0.3,5.1-20.3,4.9-24.5c-0.2-4.2-4.6-5.4-6.3-2.5    c-1.7,2.9-5.6,24.8-7,24.3c-1.4-0.5,1.3-19.2,0.4-23c-0.9-3.9-4.8-4.6-6.5-0.3c-1.6,4.3-2.5,24.7-3.8,24.6    c-1.3-0.1-1-11.4-2.4-16.7c-1.6-6.1-5.7-3-6.3,0.3c-0.5,3.3,0.4,14.6,0.1,22.4c-0.3,7.8-0.4,12,0.3,17.2c0.5,4,2.9,8.1,5.1,9.7    c2.3,1.6,13.5,5.8,17.3,3.9c3.8-1.9,9.5-5.2,11.2-8.9c1.7-3.7,7.1-9,9.2-11.5C150.2,95.4,152.6,92.4,152.7,91.5z"/>
	</g>
	<path class="st9" d="M168.6,221.9c-4.1-2.4-7.9-7.5-11.4-9.9c-4.2-2.9-7.3-4.5-7.3-4.5s-3.3-4.9-4.6-6.2c-1.3-1.3-4.6-3.6-6.5-2.6   c-2,1-12.1,18-17.3,33c-4.2,12.2-7.8,39.2-5.9,43.8c1,2.3,10.4,4.6,14.4,7.8c3.9,3.3,5.2,8.5,11.1,10.4c5.9,2,41.8-43.1,41.8-43.1   S173.2,224.5,168.6,221.9z"/>
	<g>
		<path class="st10" d="M149.7,208.2c0,0-20.2,26.1-21.5,55.5"/>
		<path class="st10" d="M163.4,220c0,0-21.8,8.9-26,27.7"/>
		<path class="st10" d="M171.7,302.4c0,0,15.8,60,47.9,72.3"/>
		<path class="st10" d="M138.6,291.8c0,0,25.5-16.3,35.9-54.9"/>
		<path class="st10" d="M245.1,252c0,0,3.9,35.9,14.4,45.4"/>
		<path class="st10" d="M168.6,391.7c0,0,4.2,1.5,10.5,4.5c6.3,3,14.3,9.2,26,15.1"/>
	</g>
	<g>
		<path class="st6" d="M424.6,379.9c0.4-7.1,4.8-9.4,8.5-10.8c3.7-1.3,11.4-3.1,13.1-3.5c2.8-0.8,12.7-6.8,14-1.9    c1.4,4.9-9.6,8-8.6,9.1c1.1,1.1,14.6-1.2,21-0.6c3.2,0.3,4.2,1.8,4.3,3.4c0.1,4.7-21.2,3.6-20.7,4.9c0.2,0.6,4.6,1.8,9.2,1.8    c4.5,0,9.4-1.2,10.9-0.7c3,1.2,3.3,5-0.2,5.9c-1.5,0.4-5.8,1.6-10.1,1.6c-5.9,0-11.6-0.9-11.6-0.9s4.8,1.8,9.2,2.9    c3.8,0.9,7.8,0.2,8.7,0.8c3,1.8,1.1,5.2-1.4,5.9c-1.1,0.3-5,1.1-8.8,0.1c-5-1.3-10.6-3.6-10.9-3.1c-0.4,1,8.1,4,10,5.6    c1.9,1.6,0.4,4.3-2.2,4.4c-3.1,0.1-7-0.8-12.4-3.1c-5.4-2.2-9.8-3.9-13.4-6.1C426.5,391.6,424.2,386.9,424.6,379.9z"/>
		<path class="st6" d="M418.9,357.8c-5.1-4.4-19.7-14.1-22-15.6c-0.3-1.1-1.6-6-1.6-6s-5.3,3.6-11.2,5.2c-5.9,1.6-14.7,3.6-14.7,3.6    s4.7,15.5,9.3,19.5c5,4.3,16.9,12.6,24.2,15.7c11.4,4.8,23.5,6.1,23.5,6.1l6-16.3C432.4,370,426.5,364.4,418.9,357.8z"/>
		<path class="st11" d="M391.3,303.8c-3.3-8.8-8.7-17.9-13.5-21.7c-4.8-3.8-12.2-4.6-12.2-4.6s3.5,26.7,3.5,35.1s-1.7,33.3-1.7,33.3    s8.3-1.6,17.4-3.5c9.1-1.9,12.6-7.4,12.6-7.4S396.3,316.9,391.3,303.8z"/>
	</g>
	<g>
		<path class="st6" d="M394.5,263.5c-5.1-0.4-16.4,11-21.4,25.6c-4.5,13-11.2,22.4-11.2,22.4s-16.6,11.2-22,16    c-7.6,6.7-13.3,12.4-13.3,12.4l6.2,16.2c0,0,11.5-4,22.9-8.9c7.3-3.2,20.1-10.9,24.1-14.2c4-3.3,11.8-15.4,14.2-20.2    c2.4-4.8,8.4-9.7,10.4-23.3C406.5,276.1,399.7,263.9,394.5,263.5z"/>
		<path class="st6" d="M334,348.1c-0.5-7.2-5-9.6-8.7-10.9c-3.7-1.3-11.6-3-13.2-3.4c-2.8-0.7-12.9-6.8-14.2-1.8    c-1.3,5.1,9.8,8,8.8,9.2c-1,1.1-10,0.2-13.2-1.5c-3.3-1.6-4.2,1.3-3.9,3.6c0.3,2.3,2.6,4.2,4.9,5.2c2.3,1,8.1-0.2,7.8,0.5    c-0.2,0.7-1.6,1.1-5.2,1.4c-3.6,0.3-4.9-2-6.7-0.9c-1.8,1.2-2.1,6.2,1.5,7.1c1.5,0.4,3.3,0.7,5.6,0.7c2.3,0,6.9-0.4,6.9-0.4    s-3.7,1.5-6.8,2.3c-3.1,0.8-7.2-1.9-7.9,0.7c-0.7,2.6,0.7,5.6,2.9,6.2c2.3,0.7,5.6,0.3,7.5,0c2-0.3,7.2-3.1,7.5-2.5    c0.5,1-8.1,4.1-10,5.8c-1.9,1.7-0.4,4.3,2.2,4.4c3.1,0.1,7-0.9,12.5-3.3c5.4-2.3,10.8-6.3,14.4-8.6    C333.2,357.9,334.4,355.3,334,348.1z"/>
	</g>
	<path class="st11" d="M607.3,408.7c0-14.6-6.3-31.9-6.3-31.9s-100.8-7.4-103.7,3.5c-1,3.8-2.6,20.3-3.4,37   c-0.8,16.7,3.2,53.1,3.2,53.1s13.2,2.1,28.5,3.3c15.3,1.2,26.6-4.4,31.1-4c2.8,0.3,11.9,1.7,23.5,1.4c6.9-0.2,26-4,26-4   s-0.4-11.5-0.6-25.2C605.1,427.1,607.3,423.3,607.3,408.7z"/>
	<g class="st17">
		<path class="st16" d="M536.5,410.8c-8.9-0.8-19.7-1.9-19.7-1.9l-3.5,25.4c0,0,10,12.6,17.3,14.1c7.3,1.5,19.5-11.1,19.5-11.1    l2.6-26.3C552.8,411,543.8,411.4,536.5,410.8z"/>
		<path class="st16" d="M604.2,404.3l-2.2,26.3c0,0-8.9,13.4-14.6,13.8c-4.5,0.3-15.7-9.2-15.7-9.2l2.4-23.1c0,0,9-2.2,15-3.5    C595.1,407.4,604.2,404.3,604.2,404.3z"/>
	</g>
	<path class="st18" d="M565.9,423.9c0,0-1.3,15.7-4.8,21.3c-3.5,5.7-4.6,23.2-4.6,23.2"/>
	<path class="st18" d="M535.4,458.7c0,0,9.1,0.4,13.1-0.9c3.9-1.3,8.7-4.8,10.9-4.8c2.2,0,10.4,6.5,23.5,4.8"/>
	<g>
		<path class="st19" d="M660.2,171.3c-1-16-8.8-33.7-8.8-33.7s0.7-6.3,0.6-10.1c-0.1-6.4-5.3-17.7-6.9-20.1c-1.5-2.4-6.2-6.3-8-6    c-1.8,0.3-2,1.5-2,1.5s-3.8-2.7-6.2-1.5c-2.2,1-3.1,3.8-3.1,3.8s-2.5-1.7-4.4-0.7c-2.5,1.4-2.8,5.1-2.8,5.1s-2.1-0.3-3.6,0.6    c-1.5,0.9-3,3.8-2.7,5.3c0.3,1.5,1.1,3.3,1.1,3.3s-0.9,3.8-0.2,6c0.7,2.2,0,4.5,0.7,6.2c2.2,6,7.3,7.3,9.7,10.4    c2.4,3.1,9.7,4.2,9.7,4.2s-0.5,15.1-1.3,22.1c-1.3,10.6-2.9,26.6-2.9,26.6s-6.5,7.2-10.1,12.2c-3.6,5-7.4,11.3-12.5,15.4    c-9.8,8-24.5,8.7-20.1,28.8c2.3,10.4,12.7,21.2,23.2,21c10.5-0.2,26.5-21.2,31.4-28.3c4.9-7.1,13.3-26.1,15.5-32.7    C658.8,204.1,661,185.3,660.2,171.3z"/>
		<g>
			<path class="st20" d="M619.2,109.6c0,0,5.5,1.1,6.9,6.2"/>
			<path class="st20" d="M625.9,104.7c0,0,6.6,3.1,6.9,7.1"/>
			<path class="st20" d="M635.6,102.7c0,0,5.5,3.5,6.2,7.7"/>
			<path class="st20" d="M624.5,126.6c0,0-1.5-1.5-4.2-3.3"/>
			<path class="st20" d="M621.4,126.6c-0.2-1.8-0.7-2.9-1.3-4.2c-0.7-1.3-1.4-3.1-2.2-4c-0.9-0.9-2-0.9-2.9-0.4     c-0.9,0.4-1.5,1.8-1.5,1.8"/>
		</g>
	</g>
	<path class="st12" d="M564.2,238.8c2-5.3,13.2-7,18.9-8.1c5.7-1.2,8.6-3.7,12.3-5.2c2.6-1.1,7.3-7.9,13.3-7.2   c6,0.7,14.6,10,15.9,22.6c1.3,12.6,2,22.6,0,29.9c-2,7.3-6,13.3-15.3,13.3c-9.8,0-27.7,7.7-27.7,7.7S562.2,244.1,564.2,238.8z"/>
	<path class="st19" d="M566.3,213.5c0,0,6.1-0.9,7.6-2.8c2.9-3.7,4.1-11.3,1.9-15.5c-2.4-4.7-9.8-0.4-9.8-0.4s-39.2-25.8-44.7-23.4   c-5.6,2.5-6,10.1-5.9,13.5c0.1,3.3,1.6,8.3,1.6,8.3s-3.1-0.8-4.3,1.2c-1.2,2-0.3,6.1,0.2,8c0.8,2.9,1.8,8.1,3.7,9.2   c1.9,1.1,3.2,0.4,3.2,0.4s2.3,10.9,3.8,14.5c1.4,3.6,5.7,2.8,5.7,2.8l0.5,17.6l36.8-1.1c0.1-1.8-5.3-23.4-5.3-23.4L566.3,213.5z"/>
	<path class="st16" d="M570.9,167.2c0,0,1.5-5.5-2.1-11.2c-3.7-5.6-18.4-6.9-18.4-6.9l-15.9-2.2c0,0-3.6-2.8-8.3-1.9   c-4.7,1-3,6.2-3,6.2s-4.7-0.3-6.1,2.2c-0.9,1.6-0.7,4.9,0.2,7.7c-2,0.9-3.6,3.2-3.7,5.8c-0.1,2.8,0.8,6.4,2.7,8.4   c0,0-1.6,7.5-1.3,11c0.7,7.4,6.4,16.8,9,22.6c2.5,5.8,3.8,5.9,6.9,8.8c3.1,2.9,4.2,4.8,5.3,9.8c1.1,5,11,3,17.3,2.1   c6.3-0.9,8.6-1.6,9.2-2.9c0.6-1.3,1.5-8.4,3.9-11.3c2.4-2.9,5-8,7.3-15.8c2.3-7.8,2.1-13.8,2.3-20.6   C576.5,172.3,570.9,167.2,570.9,167.2z"/>
	<g>
		<path class="st16" d="M561.1,177.9c0,0,1.7,7-0.4,16.1c-2.2,9.1-3.5,19.6-3.5,19.6"/>
		<path class="st16" d="M565.9,172.7c0,0,7,6.1,3.9,17.4c-3,11.3-7,20.5-7,20.5"/>
		<path class="st16" d="M527.2,172.3c0,0,7.4,2.2,15.2,0c7.8-2.2,14.4-0.9,14.4-0.9"/>
		<path class="st16" d="M525,156.2c0,0,14.4,5.2,22.2,4.4c7.8-0.9,13.5,8.7,13.5,8.7"/>
		<path class="st16" d="M531.1,148.3c0,0,5.7,3,14.4,3.9c8.7,0.9,17.9,2.2,20,7.8c2.2,5.7,0.4,8.3,0.4,8.3"/>
	</g>
	<g>
		<path class="st19" d="M376.3,278.6c1.3,1.3,4.5-1.4,8.3-1c3.1,0.3,6.7,6.6,10.7,8.3c4,1.7,9.2,3.3,9.2,3.3s11.3,21.3,16.5,27.9    c7.3,9.1,17.9,17.2,24.5,17.6c6.6,0.3,23-6.7,34-14.3c11.1-7.5,23.4-20.4,23.4-20.4l-12.4-31.9c0,0-10.6,7.1-19,13.7    c-8.1,6.4-19.9,19.5-19.9,19.5s-9.9-8-15.5-12.6c-5.6-4.7-16.4-9.5-16.4-9.5s-1.5-8.4-1.8-10.8c-0.2-2.4-1.8-6.4-3.8-9.3    c-2-2.9-6.2-3.8-8.6-2c-1.4,1,1.2,2.3,2.1,4.2c0.6,1.3,0.7,2.7,0.7,2.7s-4.1-5.5-7.8-6.5c-2.4-0.7-5.2-1.5-7.2,0.2    c-1.1,0.9-1.2,2.5-1.2,2.5s-4,0.6-4.9,2.1c-0.8,1.5-0.8,2.7-0.8,2.7s-2.8,0.1-3.9,1.6c-1.1,1.5-1.8,4.7-1.8,4.7s-2.7,0.6-4,2.1    C374.8,275.6,375,277.4,376.3,278.6z"/>
		<g>
			<path class="st20" d="M381.6,271.1c0,0,6.2-2.7,11.6,3.3"/>
			<path class="st20" d="M386.9,264.8c0,0,5.4-0.6,7.9,2.5"/>
			<path class="st20" d="M392.6,260c0,0,4-0.4,6.6,2.7"/>
		</g>
	</g>
	<path class="st12" d="M524.7,240.1c0,0-27.2,2.7-35.1,14.6c-7.9,11.9-0.2,39.6,2.5,48.1c2.7,8.5,2.5,39.9,2.3,54.7   c-0.1,11.3-6.7,40.5-4,45.2c2.7,4.8,41.4,14.1,53.2,14.6c27.5,1,60.7-9.1,65-14.7c4.3-5.6-7.8-50.8-7.6-61.5   c0.2-10.8,0.2-63.9-1.8-80.1c-1.9-16.2-7.2-28.1-33.2-23.5C551.7,240,524.7,240.1,524.7,240.1z"/>
	<path class="st12" d="M499.7,249.2c0,0-6.3,1.4-9.8,4.2c-5.6,4.4-11.3,11.4-14.6,16.3c-6.1,9-14.5,14.3-14.5,14.3   s1.6,11.1,7.6,22.4c5.9,11.4,14.4,17,14.4,17s16.1-5.8,22.3-16.1c6.7-11.2,9.1-25.1,9.1-25.1L499.7,249.2z"/>
	<g>
		<path class="st21" d="M577.7,240.2c0,0,12.6,7.4,16.5,19.2c3.9,11.8,4.4,23.9,4.4,23.9"/>
		<path class="st21" d="M591.6,230.2c0,0,13.9-3.5,20.5,7.8"/>
		<path class="st21" d="M588.5,231.1c0,0,13.1-0.4,19.6,14.8"/>
		<path class="st21" d="M519.3,269.4c0,0,1.3,14.4-3,23.5c-4.4,9.1-20.5,23.5-20.5,23.5"/>
		<path class="st21" d="M571.6,296.8c0,0-12.2,20.5-15.7,38.7c-3.5,18.3-12.6,50.9-12.6,50.9"/>
	</g>
	<path class="st7" d="M380.9,273.8c-2.6-5.2-9.1-10.4-10.1-13.7c-1-3.3,1.3-9.5,0-17.6c-1.3-8.2-5.2-13.7-5.9-16.3   c-0.7-2.6-2-14-3.9-18.6c-2-4.6-4.6-9.8-7.2-13.4c-2.6-3.6-6.9-6.9-16.3-9.5c-9.5-2.6-18.6,3.9-18.6,3.9s-8.8-2-14.7,3.9   c-5.9,5.9-8.4,11.5-9.1,16.4c-0.7,4.8-1,8.8-2.3,12.4c-1.3,3.6-2.5,8.4-5.5,13.6c-5.4,9.4-0.9,21.1-0.1,26.9   c0.9,5.7-6.2,10.8-9.5,16c-3.3,5.2-1.7,15.3,3.1,19.4c4.8,4.1,10.6,1.5,12.6,4.7c2,3.3,6.2,15.3,17.6,17.3c11.4,2,16-6.2,20.6-5.6   c4.6,0.7,8.5,7.8,19.6,3.6c11.1-4.2,9.4-14.6,12.7-17.3c3.3-2.7,8.6-1.6,14.1-5.1C383.5,291.5,383.5,279.1,380.9,273.8z"/>
	<g>
		<path class="st8" d="M351.7,202.1c0,0,7.4,13.1,6.5,22.6c-0.9,9.6,1.7,16.1,3.9,22.6c2.2,6.5-1.3,16.5,3,21.3    c4.4,4.8,7.8,16.5,5.7,21.3"/>
		<path class="st8" d="M366.5,246.5c0,0,1.7,7.4,0.9,13.1c-0.9,5.7,3.5,7.4,6.5,12.6c3,5.2,3.9,13.1,2.6,15.2"/>
		<path class="st8" d="M295.1,235.6c0,0-4.8,7.8-2.2,14.4c2.6,6.5,4.4,19.2,0.4,23.1c-3.9,3.9-13.5,10.4-9.6,17.4"/>
		<path class="st8" d="M299.5,272.2c0,0-6.1,10-2.6,16.1c3.5,6.1,4.8,7.8,4.8,13.9s4.4,10,4.4,10"/>
		<path class="st8" d="M318.6,193c0,0-12.6,16.5-6.5,29.2c6.1,12.6,3.9,19.2,2.2,27c-1.7,7.8-3.5,15.7-0.4,23.5    c3,7.8,3.5,12.6,1.7,21.3c-1.7,8.7,1.3,14.4,4.8,17.8"/>
		<path class="st8" d="M316.5,207.3c0,0-2.6,9.1,3,21.3c5.7,12.2,4.8,23.1,3,28.3c-1.7,5.2-0.9,10,3,16.1c3.9,6.1,4.4,12.6,1.7,20    c-2.6,7.4-0.9,11.3,2.6,14.4"/>
	</g>
	<path class="st8" d="M350.4,192.5c0,0,13.9,11.3,16.5,21.8c2.6,10.4-4.4,14.4-0.4,22.2c3.9,7.8,8.3,12.2,7.4,20.9   c-0.9,8.7,1.3,9.6,5.2,16.5c3.9,7,7.4,9.1,5.2,17.8"/>
	<path class="st8" d="M306,196.9c0,0-15.2,7.8-15.2,19.2c0,11.3,3.5,12.6,1.3,22.6c-2.2,10-8.3,13.1-10,20.5   c-1.7,7.4,2.2,18.7-0.4,22.6c-2.6,3.9-8.7,14.4-0.4,20.9"/>
</g>
</svg>