<svg xmlns="http://www.w3.org/2000/svg" xmlns:xlink="http://www.w3.org/1999/xlink" version="1.1" id="Слой_1" x="0px" y="0px" viewBox="0 0 3171 2000" style="enable-background:new 0 0 3171 2000;" xml:space="preserve">
<style xmlns="http://www.w3.org/2000/svg" type="text/css">
	.st0{fill:#FFFFFF;}
	.st1{fill:#CDE9FD;}
	.st2{fill:#D28F2F;}
	.st3{fill:#17152B;}
	.st4{fill:#FFBABA;}
	.st5{fill:#ffbe55;}
	.st6{fill:#0F528C;}
	.st7{fill:#074A73;}
	.st8{fill:#060633;}
	.st9{fill:#F1F1F1;}
	.st10{fill:#E5ECFB;}
	.st11{fill:#E86868;}
	.st12{fill:#050521;}
	.st13{fill:#E37A7A;}
	.st14{fill:#FFCB87;}
	.st15{fill:#DBE5FC;}
</style>
<rect xmlns="http://www.w3.org/2000/svg" class="st0" width="3171" height="2000"/>
<path xmlns="http://www.w3.org/2000/svg" class="st1" d="M2711,1804.4c208.7-185.9,331-465.1,326.2-744.6c-2-115.7-31.3-251.4-127.9-326.7  c-78.6-61.3-163.6-99.5-233.5-173.7c-73-77.5-132.9-166.5-209.1-241.1c-250.1-244.8-620.4-279.6-943-179.8  C1336,196.6,1159.9,294,966.3,326.7c-126.7,21.4-259.2,14.7-379.9,58.7C455.3,433.1,350.9,537,276.7,655  C144.5,865.6,43,1138.2,106.5,1387.3c43.3,169.7,150.9,318.4,259.4,455.9L2711,1804.4z"/>
<ellipse xmlns="http://www.w3.org/2000/svg" class="st2" cx="1565.2" cy="1842.9" rx="1309.6" ry="81.6"/>
<g xmlns="http://www.w3.org/2000/svg">
	<path class="st3" d="M1672.7,1352c3.1,0,5.9-2.1,6.6-5.3l40.4-175.2c0.8-3.7-1.4-7.3-5.1-8.2c-3.7-0.9-7.3,1.4-8.2,5.1l-40.4,175.2   c-0.8,3.7,1.4,7.3,5.1,8.2C1671.7,1351.9,1672.2,1352,1672.7,1352z"/>
	<polygon class="st2" points="1571,860.4 1869.8,860.4 1759.7,1180.5 1460.9,1180.5  "/>
	<path class="st3" d="M1475.4,1855.3c3.5,0,6.5-3.3,6.8-7.7l31.3-464.5h153.5l63,454.7c0.6,4.5,4.1,7.6,7.9,6.8   c3.7-0.8,6.2-5.1,5.6-9.6l-64-461.6c-0.6-4-3.4-6.9-6.7-6.9h-165.5c-3.5,0-6.5,3.3-6.8,7.7l-31.8,472.1c-0.3,4.6,2.5,8.6,6.2,9   C1475,1855.3,1475.2,1855.3,1475.4,1855.3z"/>
	
		<rect x="1301.2" y="1345.2" transform="matrix(-1 -1.224647e-16 1.224647e-16 -1 3014.3223 2730.7773)" class="st2" width="412" height="40.4"/>
</g>
<path xmlns="http://www.w3.org/2000/svg" class="st4" d="M1309.3,892.7c0,0-2.2-32.3-5.6-43.9c-3.4-11.5,1.9-25.2-5.1-25.6c-6.9-0.4-9.7,22.5-9.7,22.5  s-16.8-17.7-21.1-23.9c-4.3-6.2-14.9-15.4-19.7-12.6c-4.8,2.8,18.1,31.3,18.1,31.3s-21.6-22.1-26.6-20.4c-5,1.7,18.4,33.8,18.4,33.8  s-21.9-24.7-25.3-25.1c-3.4-0.4-4.1,3.9,1.5,14.5s14.1,20,14.1,20s-16.7-16.2-19.4-17.4c-2.7-1.2-7.3-1,2.7,13.9  c10,14.8,36.9,43.4,56.2,52.2L1309.3,892.7z"/>
<path xmlns="http://www.w3.org/2000/svg" class="st4" d="M1411.6,1705.3c0,0,7.3,51-10.9,76.6s-55.9,62-46.2,71.7s117.9-45,115.4-57.1c-2.4-12.2-19.4-62-15.8-91.1  H1411.6z"/>
<path xmlns="http://www.w3.org/2000/svg" class="st5" d="M1463.4,1771.7c3,11.2,5.7,20.4,6.6,24.7c2.4,12.2-105.7,66.8-115.4,57.1c-7.2-7.2,11.6-29.1,29.3-50.4  C1393.8,1809.4,1418.9,1816,1463.4,1771.7z"/>
<path xmlns="http://www.w3.org/2000/svg" class="st4" d="M1267.1,1705.3c0,0,7.3,51-10.9,76.6s-55.9,62-46.2,71.7s117.9-45,115.4-57.1c-2.4-12.2-19.4-62-15.8-91.1  H1267.1z"/>
<path xmlns="http://www.w3.org/2000/svg" class="st5" d="M1318.9,1771.7c3,11.2,5.7,20.4,6.6,24.7c2.4,12.2-105.7,66.8-115.4,57.1c-7.2-7.2,11.6-29.1,29.3-50.4  C1249.3,1809.4,1274.5,1816,1318.9,1771.7z"/>
<path xmlns="http://www.w3.org/2000/svg" class="st6" d="M1673.8,581.9c0,0-70.8-31.1-106.1,40.2c-35.3,71.3-52.7,154.6-32.1,189.9c20.6,35.3,89.4,25,89.4,25  s82.6,16.8,115.1-18.8S1757.4,601.5,1673.8,581.9z"/>
<path xmlns="http://www.w3.org/2000/svg" class="st4" d="M1670.3,821.7l14.1,16.9l-17.2,55.7l-67.1,61.7l-19.9,9c0,0-21.5-42.2-21.5-45.8c0-3.6-3.6-53.3-3.6-53.3  l4.8-21.6l12.9-14.5l23.9-13.8l22.3-3L1670.3,821.7z"/>
<polygon xmlns="http://www.w3.org/2000/svg" class="st0" points="1673.6,865.5 1582.3,953.2 1575.1,855.8 1475.9,1048.3 1475.9,1211.4 1611.1,1211.4 1684.4,929 "/>
<path xmlns="http://www.w3.org/2000/svg" class="st7" d="M1471.8,1171l252.7,26.1c0,0-3.6,148.1-41.9,167.3s-187.1,71.9-187.1,71.9l-23.8,298.3h-100.2  c0,0,8.3-283.4,17.6-314.2c9.3-30.8,30.3-50.9,30.3-50.9s-45,28.3-46.5,42.9c-3.7,36.9-44.4,316.3-44.4,316.3l-89.5,8.6  c0,0-2.8-355.5,31.6-396.7c34.4-41.2,188.4-88,188.4-88L1471.8,1171z"/>
<path xmlns="http://www.w3.org/2000/svg" class="st5" d="M1678.4,831c0,0,97.3,38.9,114.9,64.9c17.6,26,30.8,200.9,18,244.2c-12.8,43.2-52.8,46.5-52.8,46.5l-14.8,158.2  h-167.9l13-190.3l-33.6-11.2l28.8-78.6l40.8,3.4L1678.4,831z"/>
<path xmlns="http://www.w3.org/2000/svg" class="st5" d="M1596.7,816c0,0-84.1,229.6-91.3,308.9c-7.2,79.3-45.9,173.1-45.9,173.1l-78.8-18l53.3-220l-24.1,15.7  l-30.7-84.7c0,0,75.7-136.5,120.2-154.5C1543.9,818.6,1596.7,816,1596.7,816z"/>
<path xmlns="http://www.w3.org/2000/svg" class="st8" d="M1624.7,1069.5c-0.7,0-1.3-0.6-1.3-1.3c0-0.7,0.6-1.3,1.3-1.3c38.6-0.1,98.1-1.6,104-5.5  c5-3.2,3.4-50.7-0.6-93.8c-0.1-0.7,0.5-1.4,1.2-1.5c0.7-0.1,1.4,0.5,1.5,1.2c1.4,15.1,8,90.7-0.6,96.3  C1721.7,1069,1634.6,1069.4,1624.7,1069.5C1624.7,1069.5,1624.7,1069.5,1624.7,1069.5z"/>
<g xmlns="http://www.w3.org/2000/svg">
	<polygon class="st9" points="1472.4,1119.8 1502.6,1119.8 1505.7,1119.8 1535.9,1119.8 1505.7,1111.9 1502.6,1111.9  "/>
	<rect x="1501.7" y="1038.7" class="st9" width="4.9" height="74.3"/>
	<path class="st9" d="M1520.7,958.5H1488v66.2c0,9,7.3,16.4,16.4,16.4l0,0c9,0,16.4-7.3,16.4-16.4V958.5z"/>
	<path class="st10" d="M1504.1,1038.7L1504.1,1038.7c8,0,14.6-6.5,14.6-14.6v-59.2h-29.1v59.2   C1489.5,1032.1,1496,1038.7,1504.1,1038.7z"/>
</g>
<path xmlns="http://www.w3.org/2000/svg" class="st8" d="M1751.3,1188.2c-50.5,0-161.8-32-163-32.4c-0.7-0.2-1.1-1-0.9-1.7c0.2-0.7,0.9-1.1,1.7-0.9  c1.2,0.4,123.6,35.5,169.3,32c0.8-0.2,1.4,0.5,1.4,1.2c0.1,0.7-0.5,1.4-1.2,1.4C1756.3,1188.1,1753.9,1188.2,1751.3,1188.2z"/>
<path xmlns="http://www.w3.org/2000/svg" class="st4" d="M1575.1,1088.6c0,0-19.5-27.3-28.7-35.6c-9.2-8.3-12-23.2-18.4-19.8c-6.3,3.4,3.7,25.1,3.7,25.1  s-24.4-6.5-31.6-9.6s-21.5-5.5-24.2-0.4s32.9,17.7,32.9,17.7s-17.7-5.3-21.2-1.2c-3.5,4.2,21.2,17.4,21.2,17.4s-18.3-6.8-21.5-5.4  c-3.2,1.5-1.5,5.7,9.3,12c10.7,6.3,8.9,7,8.9,7s-10.2-5.5-13.3-5.2c-3,0.4-4.1,6.5,12.8,14.1c16.9,7.6,37.7,15.7,59.4,13  L1575.1,1088.6z"/>
<path xmlns="http://www.w3.org/2000/svg" class="st11" d="M1575.7,698.7c0,0-5.6-9.4-10.6-5.9c-12.7,8.9,0,22.2,8,25.2L1575.7,698.7z"/>
<path xmlns="http://www.w3.org/2000/svg" class="st4" d="M1657.8,581.9c37.3,4.2,66,36.2,66.3,73.7c0.1,12.3-2.8,23.9-8,34.1c-11.5,25.5-21,46.1-32.3,60.8  c-11.4,15-17.2,33.5-15.4,52.2l1.8,18.9c-44.4,19.7-62.4-2.9-62.4-2.9l2-43.4l0,0c-46.7-7.8-36.5-94.2-35.3-119.8l0.1,0  c0-1,0-1.9,0.1-2.9C1576.7,609.8,1614.4,577,1657.8,581.9z"/>
<path xmlns="http://www.w3.org/2000/svg" class="st6" d="M1655.7,627.4c0,0-29.3,21.9-54.7,42s-18.7,99.8-18.7,99.8l-27.2-68.4c0,0,8.7-133.7,102.6-119  c93.9,14.8,69.4,109.3,54.1,129c-15.4,19.7-16.1,4.6-16.1,4.6S1658.4,645.6,1655.7,627.4z"/>
<path xmlns="http://www.w3.org/2000/svg" class="st4" d="M1692.4,709.6c1.3-2.4,3.5-4.1,6.1-5c5.3-1.8,14.4-3.7,20.4,2.8c8.7,9.6-10.8,33-28.5,20.1  C1690.4,727.5,1685.4,722.1,1692.4,709.6z"/>
<path xmlns="http://www.w3.org/2000/svg" class="st5" d="M1442.2,1060.8c0,0-64.5,60.6-121.3,51.1s-59.4-216-59.4-216l55.5-8.1c0,0,24.5,94.5,34.8,94.5  c10.3,0,100.7-102.9,100.7-102.9L1442.2,1060.8z"/>
<g xmlns="http://www.w3.org/2000/svg">
	<rect x="744.4" y="1180.5" class="st8" width="1348.7" height="43.1"/>
	<rect x="1743.2" y="1210.9" class="st8" width="39.4" height="644.4"/>
	<rect x="2053.7" y="1210.9" class="st8" width="39.4" height="644.4"/>
</g>
<g xmlns="http://www.w3.org/2000/svg">
	<path class="st3" d="M583,1371.1c-3.1,0-5.9-2.1-6.6-5.3l-40.4-175.2c-0.8-3.7,1.4-7.3,5.1-8.2c3.7-0.9,7.3,1.4,8.2,5.1l40.4,175.2   c0.8,3.7-1.4,7.3-5.1,8.2C584,1371,583.5,1371.1,583,1371.1z"/>
	<polygon class="st2" points="684.7,879.5 385.9,879.5 496,1199.7 794.8,1199.7  "/>
	<path class="st3" d="M780.3,1863.3c-3.5,0-6.5-3.2-6.8-7.5L742.2,1402H588.7l-63,444.3c-0.6,4.4-4.1,7.4-7.9,6.7   c-3.7-0.8-6.2-5-5.6-9.4l64-451.1c0.6-3.9,3.4-6.8,6.7-6.8h165.5c3.5,0,6.5,3.3,6.8,7.5l31.8,461.3c0.3,4.5-2.5,8.4-6.2,8.8   C780.6,1863.3,780.5,1863.3,780.3,1863.3z"/>
	<rect x="542.5" y="1364.3" class="st2" width="412" height="40.4"/>
</g>
<path xmlns="http://www.w3.org/2000/svg" class="st3" d="M2400.8,1357.5c3.1,0,5.9-2.1,6.6-5.3l40.4-175.2c0.8-3.7-1.4-7.3-5.1-8.2c-3.7-0.9-7.3,1.4-8.2,5.1  l-40.4,175.2c-0.8,3.7,1.4,7.3,5.1,8.2C2399.7,1357.5,2400.2,1357.5,2400.8,1357.5z"/>
<path xmlns="http://www.w3.org/2000/svg" class="st3" d="M2188,1357.5c3.1,0,5.9-2.1,6.6-5.3L2235,1177c0.8-3.7-1.4-7.3-5.1-8.2c-3.7-0.9-7.3,1.4-8.2,5.1l-40.4,175.2  c-0.8,3.7,1.4,7.3,5.1,8.2C2186.9,1357.5,2187.5,1357.5,2188,1357.5z"/>
<polygon xmlns="http://www.w3.org/2000/svg" class="st2" points="2299,865.9 2597.8,865.9 2487.8,1186.1 2188.9,1186.1 "/>
<path xmlns="http://www.w3.org/2000/svg" class="st3" d="M2262.1,1372.1h-26.9c-3.5,0-6.5,3.3-6.8,7.7l-31.8,472.1c-0.3,4.6,2.5,8.6,6.2,9c0.2,0,0.4,0,0.6,0  c3.5,0,6.5-3.3,6.8-7.7l31.3-464.5h22C2261.5,1383.4,2261.1,1377.6,2262.1,1372.1z"/>
<path xmlns="http://www.w3.org/2000/svg" class="st3" d="M2080.2,1372.1h-26.9c-3.5,0-6.5,3.3-6.8,7.7l-31.8,472.1c-0.3,4.6,2.5,8.6,6.2,9c0.2,0,0.4,0,0.6,0  c3.5,0,6.5-3.3,6.8-7.7l31.3-464.5h22C2079.6,1383.4,2079.1,1377.6,2080.2,1372.1z"/>
<path xmlns="http://www.w3.org/2000/svg" class="st3" d="M2471.4,1840.7l-64-461.7c-0.6-4-3.4-6.9-6.7-6.9h-18.1c0.7,2.2,1.2,4.5,1.4,7c0.3,3.4,0.2,6.6-0.3,9.6h11.3  l63,454.7c0.6,4.5,4.1,7.6,7.9,6.8C2469.6,1849.5,2472.1,1845.2,2471.4,1840.7z"/>
<rect xmlns="http://www.w3.org/2000/svg" x="2029.2" y="1350.7" transform="matrix(-1 -1.224647e-16 1.224647e-16 -1 4470.4209 2741.8691)" class="st2" width="412" height="40.4"/>
<path xmlns="http://www.w3.org/2000/svg" class="st4" d="M2095.2,903.7c0,0-77.4,139.1-86.4,140.2c-9,1.1-17.7-156.1-17.7-156.1l-34.9,1.9c0,0-41.1,213.5,28.7,236.1  c69.8,22.7,139.5-133.2,139.5-133.2L2095.2,903.7z"/>
<path xmlns="http://www.w3.org/2000/svg" class="st4" d="M1919.6,1705.2c0,0,7.3,51.2-11,76.8c-18.3,25.6-56.1,62.2-46.3,71.9c9.8,9.8,118.3-45.1,115.8-57.3  c-2.4-12.2-19.5-62.2-15.8-91.4H1919.6z"/>
<path xmlns="http://www.w3.org/2000/svg" class="st5" d="M1971.6,1771.8c3,11.3,5.7,20.4,6.6,24.8c2.4,12.2-106.1,67.1-115.8,57.3c-7.2-7.2,11.7-29.2,29.4-50.5  C1901.7,1809.6,1927,1816.3,1971.6,1771.8z"/>
<path xmlns="http://www.w3.org/2000/svg" class="st4" d="M2046.7,1717.7c0,0,7.3,51.2-11,76.8c-18.3,25.6-56.1,62.2-46.3,71.9c9.8,9.8,118.3-45.1,115.8-57.3  c-2.4-12.2-19.5-62.2-15.8-91.4H2046.7z"/>
<path xmlns="http://www.w3.org/2000/svg" class="st5" d="M2339.4,1205.8c0,0,30.3,147.2-17.9,167.9s-210.4,57.2-220.1,86.9c-9.7,29.7,0,271.8,0,271.8l-77.2,2.3  c0,0-24.1-273.4-21.9-299.9c5.2-61,8-46.9,8-46.9s-21.8-6.8-31.5,46c-4.3,23.4-4.4,276.2-4.4,276.2l-77.1,2.3  c0,0-52.8-337.5,6.1-384s220.6-113.6,220.6-113.6L2339.4,1205.8z"/>
<path xmlns="http://www.w3.org/2000/svg" class="st0" d="M2158.2,859.6c0,0-61.9,14.4-89.2,50.3c-27.3,36-53,104-53,104l67.4,28.4c0,0,2.9,43.2,30.2,54.7  c0,0,17.3,67.6,0,125.2c0,0,145.3,43.2,234.5,0l7.2-195.6l54.7-23c0,0-28.8-125.2-96.4-143.9  C2245.9,840.9,2195.4,846.7,2158.2,859.6z"/>
<path xmlns="http://www.w3.org/2000/svg" class="st4" d="M2396.9,1009l-75.4,29.7c0,0,17,80.9,10,111.9c-9,40.3-108.6,124-129.3,134.1l20.7,30.3  c0,0,157.4-58.8,176.1-153.1C2417.7,1067.8,2396.9,1009,2396.9,1009z"/>
<path xmlns="http://www.w3.org/2000/svg" class="st12" d="M2083.4,1043.3C2083.4,1043.3,2083.4,1043.3,2083.4,1043.3c0.6,0,1-0.5,1-1c-0.5-20.5,17.6-47.3,17.8-47.6  c0.3-0.5,0.2-1.1-0.3-1.4c-0.5-0.3-1.1-0.2-1.4,0.3c-0.8,1.1-18.6,27.6-18.2,48.8C2082.4,1042.9,2082.8,1043.3,2083.4,1043.3z"/>
<path xmlns="http://www.w3.org/2000/svg" class="st12" d="M2229.9,1067.4c15.4,0,34.1-5.1,54.1-22.2c0.4-0.4,0.5-1,0.1-1.4c-0.4-0.4-1-0.5-1.4-0.1  c-48.5,41.4-89.7,10.8-90.1,10.5c-0.4-0.3-1.1-0.3-1.4,0.2c-0.3,0.4-0.3,1.1,0.2,1.4C2191.6,1056,2207,1067.4,2229.9,1067.4z"/>
<path xmlns="http://www.w3.org/2000/svg" class="st12" d="M2311.5,1043.3c0.1,0,0.2,0,0.3-0.1l10-3.6c0.5-0.2,0.8-0.8,0.6-1.3c-0.2-0.5-0.8-0.8-1.3-0.6l-9,3.2  l-22.1-71.6c-0.2-0.5-0.7-0.8-1.2-0.7c-0.5,0.2-0.8,0.7-0.7,1.2l22.4,72.6c0.1,0.3,0.3,0.5,0.5,0.6  C2311.2,1043.3,2311.3,1043.3,2311.5,1043.3z"/>
<path xmlns="http://www.w3.org/2000/svg" class="st4" d="M2222.9,1315.1c0,0-6.4,7.1-16.2,10.3c-9.8,3.2-39.8,8.5-44.4,10.5c-4.6,2-25.6,17.6-30.4,17.7  c-4.9,0.2,17.7-23.6,17.7-23.6s-22.1,17.6-26.4,14.6s17.8-23.9,17.8-23.9s-23.3,14.7-26.2,10.9c-2.9-3.8,19.5-18.3,19.5-18.3  s-22.3,9.8-24.6,6.8c-2.2-3.1,27.9-24.8,42.4-27.9c14.5-3,60.3-8.7,60.3-8.7L2222.9,1315.1z"/>
<path xmlns="http://www.w3.org/2000/svg" class="st5" d="M2098.6,1784.4c3,11.3,5.7,20.4,6.6,24.8c2.4,12.2-106.1,67.1-115.8,57.3c-7.2-7.2,11.7-29.2,29.4-50.5  C2028.8,1822.2,2054,1828.9,2098.6,1784.4z"/>
<g xmlns="http://www.w3.org/2000/svg">
	<path class="st8" d="M2238.6,781.5c0,0,91.5-37.2,62.4-145.7c0,0-67.2-70.7-126.6-36c-59.4,34.7-47.2,95.7-45.6,103.6   C2130.4,711.3,2238.6,781.5,2238.6,781.5z"/>
	<path class="st4" d="M2213.1,603.8c38.5,2.7,69.3,34.3,71.2,72.9c0.6,12.7-1.9,24.7-6.7,35.4c-10.7,26.7-19.6,48.2-30.6,63.8   c-11.1,15.8-16.3,35.1-13.6,54.3l2.7,19.4c-44.8,22.1-64.3,5.9-64.3,5.9l0.3-50.9l0,0c-48.3-6-41.4-95.2-41.3-121.5l0.1,0   c0-1-0.1-2-0.1-3C2131,635.9,2168.4,600.6,2213.1,603.8z"/>
	<path class="st8" d="M2269.9,737.6c-8.2,13-29.6-84.7-76-89.2c-46.4-4.5-63.5,62.9-63.5,62.9s-10.4-38.6,7.1-68.8   c17.5-30.2,62.6-59.4,108.4-35.4C2291.6,631.1,2309.2,675.3,2269.9,737.6z"/>
	<path class="st8" d="M2264.3,612.4c2-19.4,19.4-33.5,38.8-31.5c19.4,2,33.5,19.4,31.5,38.8c-2,19.4-19.4,33.5-38.8,31.5   C2276.4,649.2,2262.3,631.8,2264.3,612.4z"/>
	<path class="st4" d="M2254.1,733.4c1.3-2.5,3.4-4.4,6-5.4c5.3-2.1,14.7-4.4,21.1,2.1c9.4,9.5-9.7,34.4-28.4,21.9   C2252.7,752,2247.4,746.6,2254.1,733.4z"/>
</g>
<path xmlns="http://www.w3.org/2000/svg" class="st4" d="M1926,841.3c4.8-5.4,18.3-1.8,22-7.9c3.2-2.7,6.3-5.4,9.4-8.3c1.8-1.8,3.4-3.7,4.8-5.7  c3.9,6.9,11.1,17.3,11.1,17.3s-8.5-32.4-1.8-31.1c6.7,1.3,14,24.3,15.8,36c1.8,11.7,3.8,47.8,3.8,47.8l-27.7,11.7  c-15.6-9.9-29.2-27.3-37.5-42.1C1929.3,856.8,1923.2,844.5,1926,841.3z"/>
<g xmlns="http://www.w3.org/2000/svg">
	<polygon class="st9" points="1897.9,866.2 1926.3,878.9 1929.2,880.2 1957.6,892.9 1932.5,872.8 1929.6,871.5  "/>
	
		<rect x="1943.7" y="799.8" transform="matrix(0.9132 0.4076 -0.4076 0.9132 510.576 -720.4581)" class="st9" width="5.1" height="76.6"/>
	<path class="st9" d="M2021.6,761.5l-68.6-30.6l-12,26.8c-8.5,18.9,0,41.2,19,49.6h0c18.9,8.5,41.2,0,49.6-19L2021.6,761.5z"/>
	<path class="st8" d="M1961.7,803.5L1961.7,803.5c-17.3-7.7-25.1-28-17.4-45.4l8.5-19l62.7,28l-8.5,19   C1999.3,803.5,1979,811.3,1961.7,803.5z"/>
</g>
<path xmlns="http://www.w3.org/2000/svg" class="st13" d="M1959.8,813.9c0,0,13.5,28.6,9.7,31c-3.8,2.4-19.3-17.4-19.1-17c0.1,0.4,12.9,23.6,9,28.6  c-3.9,4.9-20.7-18.6-20.7-18.6s13.5,20.9,10.7,24.2c-2.8,3.2-18-15.4-19.3-14.4c-1.3,1,12.9,16,9.6,20.2  c-3.4,4.2-24.2-16.3-22.9-22.2c1.3-5.9,7.5-5.9,7.5-5.9s3.3-9.6,8.8-10.3c0,0,8.9-10.7,14.3-7.8  C1947.2,821.7,1950.4,809.9,1959.8,813.9z"/>
<path xmlns="http://www.w3.org/2000/svg" class="st14" d="M2750.9,769.2c35.3,7.3,67.2,32.8,70.8,88.3c3.4,52.5-25.3,104.5-11.1,156.6c14.6,53.4,56.2,71.7,41,137.8  c-5.4,23.5-14.1,46.5-13.7,71.2c0.9,51.8,37.1,83.4,54.8,124c22.8,52.4,14.4,124.6-16,167.7c-57.7,81.9-155.7,52.5-228.5,44.7  c-42.3-4.5-80.5-34.8-91.1-96.2c-12.3-71.3,19.9-105.6,40-162c19.6-54.9-4.5-119.5-5.1-180.8c-0.6-68.5,38.9-106.1,46.2-169.1  c5.3-45.5-13.1-92.4,5.2-135.4c9.7-22.8,27.6-36.8,46-42.9C2707.6,766.9,2729.9,764.8,2750.9,769.2z"/>
<rect xmlns="http://www.w3.org/2000/svg" x="2725.8" y="1097.2" class="st9" width="8.4" height="646.6"/>
<rect xmlns="http://www.w3.org/2000/svg" x="2690.3" y="1224.2" transform="matrix(0.9095 -0.4156 0.4156 0.9095 -300.5169 1238.4261)" class="st9" width="8.4" height="170.7"/>
<rect xmlns="http://www.w3.org/2000/svg" x="2703.7" y="1444.9" transform="matrix(0.5712 -0.8208 0.8208 0.5712 -3.8309 2890.8401)" class="st9" width="122.3" height="8.4"/>
<path xmlns="http://www.w3.org/2000/svg" class="st9" d="M2808.8,1853.9h-161.6c-2.2,0-4-1.8-4-4V1720h169.5v129.9C2812.8,1852.1,2811,1853.9,2808.8,1853.9z"/>
<g xmlns="http://www.w3.org/2000/svg">
	<g>
		<path class="st9" d="M303.3,1688.5c0.1,0,0.2,0,0.3,0c0.8-0.2,1.3-1,1.1-1.8c-54.2-209.2-105.2-357.4-143.5-417.3    c-0.9-1.3-1.5-2.3-1.7-2.8c-0.4-0.7-1.3-1.1-2-0.7c-0.7,0.4-1.1,1.3-0.7,2c0.3,0.7,0.9,1.6,1.9,3.1    c38.1,59.6,89,207.5,143.1,416.4C302,1688.1,302.6,1688.6,303.3,1688.5z"/>
		<path class="st9" d="M133.3,1257.6c4.6,6.7,28.3,19.7,30.2,18.4s-1.3-28.1-5.8-34.9c-4.6-6.7-13.7-8.5-20.4-3.9    C130.5,1241.8,128.8,1250.9,133.3,1257.6z"/>
		<path class="st9" d="M179.2,1279.3c-2.7,7.9,1.3,35.2,3.6,36c2.2,0.8,22.2-18.4,24.9-26.2c2.7-7.9-1.5-16.4-9.4-19.1    C190.5,1267.3,181.9,1271.5,179.2,1279.3z"/>
		<path class="st9" d="M148.6,1325.7c8.3,0.9,34-9.2,34.2-11.6c0.2-2.4-22.9-17.5-31.1-18.4c-8.3-0.9-15.7,5.2-16.5,13.4    C134.3,1317.4,140.3,1324.8,148.6,1325.7z"/>
		<path class="st9" d="M245,1419.1c-5.9,12.6-4.1,59-0.5,60.7c3.6,1.7,40.4-26.6,46.3-39.2c5.9-12.6,0.5-27.7-12.2-33.6    S250.9,1406.5,245,1419.1z"/>
		<path class="st9" d="M185.4,1491c13.6,2.9,58.4-9.2,59.2-13.1s-35-33.3-48.7-36.3c-13.6-2.9-27.1,5.8-30,19.4    C163.1,1474.6,171.8,1488.1,185.4,1491z"/>
		<path class="st9" d="M279.2,1472.3c-10.5,13.5-20.8,69.3-17,72.3c3.8,3,55.4-20.9,65.8-34.4c10.5-13.5,8-32.9-5.5-43.4    C309.1,1456.3,289.7,1458.8,279.2,1472.3z"/>
		<path class="st9" d="M194.4,1566c17,1.8,69.9-18.6,70.5-23.4c0.5-4.8-46.8-36.2-63.8-38c-17-1.8-32.2,10.4-34.1,27.4    C165.2,1548.9,177.5,1564.2,194.4,1566z"/>
		<path class="st9" d="M299.1,1540.6c-10.5,13.5-20.8,69.3-17,72.3c3.8,3,55.4-20.9,65.8-34.4c10.5-13.5,8-32.9-5.5-43.4    C329,1524.6,309.5,1527.1,299.1,1540.6z"/>
		<path class="st9" d="M214.3,1634.3c17,1.8,69.9-18.6,70.5-23.4c0.5-4.8-46.8-36.2-63.8-38c-17-1.8-32.2,10.4-34.1,27.4    C185,1617.2,197.3,1632.5,214.3,1634.3z"/>
		<path class="st9" d="M345,1627.2c-14.8,8.5-45.7,56.1-43.2,60.4c2.4,4.2,59.1,1.8,74-6.7c14.8-8.5,20-27.4,11.5-42.2    C378.7,1623.9,359.8,1618.7,345,1627.2z"/>
		<path class="st9" d="M231.5,1701.8c16.6,3.9,71.7-9.7,72.8-14.5c1.1-4.7-41.9-41.7-58.5-45.7c-16.6-3.9-33.3,6.3-37.2,22.9    C204.7,1681.2,214.9,1697.8,231.5,1701.8z"/>
		<path class="st9" d="M199.5,1322.9c-2.7,8,1.4,35.8,3.6,36.6c2.3,0.8,22.6-18.6,25.3-26.6s-1.5-16.7-9.5-19.4    C210.9,1310.6,202.2,1314.9,199.5,1322.9z"/>
		<path class="st9" d="M169.4,1370.5c8.4,0.9,34.5-9.4,34.8-11.8c0.2-2.4-23.2-17.8-31.6-18.6c-8.4-0.9-15.9,5.2-16.8,13.6    C154.9,1362.1,161,1369.6,169.4,1370.5z"/>
		<path class="st9" d="M223,1363.5c-4.8,11-2.3,50.8,0.9,52.2c3.1,1.4,34.1-23.8,38.9-34.8s-0.2-23.8-11.2-28.6    C240.6,1347.5,227.8,1352.5,223,1363.5z"/>
		<path class="st9" d="M174.8,1431c11.9,1.2,49.1-13.3,49.4-16.7c0.4-3.4-33-25.3-45-26.5c-11.9-1.2-22.6,7.4-23.8,19.4    C154.2,1419.1,162.9,1429.8,174.8,1431z"/>
	</g>
	<g>
		<path class="st14" d="M332.4,1708c-0.1,0-0.2,0-0.3,0c-0.9-0.1-1.6-1-1.5-1.9c29.4-241.2,64.1-413.9,97.9-486.3    c0.8-1.6,1.3-2.8,1.5-3.3c0.3-0.9,1.2-1.4,2.1-1.1c0.9,0.3,1.4,1.2,1.1,2.1c-0.2,0.8-0.8,1.9-1.6,3.7    c-33.6,72.1-68.3,244.4-97.6,485.3C333.8,1707.3,333.2,1707.9,332.4,1708z"/>
		<path class="st14" d="M457.8,1202.6c-4.1,8.2-28.6,26.1-30.9,25c-2.3-1.2-2.8-31.5,1.3-39.7c4.1-8.2,14-11.5,22.2-7.4    C458.6,1184.5,461.9,1194.4,457.8,1202.6z"/>
		<path class="st14" d="M409.9,1233.6c4.2,8.4,3.7,39.4,1.4,40.6c-2.4,1.2-27.5-17.2-31.6-25.5c-4.2-8.4-0.8-18.5,7.6-22.7    C395.6,1221.8,405.7,1225.2,409.9,1233.6z"/>
		<path class="st14" d="M450.9,1280.7c-9.1,2.2-39.3-5.2-39.9-7.8c-0.6-2.6,22.9-22.9,32-25.1c9.1-2.2,18.2,3.4,20.4,12.5    C465.6,1269.4,460,1278.5,450.9,1280.7z"/>
		<path class="st14" d="M357.4,1399.2c8.5,13.2,13.4,65.1,9.6,67.5c-3.8,2.4-48.9-23.7-57.4-36.9c-8.5-13.2-4.6-30.8,8.6-39.2    C331.3,1382.1,348.9,1386,357.4,1399.2z"/>
		<path class="st14" d="M434.4,1470.4c-14.8,5.3-66.5-1.6-68-5.8c-1.5-4.2,34.1-42.3,48.8-47.6s31,2.4,36.3,17.2    C456.8,1448.8,449.2,1465.1,434.4,1470.4z"/>
		<path class="st14" d="M327.1,1463.4c13.7,13.5,33.5,74.1,29.7,78c-3.8,3.9-64.8-15.1-78.5-28.5c-13.7-13.5-13.8-35.5-0.4-49.1    C291.4,1450.1,313.4,1450,327.1,1463.4z"/>
		<path class="st14" d="M435.5,1555.3c-18.6,4.6-80.7-10.4-82-15.7c-1.3-5.3,46.8-47.3,65.4-51.8c18.6-4.6,37.5,6.8,42,25.5    C465.5,1531.9,454.1,1550.7,435.5,1555.3z"/>
		<path class="st14" d="M315.1,1542.5c13.7,13.5,33.5,74.1,29.7,78c-3.8,3.9-64.8-15.1-78.5-28.5c-13.7-13.5-13.8-35.5-0.4-49.1    C279.5,1529.2,301.5,1529,315.1,1542.5z"/>
		<path class="st14" d="M423.5,1634.4c-18.6,4.6-80.7-10.4-82-15.7c-1.3-5.3,46.8-47.3,65.4-51.8c18.6-4.6,37.5,6.8,42,25.5    C453.6,1611,442.2,1629.8,423.5,1634.4z"/>
		<path class="st14" d="M276.8,1645.9c17.8,7.3,59.2,55.8,57.1,60.8c-2.1,5.1-65.6,10.8-83.4,3.5c-17.8-7.3-26.3-27.5-19-45.3    S259.1,1638.6,276.8,1645.9z"/>
		<path class="st14" d="M414.3,1712.1c-17.9,6.9-81.4-0.2-83.3-5.3c-2-5.1,40.5-52.7,58.4-59.6c17.9-6.9,38,2.1,44.9,20    C441.2,1685.2,432.2,1705.3,414.3,1712.1z"/>
		<path class="st14" d="M393.8,1285.1c4.2,8.5,3.8,40.1,1.4,41.3c-2.4,1.2-27.9-17.4-32.1-25.9c-4.2-8.5-0.8-18.8,7.7-23.1    C379.2,1273.2,389.5,1276.6,393.8,1285.1z"/>
		<path class="st14" d="M434.3,1333.8c-9.2,2.2-39.9-5.3-40.5-8c-0.6-2.6,23.3-23.3,32.5-25.5c9.2-2.2,18.5,3.5,20.7,12.7    C449.3,1322.3,443.6,1331.5,434.3,1333.8z"/>
		<path class="st14" d="M373.6,1333.8c7,11.5,10.1,56.3,6.8,58.3c-3.3,2-41.5-21.4-48.5-33c-7-11.5-3.3-26.5,8.2-33.5    C351.6,1318.6,366.6,1322.3,373.6,1333.8z"/>
		<path class="st14" d="M437.3,1402c-13.1,3.1-56.7-7.6-57.6-11.3c-0.9-3.7,33.1-33,46.2-36.2c13.1-3.1,26.3,4.9,29.4,18    C458.5,1385.6,450.4,1398.8,437.3,1402z"/>
	</g>
	<g>
		<path class="st2" d="M369.2,1706.8c-0.1,0-0.1,0-0.2-0.1c-0.5-0.2-0.7-0.8-0.5-1.3c60.8-133.8,112.2-227.1,144.9-262.7    c0.7-0.8,1.2-1.4,1.5-1.7c0.3-0.5,1-0.6,1.4-0.2c0.5,0.3,0.6,1,0.2,1.4c-0.3,0.4-0.8,0.9-1.6,1.9    c-32.5,35.5-83.8,128.6-144.5,262.1C370.2,1706.7,369.7,1706.9,369.2,1706.8z"/>
		<path class="st2" d="M533.5,1438.2c-3.8,4-21.2,9.9-22.4,8.8c-1.1-1.1,4.1-18.7,8-22.7c3.8-4,10.2-4.1,14.1-0.3    C537.2,1427.9,537.3,1434.2,533.5,1438.2z"/>
		<path class="st2" d="M500.2,1447.3c0.9,5.6-5,23.4-6.6,23.7c-1.6,0.3-12.7-14.9-13.6-20.5c-0.9-5.6,2.9-10.8,8.5-11.7    C494,1437.9,499.3,1441.7,500.2,1447.3z"/>
		<path class="st2" d="M515.3,1482c-5.6-0.4-21.7-10.2-21.6-11.8c0.1-1.6,17.4-9,23-8.6c5.6,0.4,9.9,5.3,9.5,10.9    C525.8,1478.1,520.9,1482.3,515.3,1482z"/>
		<path class="st2" d="M439.8,1533.3c2.5,9.2-4.1,40-6.7,40.7c-2.6,0.7-23.9-22.5-26.4-31.7c-2.5-9.2,2.9-18.6,12.1-21.1    C427.9,1518.7,437.3,1524.1,439.8,1533.3z"/>
		<path class="st2" d="M471.3,1588.3c-9.5,0.4-38-13-38.1-15.7c-0.1-2.7,27.3-18.2,36.8-18.6c9.5-0.4,17.5,7,17.8,16.5    C488.1,1580,480.7,1588,471.3,1588.3z"/>
		<path class="st2" d="M410.6,1564.8c5.4,10.3,5.8,48.8,2.9,50.4c-2.9,1.6-34.6-20.5-40.1-30.7s-1.5-23,8.7-28.4    C392.5,1550.7,405.2,1554.6,410.6,1564.8z"/>
		<path class="st2" d="M456.5,1637.5c-11.6-0.8-44.7-20.6-44.4-23.9c0.2-3.3,35.6-18.7,47.2-18c11.6,0.8,20.4,10.8,19.6,22.3    C478,1629.5,468,1638.3,456.5,1637.5z"/>
		<path class="st2" d="M389.4,1608.3c5.4,10.3,5.8,48.8,2.9,50.4c-2.9,1.6-34.6-20.5-40.1-30.7c-5.4-10.3-1.5-23,8.7-28.4    C371.2,1594.1,383.9,1598,389.4,1608.3z"/>
		<path class="st2" d="M435.2,1681c-11.6-0.8-44.7-20.6-44.4-23.9c0.2-3.3,35.6-18.7,47.2-18c11.6,0.8,20.4,10.8,19.6,22.3    C456.8,1672.9,446.8,1681.7,435.2,1681z"/>
		<path class="st2" d="M348.5,1660.9c8.9,7.4,24,42.9,21.9,45.5c-2.1,2.5-39.8-5.7-48.7-13.1c-8.9-7.4-10.2-20.7-2.7-29.6    C326.3,1654.7,339.6,1653.5,348.5,1660.9z"/>
		<path class="st2" d="M415.7,1724.1c-11.6,0.7-46.9-14.9-47.1-18.2c-0.2-3.3,33-23,44.5-23.8c11.6-0.7,21.5,8.1,22.2,19.7    C436.1,1713.5,427.3,1723.4,415.7,1724.1z"/>
		<path class="st2" d="M481.5,1474.1c0.9,5.7-5.1,23.8-6.7,24.1c-1.6,0.3-12.9-15.1-13.8-20.8c-0.9-5.7,3-11,8.6-11.9    C475.3,1464.6,480.6,1468.4,481.5,1474.1z"/>
		<path class="st2" d="M496.1,1509.5c-5.7-0.4-22-10.3-21.9-12c0.1-1.6,17.6-9.2,23.4-8.8c5.7,0.4,10,5.4,9.6,11.1    C506.8,1505.6,501.8,1509.9,496.1,1509.5z"/>
		<path class="st2" d="M461,1498.5c1.9,7.9-4.4,34.3-6.7,34.8c-2.3,0.6-20.1-19.9-22-27.8c-1.9-7.9,2.9-15.9,10.8-17.8    C451.1,1485.8,459.1,1490.6,461,1498.5z"/>
		<path class="st2" d="M485.4,1549.4c-8.1-0.6-31.3-14.7-31.1-17c0.2-2.3,25.1-13.1,33.2-12.5c8.1,0.6,14.3,7.6,13.7,15.8    C500.6,1543.8,493.5,1550,485.4,1549.4z"/>
	</g>
	<path class="st9" d="M353,1844.5h-27.7c-49.5,0-89.6-40.1-89.6-89.6V1703h206.9v51.9C442.6,1804.4,402.5,1844.5,353,1844.5z"/>
</g>
<path xmlns="http://www.w3.org/2000/svg" class="st0" d="M2111.4,325.9h-291.3c-42,0-76.1,34.1-76.1,76.1v31.4h443.5V402C2187.5,359.9,2153.5,325.9,2111.4,325.9z"/>
<path xmlns="http://www.w3.org/2000/svg" class="st0" d="M1369.3,325.9h-270.8c-47.7,0-86.3,38.7-86.3,86.3v21.1h443.5v-21.1C1455.6,364.5,1417,325.9,1369.3,325.9z"/>
<rect xmlns="http://www.w3.org/2000/svg" x="1213.8" y="188.7" class="st0" width="10" height="191"/>
<rect xmlns="http://www.w3.org/2000/svg" x="1960.7" y="77" class="st0" width="10" height="273.6"/>
<path xmlns="http://www.w3.org/2000/svg" class="st4" d="M1174.6,1070.2c-2.1-6.9-16-9.1-16.9-16.2c-1.8-3.7-3.6-7.5-5.2-11.4c-1-2.4-1.6-4.8-2-7.2  c-6.3,4.7-17.2,11.3-17.2,11.3s20.9-26.1,14.3-27.7c-6.7-1.5-22.7,16.5-29.1,26.5c-6.4,10-22.9,42.2-22.9,42.2l20.6,21.9  c18.3-2.7,37.8-13,51.4-23.2C1165.2,1083,1175.8,1074.3,1174.6,1070.2z"/>
<g xmlns="http://www.w3.org/2000/svg">
	<polygon class="st9" points="1190.1,1104.4 1159,1104.4 1155.8,1104.4 1124.6,1104.4 1155.8,1096.3 1159,1096.3  "/>
	
		<rect x="1154.8" y="1020.7" transform="matrix(-1 -1.224647e-16 1.224647e-16 -1 2314.7441 2118.0732)" class="st9" width="5.1" height="76.6"/>
	<path class="st9" d="M1119.8,958.3h75.1v29.3c0,20.7-16.8,37.6-37.6,37.6l0,0c-20.7,0-37.6-16.8-37.6-37.6V958.3z"/>
	<path class="st8" d="M1157.4,1021.2L1157.4,1021.2c19,0,34.3-15.4,34.3-34.3V966H1123v20.8   C1123,1005.8,1138.4,1021.2,1157.4,1021.2z"/>
</g>
<path xmlns="http://www.w3.org/2000/svg" class="st13" d="M1154.9,1031.4c0,0-24,20.6-21.5,24.4c2.5,3.7,24.7-8,24.4-7.7c-0.3,0.3-21.4,16.4-19.8,22.4  s26.5-8.6,26.5-8.6s-20.9,13.6-19.6,17.7c1.3,4.1,22.7-6.7,23.5-5.3s-18.3,9.4-17,14.5c1.4,5.2,28.8-5,30-10.9  c1.2-5.9-4.4-8.4-4.4-8.4s1-10.1-3.8-13c0,0-3.7-13.4-9.9-12.9C1163.2,1043.6,1165.1,1031.6,1154.9,1031.4z"/>
<path xmlns="http://www.w3.org/2000/svg" class="st4" d="M960.4,1543.7c0,0-18,230.6,6.5,255.1c24.5,24.5,60.5,47.4,63.8,62.1c3.3,14.7-106.3-1.6-116.1-16.4  c-9.8-14.7-8.2-39.3-18-107.9c-9.8-68.7-24.5-193-24.5-193H960.4z"/>
<path xmlns="http://www.w3.org/2000/svg" class="st7" d="M1030.7,1861c-2.2-10-19.6-23.8-38.2-39.4c-4.1,31.5-65.9-0.8-87.2-12.9c2.1,17.9,4.1,28.2,9.3,35.9  C924.4,1859.3,1034,1875.7,1030.7,1861z"/>
<path xmlns="http://www.w3.org/2000/svg" class="st4" d="M1098.4,1543.7c0,0-18,230.6,6.5,255.1s60.5,47.4,63.8,62.1c3.3,14.7-106.3-1.6-116.1-16.4  c-9.8-14.7-8.2-39.3-18-107.9c-9.8-68.7-24.5-193-24.5-193H1098.4z"/>
<path xmlns="http://www.w3.org/2000/svg" class="st7" d="M1168.7,1861c-2.2-10-19.6-23.8-38.2-39.4c-4.1,31.5-65.9-0.8-87.2-12.9c2.1,17.9,4.1,28.2,9.3,35.9  C1062.4,1859.3,1172,1875.7,1168.7,1861z"/>
<path xmlns="http://www.w3.org/2000/svg" class="st5" d="M634.2,1230.9c0,0-11.1,114.4,34.9,141.4c46.1,27,180.4,60.4,187.5,83.6c7.1,23.1,10.3,161.3,10.3,161.3  s114.3,32.8,244.2-17.4c0,0,0-218.8-37.3-250.7c-78.2-66.8-192.8-105.4-192.8-105.4L634.2,1230.9z"/>
<path xmlns="http://www.w3.org/2000/svg" class="st4" d="M762.3,1299c0,0,28.8,14.8,38.1,22.5c9.2,7.7,23.9,8.2,21.5,14.8c-2.4,6.5-24.5,0-24.5,0s9.6,22.4,13.6,28.9  c4,6.4,8.2,19.8,3.7,23.1c-4.5,3.3-21.5-29-21.5-29s11.7,28.6,8.2,32.5c-3.5,3.9-23.7-30.3-23.7-30.3s14,29.9,13,33.2  s-5.2,2.2-12.7-7.2c-7.5-9.4-12.8-20.9-12.8-20.9s8.2,21.8,8.3,24.7c0.1,3-2,7.1-11.6-8c-9.7-15.1-25.2-51.1-25.7-72.3L762.3,1299z"/>
<path xmlns="http://www.w3.org/2000/svg" class="st7" d="M920.5,839.5c-11.9-8.6-25.4-17.4-29.7-31.4c-6.7-21.5,11.2-45.1,4-66.4c-5.7-17-24.7-25.5-34.5-40.5  c-9-13.8-9.1-31.4-14.4-47c-17.2-51-76-60.7-120.5-43c-6.7,2.7-13.1,6-19,9.9c-19.7,13-34.7,34.1-37,57.6  c-1.6,16.4,2.7,35.2-8.5,49.1c-10.4,12.8-28.1,14.2-42.1,20.6c-15.1,6.9-28.5,20.8-32.3,37.3c-4.5,19.6,3.9,42.8-8.3,58.8  c-8.7,11.4-23.9,14.1-35.7,21.1c-13.2,7.8-24.1,19.9-29.3,34.5c-9.2,25.5,1.2,57.2,26.2,69.4c12.5,6.1,27,6.8,40.9,6.2  c26.7-1.2,53.1-7.1,77.8-17.3c24.2-10,47.4-24.3,73.4-26.9c22.6-2.2,44.9,4.7,67.3,8.5c22.1,3.7,45,4.5,65.6,13.2  c9.2,3.9,17.7,9.3,27,12.9c9.3,3.6,19.9,5.3,29.2,1.5c9.2-3.8,16.2-14.3,13.3-23.8c-1.3-4.3-4.4-8-6-12.2  c-7.3-19.1,16.9-36.8,16.9-57.2C944.7,859.6,932.4,848.1,920.5,839.5z"/>
<path xmlns="http://www.w3.org/2000/svg" class="st0" d="M748.5,838.8c0,0-107.3,30.9-135.9,65.6c-28.6,34.7-50.5,191-40.9,237.1c9.6,46.1,156.9,194.8,156.9,194.8  l52.1-42.9l-21.2-39.4c0,0,89.3,20.5,145.9,0l-2.6-107.6c0,0,12.3,29.6,54,38.9c44.4,10,165.9-62.8,165.9-62.8l-33.4-64.4  c0,0-113.4,48.4-126,17.5c-19.1-46.6-4.3-119.4-72.1-190.6C858.1,850.2,748.5,838.8,748.5,838.8z"/>
<path xmlns="http://www.w3.org/2000/svg" class="st8" d="M902.9,1147.7c-0.7,0-1.3-0.6-1.3-1.3l-2.6-76.2c0-0.2,0.1-0.5,0.2-0.7c0.1-0.2,13.3-24.4,13.3-48.2  c0-23.6-26.3-50.2-26.6-50.5c-0.5-0.5-0.5-1.4,0-1.9c0.5-0.5,1.4-0.5,1.9,0c1.1,1.1,27.4,27.7,27.4,52.4c0,23.2-11.8,46-13.5,49.2  l2.6,75.8C904.2,1147.1,903.7,1147.7,902.9,1147.7C902.9,1147.7,902.9,1147.7,902.9,1147.7z"/>
<path xmlns="http://www.w3.org/2000/svg" class="st8" d="M759.5,1255.3c-0.4,0-0.8-0.2-1.1-0.6l-77.9-110.6c-3.6-5.1-5.3-11.4-4.7-17.7l12-135.4  c0.1-0.7,0.6-1.3,1.5-1.2c0.7,0.1,1.3,0.7,1.2,1.5l-12,135.4c-0.5,5.6,1,11.3,4.3,15.9l77.9,110.6c0.4,0.6,0.3,1.4-0.3,1.9  C760.1,1255.2,759.8,1255.3,759.5,1255.3z"/>
<path xmlns="http://www.w3.org/2000/svg" class="st4" d="M839.4,718.5c0,0,6.2-8.9,10.9-5.1c11.9,9.7-1.5,21.9-9.6,24.4L839.4,718.5z"/>
<path xmlns="http://www.w3.org/2000/svg" class="st4" d="M765.7,606.8c-37.1,1.6-67.6,31.2-70.4,68.2c-0.9,12.2,1.2,23.8,5.5,34.2c9.6,26,17.6,46.9,27.7,62.2  c10.3,15.5,14.7,34.2,11.7,52.6l-3.1,18.6c42.5,22.5,61.7,5,61.7,5l1.1-46.6l0,0c46.6-4.5,42.4-90.5,43-115.8l-0.1,0  c0.1-1,0.1-1.9,0.1-2.9C843.9,639.8,808.8,604.9,765.7,606.8z"/>
<path xmlns="http://www.w3.org/2000/svg" class="st7" d="M758.7,681.8c-9.3,9-17.4,19.1-25.5,29.2c-8.6,10.7-17.4,22-19.6,35.5c-11.8-9.4-19.2-23.2-25.3-36.9  c-2.9-6.4-5.6-12.9-6.4-19.9c-1.2-9.8,1.5-19.7,4.1-29.2c3.4-12.3,7-25.1,15.7-34.5c5.7-6.2,13.3-10.5,21-13.9  c18.1-7.9,38.3-11.6,57.8-8.4c19.5,3.2,38.1,13.6,49.4,29.7c14.5,20.8,15.6,47.9,16.1,73.3c-2.3-10.6-9.1-19.6-15.7-28.2  c-4.3-5.6-8.7-11.3-14.6-15.2c-10-6.6-12.9-5.3-30.5-17.8C780.3,661.2,770.3,670.6,758.7,681.8z"/>
<path xmlns="http://www.w3.org/2000/svg" class="st4" d="M722.9,730.4c-1.1-2.4-3.2-4.3-5.6-5.3c-5.1-2.2-14-4.6-20.3,1.4c-9.3,8.9,8.4,33.4,26.8,21.8  C723.7,748.3,728.9,743.3,722.9,730.4z"/>
<g xmlns="http://www.w3.org/2000/svg">
	<path class="st12" d="M1366,1024.9v-73.8h-17.9v73.8h0c-14.2,3.9-24.1,16.8-24.1,31.6v127.3h66v-127.3   C1390.1,1041.7,1380.2,1028.8,1366,1024.9L1366,1024.9z"/>
	<rect x="1324.1" y="1083.4" class="st15" width="66" height="30.7"/>
</g>
</svg>