<svg xmlns="http://www.w3.org/2000/svg" xmlns:xlink="http://www.w3.org/1999/xlink" version="1.1" id="Layer_1" x="0px" y="0px" viewBox="0 0 595.3 582.4" style="enable-background:new 0 0 595.3 582.4;" xml:space="preserve">
<style xmlns="http://www.w3.org/2000/svg" type="text/css">
	.st0{fill:#F1F1F1;}
	.st1{opacity:0.63;fill:#A8A8A8;enable-background:new    ;}
	.st2{fill:#FFFFFF;}
	.st3{fill:#ffbe55;}
	.st4{fill:#FACBB6;}
	.st5{fill:#01384F;}
	.st6{fill:#004970;}
	.st7{fill:#181E22;}
	.st8{fill:#F1C4B2;}
	.st9{fill:#020102;}
	.st10{fill:none;stroke:#000000;stroke-width:0.4479;stroke-linecap:round;stroke-linejoin:round;stroke-miterlimit:10;}
	.st11{fill:#2A94F4;}
	.st12{fill:none;stroke:#D9D9D9;stroke-width:0.4788;stroke-miterlimit:10;}
	.st13{fill:#FDE6CF;}
	.st14{fill:#183F71;}
	.st15{fill:#07488C;}
	.st16{fill:#EEC2B0;}
	.st17{fill:#F19180;}
	.st18{fill:#1E3058;}
	.st19{fill:#ffbe55;stroke:#FFFFFF;stroke-width:1.062;stroke-miterlimit:10;}
	.st20{fill:#F9B03D;}
	.st21{fill:#FBC36B;}
	.st22{fill:#EFC5B4;}
	.st23{fill:#CDEAFB;}
	.st24{fill:#F6B69A;}
	.st25{fill:#A9CCEA;}
	.st26{fill:#0E2537;}
	.st27{fill:#0B344C;}
	.st28{fill:#D9D9D9;}
</style>
<g xmlns="http://www.w3.org/2000/svg">
	<rect x="64.9" y="426.8" class="st0" width="482.9" height="39.8"/>
	<rect x="64.9" y="417" class="st1" width="482.9" height="24.1"/>
	<g>
		<rect x="309.9" y="104" class="st0" width="237.8" height="186.4"/>
		<polygon class="st2" points="337.7,290.4 309.9,290.4 472.2,104 500,104   "/>
		<polygon class="st2" points="385.5,290.4 371.6,290.4 533.9,104 547.8,104   "/>
	</g>
	<g>
		<rect x="64.9" y="104" class="st0" width="185.1" height="186.4"/>
		<polygon class="st2" points="202.2,104 124,193.9 64.9,261.7 64.9,229.9 124,162 174.5,104   "/>
		<polygon class="st2" points="87.7,290.4 73.9,290.4 236.2,104 250,104   "/>
	</g>
</g>
<g xmlns="http://www.w3.org/2000/svg">
	<g>
		<g>
			<g>
				<g>
					<g>
						<path class="st3" d="M224.4,169.9l-36.1,0.3c-0.9,0-1.7-0.7-1.7-1.6l-0.1-12.6c0-0.9,0.7-1.7,1.6-1.7l36.1-0.3        c0.9,0,1.7,0.7,1.7,1.6l0.1,12.6C226,169.1,225.3,169.9,224.4,169.9z"/>
						<path class="st3" d="M200.2,166.8l3.9,7.4c0.5,0.9,1.8,1,2.3,0.1l4.5-7.5L200.2,166.8z"/>
					</g>
				</g>
			</g>
			<g>
				<path class="st2" d="M198.5,162.1c0,0.9-0.7,1.6-1.6,1.6c-0.9,0-1.6-0.7-1.6-1.6c0-0.9,0.7-1.6,1.6-1.6      C197.8,160.6,198.5,161.3,198.5,162.1z"/>
				<path class="st2" d="M207.9,162.1c0,0.9-0.7,1.6-1.6,1.6c-0.9,0-1.6-0.7-1.6-1.6c0-0.9,0.7-1.6,1.6-1.6      C207.1,160.5,207.8,161.2,207.9,162.1z"/>
				<path class="st2" d="M217.2,162c0,0.9-0.7,1.6-1.6,1.6c-0.9,0-1.6-0.7-1.6-1.6c0-0.9,0.7-1.6,1.6-1.6      C216.5,160.4,217.2,161.1,217.2,162z"/>
			</g>
		</g>
	</g>
	<g>
		<g>
			<g>
				<g>
					<polygon class="st4" points="154.8,433.1 152.3,409.5 137.7,408.8 140.3,434.7 152.2,434.7      "/>
					<g>
						<path class="st5" d="M138.4,427.6c0,0,12.6,5.2,18.4-3.4l27.2,16.1l-49.3,0.3L138.4,427.6z"/>
						
							<rect x="134.7" y="440.5" transform="matrix(1 -7.081653e-03 7.081653e-03 1 -3.1321 1.1397)" class="st5" width="49.3" height="4.7"/>
					</g>
				</g>
				<g>
					<g>
						<path class="st5" d="M122.4,263.3l11.1,154.6l22.9-0.2c0,0-1-95.9-10.1-155.9L122.4,263.3z"/>
					</g>
				</g>
			</g>
			<g>
				<g>
					<polygon class="st4" points="120.3,433.3 120.7,409.7 106.2,409 105.8,435 117.7,434.9      "/>
					<g>
						<path class="st5" d="M103.9,427.8c0,0,12.6,5.2,18.4-3.4l27.2,16.1l-49.3,0.3L103.9,427.8z"/>
						
							<rect x="100.2" y="440.8" transform="matrix(1 -7.081630e-03 7.081630e-03 1 -3.1347 0.8956)" class="st5" width="49.3" height="4.7"/>
					</g>
				</g>
				<g>
					<path class="st6" d="M144.6,264.8l-9.4-0.3l0-0.7l-35.4-0.2c-3.5,56.7,1.2,154.5,1.2,154.5l26.1-0.2l7.1-134.6L144.6,264.8z"/>
				</g>
			</g>
		</g>
		<g>
			<path class="st7" d="M105.8,156c0,0-0.3-11.4,16.9-12.2c14.9-0.7,16.9,5.5,18.2,9.7c1.3,4.2-16.8,15.6-16.8,15.6L105.8,156z"/>
			<g>
				<g>
					<g>
						<path class="st4" d="M115,194l-0.9-22.9l14.7-0.6l0.9,22.1c0.2,4.1-3,5.9-7.1,6.1l0,0C118.5,198.8,115.1,198,115,194z"/>
					</g>
					<path class="st8" d="M114.1,173.6c0,0-2.1,13.6,15.5,16.9l-0.5-10.5L114.1,173.6z"/>
				</g>
			</g>
			<path class="st9" d="M133.4,147c-5.3,0.1,10.4-0.2,7.7,16.4l-5.2-7.1L133.4,147z"/>
			<path class="st4" d="M126.8,185.9L126.8,185.9c7.9-0.4,14.1-5.4,13.7-13.3l-0.8-15.7c-0.2-3.4-3.1-6.1-6.5-5.9l-16.2,0.8     c-3.4,0.2-6.1,3.1-5.9,6.5l0.6,13.5C112.2,179.6,120.2,186.2,126.8,185.9z"/>
			<path class="st9" d="M112.7,167.3L112.7,167.3c0,0,7.8-5.2,4.4-15.6l-8,0.4c0,0-1.2-1.8-2.8,0.7c-1.6,2.4,2.1,13.8,2.1,13.8     L112.7,167.3z"/>
			<path class="st9" d="M114.9,161.6l2.9-7.9c0,0,19.1,2.4,23.8-3c4.5-5.2,0.8-13-3-13.8c-3-0.6-6.2,2.1-8.5,3.4     c-2.3,1.3-7.7,0.1-9.4,0c-1.6-0.1-8.7-1.5-10.9,5.9c0,0-11.5,4.3,0.4,23.7C110.3,169.9,115,167,114.9,161.6z"/>
			<g>
				<path class="st10" d="M108.2,166.7"/>
				<path class="st10" d="M111.9,169.9"/>
			</g>
			<path class="st9" d="M116.7,160.5c0,0-0.5,10.5,1.8,13.5s3.6-0.1,11.9-1.4c8.3-1.3,10.4,2.5,10.4,2.5s-0.4,10.6-11.3,11.1     c-8.5,0.4-21.2-1.4-19.5-15c1.6-13.5,1-17,1-17L116.7,160.5z"/>
		</g>
		<g>
			<g>
				<path class="st11" d="M132,203c0,0-2.9,6.7,11.5,40.5c0,0,7.2,14.5,10.5,14.9c5.5,0.7,28.2-1,39.8-18l-15.6-13.6L161,236.9      l-10.4-26.2C150.6,210.7,144.5,193.3,132,203z"/>
				<g>
					<path class="st11" d="M114.7,193.6l-20.3,8.5c-1.6,0.7-2.6,2.5-2.4,4.3l7,60.6c0,0,28.1,3.3,49-1.1l-1.7-59       c0.2-1.8-0.5-3.6-1.8-4.9l-14.7-9.5L114.7,193.6z"/>
					<g>
						<polygon class="st4" points="115.1,193.6 125.9,198 130,192.2       "/>
						<path class="st12" d="M142.4,239.4"/>
						<path class="st12" d="M140.4,205.3"/>
					</g>
				</g>
			</g>
			<g>
				<g>
					<path class="st4" d="M136.1,249.5c0,0,4.9,11-16.5,8l-22.1,1.7l1.8-6.7l14.1-1.4l16.6-0.1L136.1,249.5z"/>
					<g>
						<path class="st11" d="M93.6,202.7c0,0-9.8,3-21.6,36.4c0,0-4.4,12.8-2.2,15.3c3.7,4,24.8,10,44.7,5.2l-2.3-10.4l-19.6-3.8        l9.7-25.4C102.3,220.1,109.4,203.7,93.6,202.7z"/>
						<path class="st12" d="M104.7,219.6"/>
						<path class="st12" d="M82.6,247.7"/>
						<line class="st12" x1="114.5" y1="259.6" x2="114.5" y2="259.6"/>
						<path class="st12" d="M98.5,261.9"/>
						<path class="st12" d="M97.1,246.4"/>
						<path class="st12" d="M106,248"/>
					</g>
				</g>
				<g>
					<path class="st3" d="M107.5,251.6l39.1-0.3l0-4.4l-39.1,0.3c-1.2,0-2.2,1-2.2,2.2l0,0C105.3,250.6,106.3,251.6,107.5,251.6z"/>
					<g>
						<path class="st3" d="M141.5,251.3l51.8-0.4c3,0,5.6-2,6.4-4.9l9.8-36.4c0.9-3.2-1.6-6.4-4.9-6.3l-47.6,0.3        c-2,0-3.7,1.4-4.2,3.3L141.5,251.3z"/>
						<path class="st2" d="M173.8,227.4c0,2.7,2.2,4.9,4.9,4.9c2.7,0,4.9-2.2,4.9-4.9c0-2.7-2.2-4.9-4.9-4.9        C176,222.5,173.8,224.7,173.8,227.4z"/>
					</g>
				</g>
			</g>
		</g>
	</g>
</g>
<g xmlns="http://www.w3.org/2000/svg">
	<g>
		<path class="st4" d="M435.5,232l7.2,4.4l-0.6,4.5l5.7,5.4l-7.4,9.2l-17.4-12.5c0,0,4.7-15.7,5.8-15.3    C429.8,228,435.5,232,435.5,232z"/>
		<polygon class="st13" points="425.2,227.6 428.3,250.8 440.4,251.2 443.3,227.6   "/>
		<polyline class="st5" points="422.6,227.9 445.4,227.9 445.4,225.6 443.3,225.6 443.3,222 424.7,224.6 424.7,225.9 422.6,225.9     422.6,228.2   "/>
		<path class="st4" d="M424.2,243.4c-4.2,0.4,1.1-10.8,1.1-10.8s11.4-0.7,11.5-0.2c0.1,0.6,0.1,1.6-0.8,1.8c-0.9,0.2-8,1.1-8,1.1    s7.4,0.3,7.3,1.1c-0.2,1.1-1.1,1.2-3.3,1.6c-1.9,0.3-6,0.4-6,0.4s7.8,0.2,7.7,0.6c-0.2,0.5,0.3,2-2.3,1.7    C425.1,240,424.2,243.4,424.2,243.4z"/>
		<path class="st4" d="M442.5,233.8c0,0,2.7-5.3,6.1-5c0,0-4,4.8-4.6,7.9c-0.5,3.2-0.8,5.4-0.8,5.4h-1.8L442.5,233.8z"/>
	</g>
	<path class="st14" d="M475.5,288.1c0,0-11.6,78.7-6.2,95.4c5.4,16.7,7.5,31.8,7.5,31.8l26.9-7.6c0,0-8.9-39.4-10.3-46.9   c-1.3-7.6,12.5-69,12.5-69L475.5,288.1z"/>
	<path class="st15" d="M488.2,293.8l12.7,126.4h25.8c0,0-8.3-133.8-6.8-135C521.4,284.2,488.2,293.8,488.2,293.8z"/>
	<path class="st15" d="M478.1,216.7c0,0-2.7,42.4-8.6,40.9c-5.9-1.5-21.8-12.6-21.8-12.6l-9.7,10.2c0,0,29.4,31.4,41.5,18.6   C491.6,260.9,478.1,216.7,478.1,216.7z"/>
	<path class="st5" d="M486.1,441.4l-1.7-8.6l18.8-7.2l3,12.7l-1,0.2c-4.2,1.9-24.7,11-27.9,11.2C473.5,450,486.1,441.4,486.1,441.4z   "/>
	<g>
		<path class="st4" d="M530.7,316.9l-2.1,2.8c0,0-1,1.9-3.4,4.8c-0.6,0.8-1.4,1.4-2.2,1.9c-1,0.6-2.4,1.4-3.4,1.6    c-1.1,0.2-1.4,1.7-0.4,2.1c1,0.4,4.1-0.2,7-2.3c3-2.2,1.6,3.3,1.1,5.3c-0.5,2-1.6,8.2-1.1,8.9c0.8,0.9,1.9,0.3,2.4-1.7    c0.4-2,2.1-7.9,3.2-7.6c1.1,0.3-1.5,10.4-1.5,10.4s-0.9,2.1,0.3,2.5c2.2,0.7,4.1-10.3,4.2-11.3c0.1-0.7,1.3-0.5,1.1,0.3    c-0.2,0.8-2.8,10-0.5,10.8c1.7,0.5,1.6-9,3.3-10.6c1.6-1.6-0.7,7.2,1,7.7c0.6,0.2,1.1,0.2,1.7-5.1c0.6-5.4-0.3-20.3-0.3-20.3    l-10.7,0.1"/>
	</g>
	<g>
		<g>
			<g>
				<path class="st4" d="M493.4,202.5c0.2-1.7-0.7-8.8-0.7-8.8s-6.8-0.5-7.4-6.9c-0.6-6.4-0.7-21.2-0.7-21.2l12.1-6.1l13.8,9.4      l3.2,7l-4.1,16.7l0,8.4L493.4,202.5z"/>
				<path class="st16" d="M492.7,193.7c0,0,4.5-0.1,8.7-3.1c0,0-1.8,4.8-8.6,4.7L492.7,193.7z"/>
			</g>
			<path class="st5" d="M513.4,182.9c-1.8,3.9-2.9,9.6-2.9,9.6c-1,1.8-1.3-3.8-1.3-3.8s-0.9-5.4-0.1-7.5c0,0,3.4,1.1,4.2-4.8     c0.4-2.9-4.2-4.3-5.4-0.8l-2.8,0.3c0,0-0.2-10.9-6.8-8.9c0,0-4.8,2.8-7.6,1.1c-2.8-1.7-2.6-2.3-2.6-2.3s-1.4,2.9-5,1     c-3.7-1.9-4.1-5.3-2.9-6.9c0.7-0.9,1.4-2,2.6-2.2c1.2-0.2,2.5,0.3,3.3,1.2c-0.9-1.3-0.3-3.1,1.1-4c1.3-0.8,3.1-0.8,4.6-0.2     c1.5,0.6,2.7,1.6,3.9,2.5c0.8-2.3,3.4-3.9,6-3.7c2.5,0.2,4.8,2.2,5.2,4.6c1.4-1.6,4-2,6-1.1c2,0.9,3.3,2.9,3.7,5     c0.4,2.1-0.1,4.2-0.9,6.2c1.5-0.8,3.6-0.2,4.7,1.1s1,3.3,0.3,4.8c-0.8,1.5-2.2,2.7-3.7,3.5c1.2,0.9,1.5,2.6,0.8,3.9     c-0.7,1.3-2.4,1.9-3.8,1.4"/>
		</g>
		<g>
			<path class="st17" d="M508.6,179.1c0,0,0.1,0.1,0.3,0.2c0.2,0.1,0.4,0.1,0.7,0.1c0.6-0.2,1.2-1.1,1.3-2c0-0.5,0-1-0.2-1.4     c-0.1-0.4-0.4-0.7-0.7-0.8c-0.3-0.1-0.5,0.1-0.6,0.2c-0.1,0.1-0.1,0.3-0.1,0.3c0,0-0.1-0.1-0.1-0.3c0-0.1,0.1-0.2,0.2-0.3     c0.1-0.1,0.3-0.1,0.6-0.1c0.4,0.1,0.8,0.5,1,0.9c0.2,0.4,0.3,1,0.2,1.5c-0.1,1.1-0.8,2.1-1.6,2.3c-0.4,0.1-0.7-0.1-0.9-0.2     C508.6,179.2,508.6,179.1,508.6,179.1z"/>
		</g>
	</g>
	<path class="st11" d="M536.5,219.3c0,0-4.6-20.4-27-18.3c-20.4,2-20.4,2-20.4,2s-14,5.7-12.1,21.8c1.9,16.1,2.9,30.7,2.4,33.6   c-0.5,2.8-5.4,28.1-4,29.9c14.8,17.2,52.3-10.2,52.3-10.2L536.5,219.3z"/>
	<path class="st15" d="M509.5,201l5.2,119.4l15.5-8l-1.6-105.9C528.6,206.4,524.4,199.6,509.5,201z"/>
	<path class="st15" d="M541.8,319.1l-5.3-99.8c-1.7-6.1-5.2-10.8-9.8-14.8v115.9L541.8,319.1z"/>
	<path class="st15" d="M493.4,202.5c0,0-14,6.6-13.3,29.1c0.7,22.4-8.4,85.7-8.4,85.7l-11.6-2.3c0,0,13.5-60,14.1-70.6   c0.6-10.7-0.4-25.9,7.1-36.4C486.7,200.6,493.4,202.5,493.4,202.5z"/>
	<path class="st18" d="M509.5,201c0,0,4.6,9.8,4.1,13.4c-0.5,3.6-2,11.2-2,11.2s3.4,2,3.1,3.7c-0.3,1.7-3.5,19-3.5,19L509.5,201z"/>
	<g>
		<g>
			<g>
				<path class="st18" d="M524.2,225.4c0,0,0.1,0.3,0.2,1c0.1,0.6,0.1,1.6,0.2,2.8c0.2,2.4,0.4,5.9,0.6,10.2      c0.4,8.6,0.6,20.5,0.8,33.6c0.2,13.1,0.4,25,0.5,33.6c0.1,4.3,0.2,7.7,0.2,10.2c0,1.2,0,2.1,0,2.8c0,0.6,0,1-0.1,1      c0,0-0.1-0.3-0.2-1c-0.1-0.6-0.1-1.6-0.2-2.8c-0.2-2.4-0.4-5.9-0.6-10.2c-0.4-8.6-0.6-20.5-0.8-33.6c-0.2-13.1-0.4-25-0.5-33.6      c-0.1-4.3-0.2-7.7-0.2-10.2c0-1.2,0-2.1,0-2.8C524.1,225.7,524.2,225.4,524.2,225.4z"/>
			</g>
		</g>
	</g>
	<path class="st4" d="M485.9,432.2c0.2-0.1-4.7-18.1-4.7-18.1l16.5-4.6l3.5,16.9L485.9,432.2z"/>
	<rect x="505.2" y="420.2" class="st4" width="18.7" height="14.1"/>
	<path class="st5" d="M503.3,442l1.7-8.6h20.2l-2.1,12.6l-1.1,0.1c-4.6,0.2-27.2,1.4-30.3,0.5C488.3,445.6,503.3,442,503.3,442z"/>
</g>
<g xmlns="http://www.w3.org/2000/svg">
	<g>
		<path class="st3" d="M411.4,162c0,11.9-9.7,21.6-21.6,21.6s-21.6-9.7-21.6-21.6c0-11.9,9.7-21.6,21.6-21.6c1.2,0,2.3,0.1,3.5,0.3    l-3.5,21.3l20-8.3C410.8,156.2,411.4,159,411.4,162z"/>
		<path class="st3" d="M417,146.5l-20,8.3l3.5-21.3C408,134.6,414.2,139.7,417,146.5z"/>
	</g>
	<g>
		<g>
			<path class="st3" d="M327.5,183.5H294c-0.7,0-1.4-0.6-1.4-1.4v-20.7c0-0.7,0.6-1.4,1.4-1.4h33.5c0.7,0,1.4,0.6,1.4,1.4v20.7     C328.8,182.9,328.2,183.5,327.5,183.5z"/>
		</g>
		<g>
			<polyline class="st19" points="295.2,163 310.8,174.8 326.8,162.2    "/>
			<line class="st19" x1="294.7" y1="181.4" x2="304" y2="169.9"/>
			<line class="st19" x1="326.2" y1="181.4" x2="316.9" y2="169.9"/>
		</g>
	</g>
</g>
<g xmlns="http://www.w3.org/2000/svg">
	<g>
		<path class="st20" d="M335.7,339.2c0,0-40.7-1.6-47-16.7c-6.3-15.1-9.4-54.8-29.2-56.4c-19.8-1.6-32.9-2.6-32.9,11    c0,13.6-8.9,57.9,18.3,64.7c25.5,6.4,59.7,18.7,85.4,5.5C333.4,345.8,335.4,342.7,335.7,339.2L335.7,339.2z"/>
		<g>
			<g>
				<g>
					<g>
						<path class="st11" d="M298,348l31,98l10.8,3.4L309.2,353C305.8,352.5,302.4,352,298,348z"/>
					</g>
				</g>
			</g>
			<g>
				<g>
					<g>
						<polygon class="st11" points="213.1,446.2 248.4,334.6 238.7,334.6 203.4,446.2       "/>
					</g>
				</g>
			</g>
		</g>
	</g>
	<path class="st21" d="M227.1,272.6c0,0,6.3,43.5,15.1,45.6c8.8,2.1,26.3-0.3,33.3,4.8c7,5.1,29.6,30.2,29.6,30.2   s-53.2-1.1-74.1-17.8C210.2,318.9,227.1,272.6,227.1,272.6z"/>
</g>
<g xmlns="http://www.w3.org/2000/svg">
	<g>
		<path class="st5" d="M297.9,205.9c0.9,2.3,0.2,4.8-0.4,7.2c-0.6,2.4-0.9,5.1,0.7,7.1c1.6,2,4.6,2.7,6.7,4.4c2,1.6,3.1,4.1,2.7,6.4    c-0.3,1.6-1.2,3.3-0.2,4.7c0.5,0.7,1.4,1.1,2.3,1.5c1.9,0.8,3.9,1.5,5.7,2.5c1.8,1,3.4,2.3,4.2,4.1c1.1,2.4,0.3,5.1-0.7,7.5    c-0.9,2.4-2.2,4.9-4.7,6.1c-1.9,0.9-4.2,0.9-6.4,0.7c-6.4-0.5-12.7-2-18.6-4.4c-3.7-1.5-7.3-3.5-9.6-6.4c-3.6-4.6-3.2-10.6-2.2-16    c0.6-3,1.4-6.1,3.8-8.4c2.3-2.2,5.8-3.4,9.3-3.5C294,219.2,294.5,204.9,297.9,205.9"/>
	</g>
	<g>
		<path class="st5" d="M269.1,222.5c-2.9-4.1-4.1-9.1-3.3-13.9c0.9-4.7,3.8-9.1,8-12"/>
	</g>
	<path class="st22" d="M299.2,304.2c0,0,77.5-10.9,90.3,12c12.8,22.9,14.1,88.2,14.1,88.2l-17.2,3c0,0-17.6-74.9-26.4-78.2   c-8.9-3.3-68.7-1.1-68.7-1.1L299.2,304.2z"/>
	<path class="st5" d="M403.6,404.4c0,0,17.5,0.6,14,2.3c-3.5,1.7-30.9,4.6-30.9,4.6l-0.3-4.4L403.6,404.4z"/>
	<path class="st15" d="M349.8,311.7l-2.4-11.9c-19.1-0.5-39.2,2.7-59.5,7L349.8,311.7z"/>
	<path class="st4" d="M291.5,242.2c0,0,14.3-0.4,17,21c4,30.9,45.6,15.6,45.6,15.6l12.2,8.3c0,0-23.1,19.6-53.8,7   C281.9,281.5,291.5,242.2,291.5,242.2z"/>
	<path class="st23" d="M253.7,263.5l-2,15.8l-4.5,29.5c12.2,6.4,29.9,6.8,47.3,9.8c-4.2-14.8-5.6-29.4,0.4-43.9c0,0,6.5-2.7,3.6-6.4   c-3.7-4.6-4.5-8.5-4.5-8.5l-38.4-0.7"/>
	<g>
		<path class="st24" d="M285.8,241.1c-0.2-1.8,1.3-8.9,1.3-8.9s7.7,0,8.7-6.5c1-6.5,1.9-21.6,1.9-21.6l-13.4-7.2l-14.5,8.7    l-2.3,32.8L285.8,241.1z"/>
		<path class="st17" d="M287.1,232.2c0,0-5.1-0.4-9.8-3.8c0,0,1.8,5,9.5,5.4L287.1,232.2z"/>
	</g>
	<path class="st15" d="M247.9,308.8c0,0-4.9,31.5,25.7,35.5l-3.7-37.1L247.9,308.8z"/>
	<path class="st4" d="M282.9,310.5c0,0,98.7-3.9,106.7,14.2c8,18.1-8,89.3-8,89.3l-18.8-3.3c0,0,3.4-67.8-0.8-71   c-4.2-3.2-84.7,5.1-91.1,3.6C263.8,341.7,241.1,314.6,282.9,310.5z"/>
	<path class="st5" d="M380.1,412.5c0,0,16.6,5.2,12.6,5.9c-4,0.7-30.1-3.6-30.1-3.6l0-6.2L380.1,412.5z"/>
	<path class="st4" d="M353.2,279.2l2.9-1.7c0,0,2-0.8,5-2.8c0.8-0.5,1.4-1.2,2-1.9c0.6-0.9,1.4-2.1,1.6-2.9c0.2-1,1.7-1.2,2.2-0.3   c0.4,0.8-0.1,3.5-2.4,6.1c-2.2,2.5,3.5,1.4,5.5,1.1c2.1-0.4,8.6-1.3,9.2-0.8c1,0.7,0.3,1.7-1.8,2c-2.1,0.3-8.2,1.7-7.9,2.6   c0.3,0.9,10.8-1.1,10.8-1.1s2.2-0.7,2.6,0.3c0.7,2-10.7,3.4-11.8,3.5c-0.8,0.1-0.5,1.1,0.3,1c0.8-0.1,10.5-2.2,11.2-0.2   c0.6,1.5-9.4,1.2-11.1,2.6c-1.7,1.4,7.6-0.5,8,1c0.2,0.5,0.2,1-5.3,1.4c-5.6,0.4-21.2-0.6-21.2-0.6l0-9.3"/>
	<path class="st23" d="M294,261.5l0-18.9l-5.8-1.7l-18.2-2.7c0,0-11.1-1.8-15.3,0.8c-4.2,2.6-2.3,24.3-2.3,24.3L294,261.5z"/>
	<path class="st4" d="M263.5,237.5c0,0-23.1-6.6-24.2,27.8c-1.2,35,59.4,46.4,59.4,46.4l2.5-12.9c0,0-43-14.6-44.8-29.4   C254.5,254.6,263.5,237.5,263.5,237.5z"/>
	<polygon class="st25" points="348.6,313.5 376,272.9 373.2,271.1 345.5,310.4 304.3,303.4 303.6,305.8  "/>
	<path class="st24" d="M299.7,298.7"/>
	<path class="st5" d="M299.6,207.7c0,0,2.2-10.3-14.4-13.7c-16.6-3.3-18.5,14.1-18.5,14.1l9.3-0.7l2.4-4.3l-0.1,4.3l6.9,0.2   l-0.1-3.2l1.7,2.7L299.6,207.7z"/>
	<path class="st4" d="M299.7,298.7c0,0,6.8,0.8,10.9-3.1c4.1-3.9,5,0.7,0.6,4.2c-4.4,3.5-6.4,4.2-6.4,4.2s21.9,7.1,17.2,6.9   c-4.7-0.2-26.3-0.4-26.3-0.4L299.7,298.7z"/>
	<path class="st15" d="M347.9,342.2l6.3-29.7c0,0-82.2-10.8-94.4-2.9c-12.1,7.9-8.5,34.2,13.7,34.7   C295.7,344.8,347.9,342.2,347.9,342.2z"/>
</g>
<path xmlns="http://www.w3.org/2000/svg" class="st21" d="M227.1,272.6c0,0,6.3,43.5,15.1,45.6c8.8,2.1,26.3-0.3,33.3,4.8c7,5.1,29.6,30.2,29.6,30.2  s-53.2-1.1-74.1-17.8C210.2,318.9,227.1,272.6,227.1,272.6z"/>
<g xmlns="http://www.w3.org/2000/svg">
	<g>
		<g>
			<g>
				<g>
					<rect x="184.6" y="303.7" class="st26" width="11.3" height="142.1"/>
					<rect x="122.3" y="303.7" class="st26" width="11.3" height="142.1"/>
				</g>
				<g>
					<rect x="463.1" y="303.7" class="st27" width="11.3" height="142.1"/>
					<rect x="400.8" y="303.7" class="st27" width="11.3" height="142.1"/>
				</g>
			</g>
			<g>
				<g>
					<rect x="114.6" y="300" class="st27" width="367.6" height="11.5"/>
					<rect x="114.6" y="300" class="st11" width="81.7" height="11.5"/>
				</g>
			</g>
		</g>
		<g>
			<polygon class="st28" points="384.4,298.8 316.8,298.8 328.8,263.5 396.5,263.5    "/>
			<rect x="290.3" y="298.2" class="st28" width="94.3" height="1.7"/>
			<path class="st28" d="M362.7,282.1c0,1.7-1.7,3.1-3.8,3.1s-3.8-1.4-3.8-3.1c0-1.7,1.7-3.1,3.8-3.1S362.7,280.4,362.7,282.1z"/>
		</g>
		<g>
			<g>
				<g>
					<path class="st3" d="M406.6,299.9h-1.6c-3.1,0-5.6-2.5-5.6-5.6v-7.5h12.8v7.5C412.1,297.4,409.6,299.9,406.6,299.9z"/>
				</g>
				<g>
					<path class="st3" d="M413,295.2c-0.6,0-1.1-0.1-1.7-0.3l0.7-1.2c1.6,0.6,2.6-0.3,3.2-1.2c0.9-1.5,0.8-3.2,0.2-3.5       c-1.6-0.8-3.6,0.3-3.6,0.4l-0.9-1.1c0.1-0.1,2.8-1.6,5.4-0.4c1.7,0.8,1.6,3.4,0.4,5.3C415.8,294.4,414.5,295.2,413,295.2z"/>
				</g>
			</g>
		</g>
	</g>
</g>
</svg>