<svg xmlns="http://www.w3.org/2000/svg" xmlns:xlink="http://www.w3.org/1999/xlink" version="1.1" id="Layer_1" x="0px" y="0px" viewBox="0 0 700 700" enable-background="new 0 0 700 700" xml:space="preserve">
<g xmlns="http://www.w3.org/2000/svg">
	<g>
		<path fill="#4C4C4C" d="M527.446,557.481H29.667c-1.995,0-3.619-1.624-3.619-3.618c0-1.995,1.624-3.619,3.619-3.619h497.779    c1.995,0,3.618,1.624,3.618,3.619C531.065,555.857,529.441,557.481,527.446,557.481z"/>
	</g>
	<path fill="#0B4870" d="M409.366,550.769H47.604V370.024c0-12.579,10.198-22.778,22.778-22.778h316.207   c12.571,0,22.777,10.199,22.777,22.778V550.769z"/>
	<path fill="#0F557C" d="M409.366,370.024v180.745H95.24V370.024c0-12.579,10.198-22.778,22.777-22.778h268.571   C399.16,347.247,409.366,357.445,409.366,370.024z"/>
	
		<rect x="409.366" y="424.433" transform="matrix(-1 -1.224647e-16 1.224647e-16 -1 902.1123 975.2021)" fill="#0B4870" width="83.38" height="126.337"/>
	<path fill="#15688C" d="M516.049,550.769h-45.57V447.227c0-12.604,10.206-22.794,22.793-22.794l0,0   c12.572,0,22.777,10.19,22.777,22.794V550.769z"/>
	<path fill="#15688C" d="M454.953,550.769H155.13V471.04h286.2c7.515,0,13.623,6.093,13.623,13.608V550.769z"/>
	<g>
		<g>
			<path fill="#0F557C" d="M224.995,492.318c-0.858,0-1.546-0.681-1.554-1.531c-0.069-9.464-1.662-15.912-5.018-20.242     c-0.519-0.68-0.395-1.67,0.286-2.18c0.68-0.526,1.647-0.402,2.165,0.263c3.796,4.933,5.598,11.969,5.667,22.128     c0.008,0.866-0.681,1.563-1.539,1.563H224.995z"/>
		</g>
		<g>
			<path fill="#0F557C" d="M237.219,484.308c-0.727,0-1.376-0.495-1.516-1.237c-1.02-5.134-4.237-9.092-9.811-12.123     c-0.758-0.402-1.036-1.346-0.627-2.103c0.41-0.742,1.345-1.02,2.103-0.618c6.348,3.448,10.175,8.242,11.374,14.227     c0.163,0.851-0.379,1.67-1.222,1.825C237.412,484.308,237.311,484.308,237.219,484.308z"/>
		</g>
		<g>
			<path fill="#0F557C" d="M312.132,489.148c-0.773,0-1.438-0.588-1.539-1.377c-1.067-9.139-4.307-15.433-10.183-19.793     c-0.696-0.495-0.835-1.454-0.325-2.165c0.51-0.681,1.485-0.819,2.165-0.31c6.619,4.902,10.252,11.876,11.427,21.912     c0.101,0.851-0.51,1.623-1.36,1.717C312.248,489.133,312.193,489.148,312.132,489.148z"/>
		</g>
		<g>
			<path fill="#0F557C" d="M395.449,484.308c-0.727,0-1.361-0.495-1.516-1.206c-1.252-5.706-4.113-9.448-9.278-12.139     c-0.757-0.402-1.052-1.33-0.665-2.088c0.402-0.758,1.33-1.051,2.104-0.665c5.969,3.108,9.417,7.64,10.871,14.211     c0.17,0.835-0.355,1.671-1.191,1.856C395.666,484.308,395.542,484.308,395.449,484.308z"/>
		</g>
		<g>
			<path fill="#0F557C" d="M386.697,484.308c-0.712,0-1.346-0.495-1.5-1.206c-1.253-5.706-4.113-9.448-9.294-12.139     c-0.758-0.402-1.036-1.33-0.649-2.088c0.387-0.758,1.33-1.051,2.088-0.665c5.969,3.108,9.433,7.64,10.87,14.211     c0.186,0.835-0.34,1.671-1.175,1.856C386.929,484.308,386.805,484.308,386.697,484.308z"/>
		</g>
	</g>
	
		<rect x="47.604" y="424.433" transform="matrix(-1 -1.224647e-16 1.224647e-16 -1 226.0381 975.2021)" fill="#0B4870" width="130.829" height="126.337"/>
	<path fill="#15688C" d="M200.701,550.769H155.13V447.227c0-12.604,10.206-22.794,22.786-22.794l0,0   c12.579,0,22.785,10.19,22.785,22.794V550.769z"/>
</g>
<polygon xmlns="http://www.w3.org/2000/svg" fill="#2A94F4" points="438.716,231.316 406.366,189.449 454.984,205.145 "/>
<g xmlns="http://www.w3.org/2000/svg">
	<path fill="#1E0F00" d="M423.129,257.573c-0.201,0-0.418-0.054-0.604-0.17c-0.541-0.332-0.695-1.044-0.371-1.585l31.84-51.285   c0.34-0.534,1.052-0.704,1.593-0.364c0.526,0.333,0.696,1.036,0.371,1.578l-31.855,51.285   C423.887,257.38,423.516,257.573,423.129,257.573z"/>
</g>
<path xmlns="http://www.w3.org/2000/svg" fill="#ffbe55" d="M428.804,204.897c-1.763,2.946-0.093,7.198,3.728,9.495c3.819,2.304,8.365,1.786,10.128-1.16  c1.763-2.946,0.108-7.199-3.727-9.495C435.113,201.433,430.566,201.951,428.804,204.897z"/>
<polygon xmlns="http://www.w3.org/2000/svg" fill="#2A94F4" points="178.934,184.834 194.833,134.37 154.627,165.891 "/>
<g xmlns="http://www.w3.org/2000/svg">
	<path fill="#1E0F00" d="M202.63,204.092c0.189-0.069,0.374-0.195,0.508-0.368c0.393-0.498,0.292-1.22-0.199-1.616l-47.592-37.133   c-0.503-0.383-1.23-0.297-1.62,0.209c-0.379,0.494-0.296,1.213,0.197,1.609l47.606,37.128   C201.852,204.172,202.267,204.226,202.63,204.092z"/>
</g>
<path xmlns="http://www.w3.org/2000/svg" fill="#ffbe55" d="M179.112,156.617c2.672,2.156,2.573,6.723-0.219,10.198c-2.789,3.481-7.234,4.565-9.905,2.409  c-2.672-2.156-2.588-6.718,0.218-10.197C171.994,155.545,176.44,154.461,179.112,156.617z"/>
<polygon xmlns="http://www.w3.org/2000/svg" fill="#2A94F4" points="515.276,250.097 508.41,197.637 542.492,235.677 "/>
<g xmlns="http://www.w3.org/2000/svg">
	<path fill="#1E0F00" d="M489.143,265.081c-0.402,0-0.804-0.224-1.005-0.611c-0.31-0.557-0.077-1.26,0.464-1.554l53.35-28.252   c0.557-0.301,1.268-0.085,1.562,0.48c0.294,0.557,0.077,1.253-0.479,1.546l-53.35,28.26   C489.514,265.035,489.328,265.081,489.143,265.081z"/>
</g>
<path xmlns="http://www.w3.org/2000/svg" fill="#ffbe55" d="M520.008,222.278c-3.016,1.654-3.711,6.17-1.562,10.082c2.149,3.92,6.324,5.752,9.34,4.098  c3.016-1.646,3.712-6.162,1.562-10.074C527.214,222.471,523.023,220.631,520.008,222.278z"/>
<path xmlns="http://www.w3.org/2000/svg" fill="#2A94F4" d="M395.031,471.442h42.989c9.448,0,17.412-7.887,18.603-18.401l9.108-80.148  c-19.87-13.283-34.73-17.999-61.792-16.438c-3.974,52.793,2.413,61.885-16.376,104.704  C385.398,466.107,390.207,471.442,395.031,471.442z"/>
<path xmlns="http://www.w3.org/2000/svg" fill="#9BC4E0" d="M393.47,446.607c-1.222,3.124-4.36,11.025-5.907,14.552c-2.164,4.948,2.645,10.283,7.469,10.283h42.989  c9.448,0,17.412-7.887,18.603-18.401l0.217-1.825C429.438,441.103,411.361,455.36,393.47,446.607z"/>
<g xmlns="http://www.w3.org/2000/svg">
	<path fill="#9BC4E0" d="M381.114,465.411c0,0-0.943-1.763-2.582-4.824c-1.577-2.876-3.975-7.129-6.974-11.783   c-1.516-2.335-3.201-4.763-5.026-7.067c-0.904-1.129-1.848-2.242-2.783-3.216c-0.92-0.959-1.879-1.841-2.605-2.398   c-0.728-0.588-1.206-0.649-0.572-0.634c0.34,0.031,0.951-0.016,1.561-0.263c0.619-0.217,1.044-0.541,1.176-0.727   c0.154-0.201,0.03-0.108-0.14,0.046c-0.193,0.263-0.456,0.588-0.727,1.113c-0.534,0.99-1.083,2.366-1.546,3.882   c-0.943,3.077-1.624,6.634-2.096,10.252c-0.495,3.619-0.789,7.299-0.975,10.918c-0.379,7.205-0.324,14.103-0.123,20.01   c0.186,5.906,0.51,10.84,0.772,14.288c0.278,3.48,0.44,5.442,0.44,5.442l0.016,0.155c0.363,4.407-2.922,8.288-7.337,8.644   c-4.229,0.356-7.956-2.659-8.598-6.788c0,0-0.317-2.041-0.866-5.613c-0.525-3.603-1.222-8.737-1.863-14.953   c-0.634-6.216-1.214-13.515-1.353-21.494c-0.078-3.989-0.031-8.149,0.248-12.479c0.27-4.33,0.75-8.799,1.832-13.592   c0.565-2.398,1.276-4.871,2.436-7.547c0.549-1.33,1.314-2.752,2.219-4.175c1.005-1.47,2.119-2.97,3.812-4.439   c1.67-1.453,3.819-2.799,6.324-3.618c2.521-0.804,5.126-0.974,7.407-0.727c4.515,0.557,7.623,2.195,10.066,3.665   c2.459,1.53,4.346,3.107,6.077,4.623c1.732,1.563,3.186,3.093,4.577,4.577c2.737,2.97,4.995,5.815,6.989,8.443   c1.965,2.659,3.712,5.087,5.165,7.252c1.485,2.165,2.706,4.036,3.728,5.676c1.948,3.061,3.046,4.809,3.046,4.809   c3.681,5.86,1.917,13.624-3.943,17.304c-5.876,3.696-13.623,1.934-17.319-3.943c-0.139-0.232-0.293-0.478-0.417-0.727   L381.114,465.411z"/>
</g>
<g xmlns="http://www.w3.org/2000/svg">
	<path fill="#CCE9FF" d="M442.906,463.076c0,0-0.494,1.253-1.345,3.464c-0.341,0.975-0.758,2.15-1.237,3.511   c-0.479,1.516-1.051,3.185-1.639,5.102c-1.207,3.866-2.598,8.382-4.083,13.222c-1.515,4.901-3.123,10.159-4.87,15.447   c-0.836,2.629-1.764,5.289-2.645,7.887c-0.912,2.582-1.855,5.134-2.769,7.624c-0.989,2.474-1.855,4.855-2.845,7.128   c-0.959,2.258-1.855,4.393-2.814,6.341c-0.449,0.989-0.896,1.933-1.314,2.829c-0.448,0.913-0.912,1.748-1.314,2.521   c-0.851,1.608-1.547,2.984-2.273,4.113c-1.376,2.272-2.165,3.557-2.165,3.557c-2.288,3.772-7.222,4.978-11.01,2.675   c-3.525-2.134-4.794-6.557-3.108-10.206l0.31-0.649c0,0,0.526-1.098,1.423-3.016c0.464-0.928,0.943-2.181,1.5-3.587   c0.278-0.712,0.603-1.454,0.896-2.258c0.294-0.805,0.588-1.67,0.897-2.583c0.65-1.778,1.269-3.788,1.902-5.907   c0.681-2.087,1.253-4.438,1.918-6.757c0.603-2.413,1.236-4.856,1.824-7.392c0.588-2.536,1.191-5.104,1.748-7.732   c1.129-5.195,2.164-10.469,3.139-15.432c0.99-5.042,1.933-9.742,2.722-13.764c0.401-2.025,0.851-3.958,1.206-5.628   c0.433-1.841,0.819-3.433,1.129-4.747c0.634-2.305,0.989-3.635,0.989-3.635c1.81-6.711,8.706-10.67,15.402-8.86   c6.695,1.81,10.669,8.706,8.86,15.401c-0.108,0.418-0.248,0.836-0.402,1.222L442.906,463.076z"/>
</g>
<path xmlns="http://www.w3.org/2000/svg" fill="#9BC4E0" d="M316.647,514.415l21.981-10.222c3.866-1.793,8.072-2.721,12.332-2.721h3.271  c3.796,0,6.865,3.062,6.865,6.865v3.959c0,4.453-3.587,8.025-8.01,8.025h-35.172c-1.701,0-3.077-1.376-3.077-3.077l0,0  C314.838,516.039,315.549,514.941,316.647,514.415z"/>
<path xmlns="http://www.w3.org/2000/svg" fill="#CCE9FF" d="M418.552,543.069L418.552,543.069c-1.16-3.231-3.572-5.876-6.711-7.299l-3.866-1.763  c-3.232-1.484-7.051-0.649-9.387,2.041l-8.628,10.005c-0.743,0.851-1.145,1.948-1.145,3.077l0,0c0,2.613,2.103,4.732,4.716,4.732  h17.428C416.541,553.863,420.439,548.327,418.552,543.069z"/>
<g xmlns="http://www.w3.org/2000/svg">
	<path fill="#FEC296" d="M452.804,375.971c0,0,1.052-1.578,2.923-4.33c0.912-1.369,2.118-3.07,3.309-4.948   c1.206-1.871,2.582-3.997,4.067-6.302c1.423-2.366,2.984-4.918,4.593-7.631c1.5-2.761,3.232-5.629,4.732-8.668   c0.758-1.523,1.608-3.046,2.319-4.631c0.742-1.585,1.484-3.193,2.242-4.81c1.361-3.278,2.768-6.595,3.943-10.013   c0.634-1.686,1.176-3.409,1.717-5.134c0.557-1.716,1.082-3.433,1.53-5.165c0.975-3.441,1.763-6.913,2.552-10.268   c0.681-3.394,1.392-6.665,1.933-9.835c0.588-3.139,1.083-6.154,1.547-8.938c0.479-2.768,0.85-5.351,1.222-7.624   c0.34-2.281,0.65-4.268,0.897-5.907c0.495-3.278,0.789-5.157,0.789-5.157l0,0c0.525-3.511,3.804-5.923,7.314-5.39   c3.417,0.519,5.783,3.649,5.412,7.052c0,0-0.217,1.895-0.572,5.195c-0.186,1.663-0.402,3.673-0.665,5.984   c-0.278,2.313-0.557,4.91-0.912,7.771c-0.356,2.861-0.743,5.954-1.222,9.248c-0.434,3.286-1.021,6.781-1.608,10.384   c-0.696,3.619-1.376,7.353-2.288,11.149c-0.418,1.902-0.929,3.812-1.439,5.722c-0.511,1.91-1.036,3.835-1.671,5.729   c-1.144,3.819-2.535,7.562-3.912,11.234c-0.742,1.816-1.484,3.61-2.227,5.381c-0.727,1.786-1.577,3.456-2.335,5.157   c-1.5,3.41-3.2,6.525-4.716,9.557c-1.578,2.969-3.14,5.736-4.563,8.327c-1.484,2.536-2.86,4.878-4.082,6.92   c-1.206,2.087-2.273,3.727-3.154,5.165c-1.748,2.814-2.737,4.438-2.737,4.438h-0.016c-2.582,4.19-8.071,5.475-12.247,2.892   c-4.175-2.598-5.474-8.087-2.876-12.263C452.648,376.186,452.742,376.048,452.804,375.971z"/>
</g>
<g xmlns="http://www.w3.org/2000/svg">
	<path fill="#FEC296" d="M402.655,371.246c0,0-0.402-0.286-1.16-0.835c-0.371-0.278-0.835-0.61-1.392-1.021   c-0.665-0.533-1.5-1.253-2.381-2.018c-0.959-0.781-1.717-1.647-2.629-2.591c-0.943-0.912-1.794-2.057-2.737-3.231   c-0.495-0.58-0.912-1.237-1.345-1.91c-0.449-0.665-0.913-1.346-1.346-2.072c-0.805-1.484-1.717-3.016-2.382-4.701   c-0.788-1.662-1.36-3.448-1.979-5.28c-0.494-1.855-1.021-3.766-1.345-5.745c-0.696-3.935-1.036-8.071-0.928-12.239   c0.108-4.159,0.495-8.396,1.222-12.572c0.727-4.167,1.654-8.327,2.845-12.371c1.176-4.044,2.49-8.018,3.959-11.83   c1.439-3.835,3.046-7.5,4.624-11.025c1.639-3.495,3.262-6.842,4.901-9.958c1.64-3.116,3.247-6.016,4.778-8.675   c0.773-1.314,1.516-2.582,2.211-3.781c0.742-1.191,1.423-2.319,2.072-3.371c1.299-2.119,2.49-3.92,3.434-5.42   c1.963-2.961,3.107-4.647,3.107-4.647c1.949-2.954,5.939-3.757,8.892-1.793c2.876,1.917,3.727,5.775,1.918,8.706l-0.077,0.123   c0,0-1.022,1.655-2.815,4.547c-0.851,1.461-1.934,3.216-3.093,5.272c-0.588,1.028-1.206,2.119-1.856,3.271   c-0.618,1.16-1.283,2.381-1.979,3.657c-1.346,2.559-2.783,5.35-4.222,8.335c-1.439,2.977-2.86,6.147-4.269,9.448   c-1.345,3.317-2.721,6.758-3.896,10.283c-1.237,3.526-2.289,7.137-3.201,10.755c-0.943,3.619-1.607,7.253-2.103,10.802   c-0.495,3.549-0.681,7.013-0.649,10.291c0.016,3.286,0.402,6.34,0.989,9.1c0.263,1.407,0.696,2.667,1.052,3.912   c0.464,1.183,0.866,2.351,1.407,3.371c0.448,1.067,1.067,1.949,1.577,2.861c0.278,0.425,0.588,0.819,0.851,1.222   c0.278,0.387,0.541,0.789,0.866,1.113c0.603,0.681,1.098,1.361,1.701,1.879c0.557,0.525,1.082,1.105,1.515,1.392   c0.448,0.355,0.789,0.657,1.16,0.959c0.557,0.387,1.036,0.711,1.407,0.966c0.789,0.526,1.19,0.805,1.19,0.805   c3.912,2.667,4.933,8.01,2.273,11.922c-2.675,3.928-8.011,4.934-11.923,2.273c-0.077-0.047-0.139-0.093-0.217-0.146   L402.655,371.246z"/>
</g>
<polygon xmlns="http://www.w3.org/2000/svg" fill="#2A94F4" points="446.989,407.022 475.612,382.186 463.427,355.883 453.53,365.54 "/>
<path xmlns="http://www.w3.org/2000/svg" fill="#2A94F4" d="M389.82,368.556l23.288,13.631l9.974-24.34l-16.855-12.564C401.094,348.615,388.15,354.461,389.82,368.556z"/>
<path xmlns="http://www.w3.org/2000/svg" fill="#FEC296" d="M438.793,373.914c-1.268,0.107-2.551,0.092-3.85-0.078c-4.129-0.479-7.176-4.137-7.176-8.311v-24.378h18.588  v24.393C446.355,369.862,443.092,373.543,438.793,373.914z"/>
<path xmlns="http://www.w3.org/2000/svg" fill="#F3A67D" d="M446.355,362.564c-6.835,3.595-13.129,5.814-18.588,1.724v-19.004h18.588V362.564z"/>
<path xmlns="http://www.w3.org/2000/svg" fill="#FEC296" d="M434.247,354.213l-1.052-0.123c-2.675-0.341-7.391-2.228-12.386-6.572l-0.789-0.65  c-6.355-5.257-9.17-13.693-7.206-21.718l0.278-1.198c0.929-3.805,3.247-7.129,6.495-9.31l1.19-0.811l7.052-19.894  c7.546-14.412,25.607-19.584,39.633-11.358l0,0c13.561,7.956,18.107,25.406,10.145,38.968l-9.402,16.005  C461.231,349.404,447.871,355.953,434.247,354.213z"/>
<path xmlns="http://www.w3.org/2000/svg" fill="#1E0F00" d="M466.752,320.031c-0.371-1.322-1.006-2.621-1.423-3.943c-1.083-3.503-0.448-7.477,1.639-10.477  c-6.51-1.941-12.726-4.461-18.974-7.098c-1.407-0.603-16.175-8.374-15.494-9.448c-3.572,5.722-6.619,11.443-9.355,17.613  c-0.232-7.345,2.953-12.649,6.788-18.556c-1.654-1.191-2.211-3.479-1.824-5.475c0.355-1.995,1.515-3.757,2.737-5.381  c0.463-0.611,0.974-1.237,1.654-1.578c1.484-0.727,3.51,0.34,3.758,1.972c0.912-2.745,2.505-5.683,5.304-6.378  c3.061-0.766,5.984,1.484,8.351,3.58c-0.108-1.322-0.201-2.667,0.093-3.966c0.294-1.291,1.052-2.544,2.257-3.108  c1.794-0.858,3.913,0.054,5.629,1.06c4.346,2.566,8.273,5.892,11.521,9.765c0.093-0.897,0.201-1.825,0.665-2.614  c0.448-0.788,1.314-1.399,2.211-1.26c0.681,0.108,1.223,0.602,1.701,1.09c3.17,3.17,5.939,6.734,8.227,10.585  c1.949,3.247,3.588,7.144,2.382,10.731c-0.14,0.426-0.31,0.851-0.31,1.292c0,0.495,0.232,0.951,0.434,1.392  c5.211,11.165-1.299,25.144-9.047,33.479c-1.994,2.149-4.236,4.114-6.68,5.76c-1.253,0.843-4.531,2.474-6.077,1.678  c-1.099-0.58-1.176-2.118-0.959-3.348c0.758-4.237,2.629-8.134,4.268-12.101c0.356-0.843,0.712-1.708,0.819-2.629  C467.153,321.771,466.999,320.897,466.752,320.031z"/>
<path xmlns="http://www.w3.org/2000/svg" fill="#FEC296" d="M465.809,335.904c-3.434,3.665-4.547,8.203-2.49,10.136c2.072,1.925,6.525,0.51,9.959-3.155  c3.417-3.665,4.531-8.195,2.475-10.121C473.695,330.84,469.241,332.239,465.809,335.904z"/>
<path xmlns="http://www.w3.org/2000/svg" fill="#FEC296" d="M424.289,234.827c-6.635,1.693-11.025,6.935-9.805,11.713c1.207,4.771,7.578,7.261,14.211,5.575  c6.65-1.693,11.041-6.936,9.835-11.706C437.309,235.631,430.938,233.141,424.289,234.827z"/>
<path xmlns="http://www.w3.org/2000/svg" fill="#FEC296" d="M489.344,271.313c5.613,3.92,12.464,3.827,15.278-0.216c2.814-4.036,0.557-10.484-5.072-14.404  c-5.613-3.928-12.464-3.827-15.263,0.208C481.457,260.936,483.73,267.393,489.344,271.313z"/>
<path xmlns="http://www.w3.org/2000/svg" fill="#ffbe55" d="M409.366,400.866c0,10.701,8.398,19.392,18.757,19.392c10.346,0,18.742-8.69,18.742-19.392  c0-10.731-8.396-19.406-18.742-19.406C417.764,381.46,409.366,390.135,409.366,400.866z"/>
<path xmlns="http://www.w3.org/2000/svg" fill="#2A94F4" d="M165.352,426.475h-42.981c-9.448,0-17.419-7.887-18.61-18.387l-9.092-80.155  c19.855-13.283,34.723-17.999,61.776-16.438c3.982,52.784-2.404,61.877,16.384,104.711  C175.001,421.154,170.184,426.475,165.352,426.475z"/>
<path xmlns="http://www.w3.org/2000/svg" fill="#D3D3D3" d="M166.914,401.64c1.229,3.124,4.361,11.025,5.914,14.566c2.173,4.948-2.644,10.269-7.477,10.269h-42.981  c-9.448,0-17.419-7.887-18.61-18.387l-0.208-1.84C130.961,396.135,149.023,410.423,166.914,401.64z"/>
<g xmlns="http://www.w3.org/2000/svg">
	<path fill="#D3D3D3" d="M157.55,407.918c0,0,1.106-1.763,3.039-4.824c1.028-1.624,2.258-3.495,3.734-5.66   c1.454-2.181,3.193-4.608,5.165-7.252c1.995-2.645,4.26-5.49,6.989-8.459c1.392-1.484,2.853-3.016,4.577-4.547   c1.732-1.546,3.626-3.123,6.077-4.647c2.451-1.477,5.552-3.107,10.067-3.664c2.273-0.24,4.886-0.078,7.399,0.727   c2.498,0.804,4.67,2.164,6.333,3.626c1.693,1.469,2.807,2.969,3.812,4.423c0.904,1.438,1.662,2.845,2.227,4.175   c1.16,2.675,1.871,5.165,2.428,7.562c1.083,4.778,1.555,9.263,1.833,13.593c0.27,4.329,0.309,8.474,0.239,12.464   c-0.139,7.994-0.719,15.277-1.353,21.494c-0.642,6.216-1.337,11.365-1.863,14.953c-0.541,3.572-0.858,5.629-0.858,5.629   c-0.665,4.376-4.771,7.392-9.147,6.727c-4.191-0.649-7.129-4.423-6.789-8.567l0.008-0.17c0,0,0.162-1.964,0.448-5.428   c0.263-3.464,0.58-8.412,0.781-14.319c0.186-5.906,0.255-12.804-0.132-20.01c-0.186-3.603-0.487-7.299-0.974-10.917   c-0.471-3.603-1.144-7.175-2.095-10.237c-0.472-1.516-1.013-2.906-1.562-3.896c-0.255-0.525-0.519-0.835-0.704-1.082   c-0.17-0.155-0.301-0.264-0.147-0.063c0.131,0.185,0.557,0.495,1.175,0.712c0.611,0.247,1.222,0.294,1.562,0.278   c0.634-0.031,0.155,0.031-0.564,0.618c-0.734,0.557-1.686,1.439-2.613,2.412c-0.936,0.959-1.879,2.103-2.784,3.217   c-1.824,2.288-3.51,4.731-5.025,7.052c-3.008,4.67-5.396,8.906-6.966,11.814c-1.647,3.047-2.583,4.794-2.583,4.794l-0.039,0.077   c-3.271,6.108-10.871,8.412-16.995,5.149c-6.108-3.278-8.404-10.887-5.134-16.994C157.249,408.412,157.411,408.15,157.55,407.918z"/>
</g>
<g xmlns="http://www.w3.org/2000/svg">
	<path fill="#F2F2F2" d="M214.603,374.27c0,0,0.17,0.247,0.495,0.711c0.116,0.154,0.232,0.31,0.371,0.495   c0.225,0.34,0.464,0.695,0.727,1.082c0.248,0.371,0.549,0.851,0.773,1.237c0.186,0.34,0.371,0.711,0.58,1.082   c0.804,1.563,1.5,3.309,2.126,5.212c0.611,1.901,1.098,3.942,1.523,6.077c1.608,8.535,1.686,18.68,1.137,28.623   c-0.565,9.912-1.817,19.576-2.915,26.782c-0.541,3.604-1.067,6.572-1.431,8.675c-0.379,2.072-0.595,3.264-0.595,3.264   c-0.789,4.376-4.972,7.252-9.34,6.479c-4.051-0.742-6.835-4.392-6.595-8.381l0.008-0.108c0,0,0.069-1.143,0.193-3.17   c0.108-2.041,0.263-4.933,0.371-8.381c0.224-6.928,0.294-16.159-0.271-25.175c-0.27-4.484-0.719-8.923-1.33-12.896   c-0.595-3.99-1.407-7.531-2.25-10.176c-0.425-1.299-0.858-2.381-1.252-3.186c-0.387-0.772-0.719-1.329-0.943-1.576   c-0.062-0.063-0.1-0.14-0.155-0.186c-0.015,0,0.039,0.123,0.07,0.154c0.023,0.061,0.062,0.107,0.101,0.154l0.023,0.031   l-0.077-0.093c-0.046-0.061-0.108-0.124-0.147-0.155c-0.386-0.401-0.58-0.634-0.58-0.634l-0.031-0.03   c-4.709-5.088-4.399-13.052,0.704-17.76c5.095-4.717,13.043-4.393,17.76,0.703C213.977,373.48,214.317,373.898,214.603,374.27z"/>
</g>
<g xmlns="http://www.w3.org/2000/svg">
	<path fill="#D3D3D3" d="M138.051,411.861c0,0,0.41,1.964,1.137,5.397c0.17,1.02,0.355,2.165,0.564,3.402   c0.201,1.236,0.44,2.582,0.564,3.928c0.139,1.376,0.293,2.814,0.456,4.36c0.085,1.546,0.17,3.154,0.263,4.855   c0.054,1.701,0.023,3.464,0.039,5.288c-0.039,1.825-0.17,3.712-0.263,5.66c-0.193,1.918-0.356,3.896-0.634,5.907   c-0.309,2.011-0.564,4.067-1.021,6.124c-0.758,4.113-1.91,8.257-3.178,12.401c-1.322,4.129-2.892,8.195-4.585,12.154   c-1.731,3.928-3.58,7.763-5.497,11.428c-1.933,3.634-3.897,7.159-5.822,10.469c-3.851,6.618-7.484,12.525-10.268,17.535   c-1.415,2.521-2.583,4.794-3.572,6.804c-0.958,2.011-1.701,3.742-2.258,5.165c-0.263,0.712-0.495,1.346-0.695,1.887   c-0.193,0.557-0.317,1.005-0.441,1.392c-0.224,0.742-0.348,1.145-0.348,1.145l-0.178,0.557c-1.322,4.222-5.814,6.588-10.036,5.273   c-4.021-1.253-6.34-5.396-5.435-9.434c0,0,0.123-0.571,0.371-1.623c0.131-0.541,0.263-1.206,0.464-1.948   c0.216-0.758,0.464-1.608,0.742-2.567c0.587-1.887,1.361-4.129,2.335-6.587c0.989-2.443,2.157-5.165,3.486-7.979   c5.297-11.381,13.129-25.082,18.023-39.076c1.206-3.495,2.272-6.99,3.115-10.438c0.789-3.464,1.485-6.851,1.841-10.144   c0.247-1.64,0.316-3.263,0.456-4.824c0.108-1.594,0.108-3.14,0.162-4.64c-0.046-1.5-0.046-2.969-0.116-4.36   c-0.116-1.393-0.186-2.753-0.316-4.067c-0.163-1.283-0.317-2.521-0.472-3.711c-0.209-1.19-0.41-2.289-0.596-3.341   c-0.17-1.082-0.41-1.948-0.611-2.799c-0.193-0.835-0.371-1.607-0.534-2.288c-0.951-3.355-1.492-5.273-1.492-5.273l-0.008-0.015   c-1.901-6.681,1.964-13.608,8.629-15.525c6.673-1.887,13.608,1.979,15.51,8.643C137.912,411.273,137.989,411.567,138.051,411.861z"/>
</g>
<path xmlns="http://www.w3.org/2000/svg" fill="#0E538C" d="M243.744,467.174l-21.974-10.236c-3.866-1.794-8.072-2.722-12.332-2.722h-3.286  c-3.781,0-6.858,3.062-6.858,6.866v3.974c0,4.438,3.588,8.025,8.018,8.025h35.164c1.701,0,3.07-1.392,3.07-3.093l0,0  C245.546,468.782,244.85,467.669,243.744,467.174z"/>
<path xmlns="http://www.w3.org/2000/svg" fill="#0E538C" d="M80.031,543.069L80.031,543.069c1.16-3.231,3.58-5.876,6.704-7.299l3.873-1.763  c3.232-1.484,7.06-0.649,9.379,2.041l8.644,10.005c0.742,0.851,1.144,1.948,1.144,3.077l0,0c0,2.613-2.11,4.732-4.724,4.732H87.624  C82.042,553.863,78.152,548.327,80.031,543.069z"/>
<g xmlns="http://www.w3.org/2000/svg">
	<path fill="#FEC296" d="M145.721,314.41c0,0,1.105-1.539,3.031-4.229c0.897-1.314,1.809-2.791,2.961-4.546   c1.105-1.833,2.381-3.958,3.688-6.309c0.634-1.19,1.307-2.436,1.995-3.719c0.696-1.284,1.33-2.668,2.026-4.06   c1.415-2.775,2.729-5.83,4.136-8.945c1.338-3.178,2.729-6.448,4.02-9.851c1.354-3.371,2.56-6.874,3.82-10.353   c1.198-3.518,2.428-7.021,3.518-10.531c1.137-3.479,2.172-6.95,3.178-10.298c1.013-3.356,1.902-6.626,2.791-9.719   c0.843-3.108,1.647-6.046,2.381-8.76c0.696-2.722,1.345-5.219,1.91-7.438c0.58-2.212,1.036-4.16,1.431-5.753   c0.796-3.193,1.245-5.01,1.245-5.01l0.008-0.07c0.85-3.44,4.33-5.551,7.77-4.701c3.371,0.828,5.451,4.183,4.755,7.546   c0,0-0.386,1.863-1.067,5.126c-0.348,1.632-0.734,3.619-1.245,5.892c-0.503,2.266-1.066,4.833-1.678,7.624   c-0.649,2.792-1.352,5.814-2.095,9.015c-0.812,3.193-1.593,6.564-2.505,10.044c-0.912,3.472-1.848,7.066-2.899,10.708   c-0.989,3.642-2.134,7.33-3.231,11.026c-1.198,3.672-2.327,7.361-3.619,10.963c-1.229,3.611-2.583,7.137-3.874,10.546   c-1.392,3.394-2.667,6.696-4.098,9.773c-0.704,1.539-1.338,3.054-2.049,4.492c-0.712,1.438-1.384,2.822-2.049,4.16   c-1.346,2.66-2.676,5.041-3.866,7.206c-1.299,2.157-2.451,4.129-3.371,5.575c-1.84,2.767-2.876,4.337-2.876,4.337   c-2.621,3.951-7.948,5.034-11.899,2.413c-3.951-2.613-5.033-7.941-2.42-11.892c0.054-0.077,0.101-0.155,0.154-0.225L145.721,314.41   z"/>
</g>
<path xmlns="http://www.w3.org/2000/svg" fill="#2A94F4" d="M163.682,327.051l-16.399,10.168l-9.966-24.332l14.543-12.564  C157.001,303.655,165.359,312.948,163.682,327.051z"/>
<path xmlns="http://www.w3.org/2000/svg" fill="#FEC296" d="M123.933,328.01c1.268,0.078,2.552,0.039,3.851-0.146c4.128-0.572,7.098-4.291,7.013-8.459l-0.495-24.37  l-18.587,0.371l0.495,24.393C116.293,324.113,119.626,327.739,123.933,328.01z"/>
<path xmlns="http://www.w3.org/2000/svg" fill="#F3A67D" d="M116.146,316.822c6.912,3.448,13.245,5.536,18.626,1.345l-0.387-19.004l-18.587,0.378L116.146,316.822z"/>
<path xmlns="http://www.w3.org/2000/svg" fill="#FEC296" d="M125.719,309.508l1.028,0.248c2.613,0.642,7.701,0.572,13.909-1.701l0.975-0.325  c7.824-2.637,13.461-9.51,14.497-17.706l0.154-1.229c0.495-3.881-0.479-7.809-2.729-11.018l-0.827-1.175l0.526-21.1  c-1.894-16.152-16.91-27.44-32.953-24.773l0,0c-15.518,2.583-25.994,17.266-23.397,32.775l3.062,18.301  C102.229,295.358,112.366,306.261,125.719,309.508z"/>
<path xmlns="http://www.w3.org/2000/svg" fill="#1E0F00" d="M108.809,266.465c0.078-0.201,0.163-0.402,0.24-0.595c0.951-2.164,2.281-4.168,3.085-6.394  c0.232-0.642,1.477-6.974,0.387-7.059c6.773,0.518,13.484,0.379,20.265,0.147c1.539-0.047,18.093-2.034,17.853-3.286  c1.655,8.505,2.513,19.221,2.087,27.324c3.278-2.15,6.355-5.366,8.242-8.807c1.879-3.44,2.645-7.569,1.67-11.358  c-0.649-2.513-2.42-5.064-5.018-5.32c2.335-3.749,3.943-7.94,4.724-12.285c0.363-2.034,0.549-4.168-0.085-6.132  c-0.626-1.972-2.227-3.734-4.275-4.044c-3.472-0.51-6.201,3.1-9.649,3.781c-3.302,0.665-6.44-1.438-9.34-3.154  c-3.247-1.91-6.727-3.433-10.33-4.531c-5.543-1.693-11.69-2.327-17.056-0.131c-5.961,2.42-8.899,8.172-10.307,14.319  c-6.967,2.374-11.165,9.959-11.451,17.312c-0.178,4.322,0.526,9.333-2.566,12.355c-1.098,1.067-2.668,1.902-2.915,3.41  c-0.263,1.561,1.19,2.992,2.745,3.301c1.554,0.301,3.139-0.193,4.647-0.696c-1.948,2.521-3.935,5.111-4.848,8.157  c-0.92,3.046-0.542,6.695,1.755,8.892c1.245,1.206,2.93,1.855,4.616,2.265c3.247,0.781,7.562,0.193,10.786-0.664  c-2.025-4.152-3.139-7.81-3.464-8.698c2.343,0.642,8.776-1.748,7.863-4.322C106.915,275.813,107.077,270.818,108.809,266.465z"/>
<path xmlns="http://www.w3.org/2000/svg" fill="#FEC296" d="M102.786,281.132c1.895,4.655,1.314,9.286-1.299,10.345c-2.621,1.067-6.271-1.84-8.165-6.487  c-1.894-4.654-1.315-9.286,1.299-10.353C97.234,273.57,100.892,276.478,102.786,281.132z"/>
<path xmlns="http://www.w3.org/2000/svg" fill="#FEC296" d="M198.521,188.993c6.634,1.693,11.041,6.936,9.819,11.706c-1.214,4.77-7.585,7.268-14.227,5.575  c-6.642-1.693-11.033-6.928-9.812-11.706C185.516,189.797,191.879,187.3,198.521,188.993z"/>
<path xmlns="http://www.w3.org/2000/svg" fill="#FEC296" d="M69.207,219.981c-2.513,6.371-8.265,10.075-12.85,8.266c-4.578-1.81-6.255-8.443-3.735-14.814  c2.513-6.371,8.266-10.074,12.851-8.265C70.05,206.977,71.728,213.61,69.207,219.981z"/>
<path xmlns="http://www.w3.org/2000/svg" fill="#ffbe55" d="M152.169,357.043c0,10.724-6.896,19.391-15.409,19.391c-8.521,0-15.425-8.667-15.425-19.391  c0-10.716,6.904-19.399,15.425-19.399C145.273,337.644,152.169,346.327,152.169,357.043z"/>
<g xmlns="http://www.w3.org/2000/svg">
	<path fill="#FEC296" d="M92.657,340.675c0,0-1.005-1.608-2.752-4.446c-0.874-1.43-1.941-3.069-3.155-5.142   c-1.214-2.072-2.59-4.399-4.083-6.943c-1.407-2.575-2.969-5.342-4.554-8.319c-1.508-3.039-3.209-6.147-4.725-9.556   c-0.757-1.693-1.608-3.371-2.327-5.157c-0.734-1.771-1.477-3.564-2.227-5.374c-1.376-3.68-2.775-7.422-3.912-11.242   c-0.634-1.894-1.152-3.82-1.663-5.729c-0.526-1.918-1.036-3.82-1.438-5.722c-0.928-3.796-1.608-7.531-2.296-11.149   c-0.58-3.603-1.183-7.09-1.616-10.384c-0.479-3.294-0.851-6.386-1.206-9.247c-0.371-2.861-0.642-5.459-0.913-7.771   c-0.263-2.311-0.487-4.322-0.672-5.977c-0.364-3.31-0.572-5.204-0.572-5.204c-0.387-3.526,2.149-6.696,5.675-7.083   c3.44-0.386,6.541,2.019,7.059,5.405v0.023c0,0,0.286,1.871,0.781,5.149c0.255,1.64,0.557,3.627,0.905,5.907   c0.371,2.273,0.743,4.855,1.214,7.624c0.464,2.784,0.951,5.799,1.546,8.938c0.549,3.17,1.253,6.441,1.94,9.843   c0.789,3.348,1.562,6.819,2.552,10.26c0.44,1.74,0.974,3.456,1.531,5.165c0.533,1.724,1.066,3.448,1.709,5.134   c1.175,3.417,2.582,6.742,3.951,10.013c0.75,1.616,1.492,3.224,2.227,4.801c0.712,1.593,1.57,3.116,2.328,4.639   c1.5,3.046,3.224,5.907,4.732,8.66c1.593,2.721,3.17,5.273,4.593,7.639c1.492,2.311,2.853,4.43,4.066,6.309   c1.191,1.871,2.397,3.572,3.31,4.933c1.863,2.752,2.93,4.337,2.93,4.337c2.753,4.06,1.693,9.595-2.373,12.348   c-4.075,2.761-9.61,1.693-12.363-2.366c-0.062-0.101-0.123-0.185-0.178-0.278L92.657,340.675z"/>
</g>
<polygon xmlns="http://www.w3.org/2000/svg" fill="#2A94F4" points="113.41,362.068 84.787,337.219 96.956,310.923 106.853,320.587 "/>
<path xmlns="http://www.w3.org/2000/svg" fill="#2A94F4" d="M333.703,393.258l-42.95-1.731c-9.44-0.387-17.087-8.582-17.853-19.128l0.023-0.758  c0.34-11.69,3.642-23.103,9.603-33.154l0,0c1.121-18.309-6.355-32.798-15.479-46.553c20.389-12.472,31.986-16.585,58.962-13.925  c3.185,16.438-0.286,36.988-2.095,57.176c0,0,6.642,10.763,8.358,18.533c1.84,8.319,4.639,17.659,9.317,29.582  C343.546,388.325,338.528,393.444,333.703,393.258z"/>
<path xmlns="http://www.w3.org/2000/svg" fill="#ffbe55" d="M336.263,368.501c1.105,3.171,3.904,11.212,5.327,14.799c1.956,5.025-3.062,10.145-7.887,9.958l-42.95-1.731  c-9.44-0.387-17.087-8.582-17.853-19.128l-0.131-1.848C300.557,361.551,318.023,376.542,336.263,368.501z"/>
<g xmlns="http://www.w3.org/2000/svg">
	<path fill="#ffbe55" d="M339.162,378.553c0,0,0.966,2.088,2.644,5.706c0.417,0.928,0.881,1.917,1.392,3.03   c0.502,1.145,1.051,2.397,1.639,3.727c0.588,1.33,1.206,2.737,1.863,4.253c0.634,1.484,1.268,3.077,1.941,4.731   c0.665,1.671,1.399,3.341,2.08,5.165c0.665,1.825,1.361,3.712,2.08,5.645c0.734,1.902,1.368,3.974,2.049,6.046   c0.649,2.088,1.407,4.176,1.972,6.402c0.595,2.195,1.214,4.453,1.825,6.711c0.51,2.305,1.02,4.654,1.53,7.005l0.387,1.778   l0.278,1.794c0.193,1.222,0.387,2.412,0.572,3.634c0.185,1.206,0.395,2.412,0.564,3.634l0.348,3.681   c0.588,4.887,0.627,9.835,0.758,14.659c-0.178,4.825-0.232,9.572-0.812,14.103c-0.341,4.578-1.145,8.877-1.802,12.975   c-0.294,2.072-0.805,4.005-1.206,5.906c-0.425,1.902-0.835,3.728-1.229,5.49c-0.881,3.464-1.832,6.602-2.605,9.402   c-0.201,0.695-0.395,1.376-0.572,2.041c-0.217,0.618-0.418,1.252-0.619,1.855c-0.401,1.175-0.765,2.258-1.098,3.231   c-1.322,3.912-2.08,6.17-2.08,6.17c-1.422,4.19-5.976,6.448-10.167,5.011c-4.036-1.361-6.271-5.598-5.18-9.649l0.1-0.402   c0,0,0.58-2.134,1.585-5.876c0.248-0.928,0.534-1.964,0.836-3.093c0.154-0.557,0.309-1.144,0.472-1.747   c0.131-0.604,0.263-1.222,0.401-1.902c0.557-2.598,1.253-5.536,1.864-8.752c0.255-1.608,0.526-3.294,0.796-5.011   c0.255-1.747,0.626-3.525,0.758-5.381c0.355-3.696,0.843-7.577,0.889-11.583c0.271-4.005,0.031-8.118-0.054-12.293   c-0.387-4.176-0.665-8.381-1.431-12.541l-0.495-3.123l-0.68-3.094c-0.232-1.035-0.457-2.057-0.681-3.076l-0.332-1.547l-0.433-1.5   c-0.565-2.025-1.137-4.005-1.686-5.984c-0.672-1.948-1.329-3.866-1.979-5.783c-0.595-1.887-1.407-3.727-2.103-5.536   c-0.719-1.81-1.369-3.588-2.165-5.288c-0.75-1.701-1.484-3.371-2.196-4.98c-0.704-1.608-1.5-3.155-2.188-4.64   c-0.727-1.484-1.392-2.906-2.064-4.236c-0.688-1.33-1.338-2.598-1.948-3.773c-0.611-1.206-1.183-2.304-1.709-3.34   c-0.572-1.052-1.09-2.026-1.561-2.907c-1.895-3.526-2.984-5.536-2.984-5.536c-3.286-6.093-1.013-13.716,5.087-17.002   c6.101-3.286,13.716-1.006,17.003,5.095c0.116,0.217,0.224,0.434,0.332,0.649L339.162,378.553z"/>
</g>
<g xmlns="http://www.w3.org/2000/svg">
	<path fill="#ffbe55" d="M306.998,377.517c0,0,0.433,2.428,1.183,6.649c0.185,1.082,0.402,2.258,0.626,3.525   c0.225,1.268,0.395,2.846,0.626,4.423c0.209,1.593,0.433,3.278,0.673,5.072c0.116,0.897,0.232,1.824,0.355,2.752   c0.108,0.928,0.17,1.855,0.271,2.814c0.17,1.917,0.355,3.897,0.541,5.969c0.085,1.02,0.178,2.072,0.278,3.124   c0.061,1.082,0.116,2.149,0.17,3.247c0.24,4.36,0.526,8.969,0.557,13.731c0.031,2.382,0.124,4.794,0.108,7.237   c-0.023,2.443-0.046,4.917-0.077,7.392c0,2.505-0.101,5.01-0.201,7.516c-0.101,2.505-0.209,5.025-0.317,7.546   c-0.34,5.025-0.587,10.052-1.098,14.999c-0.232,2.459-0.417,4.918-0.696,7.314c-0.271,2.412-0.549,4.81-0.812,7.129   c-0.255,2.351-0.618,4.654-0.92,6.896c-0.325,2.242-0.587,4.454-0.959,6.588c-0.348,2.134-0.68,4.206-1.013,6.217   c-0.332,2.01-0.727,3.942-1.059,5.813c-0.665,3.712-1.438,7.113-2.08,10.145c-0.657,3-1.354,5.644-1.863,7.81   c-0.572,2.164-1.083,3.881-1.407,5.056c-0.325,1.16-0.495,1.778-0.495,1.778c-1.206,4.268-5.637,6.758-9.896,5.552   c-4.105-1.16-6.557-5.288-5.668-9.417l0.077-0.355c0,0,0.124-0.588,0.356-1.64c0.231-1.083,0.595-2.629,0.997-4.654   c0.363-2.042,0.866-4.5,1.322-7.376c0.44-2.877,0.99-6.093,1.415-9.681c0.208-1.778,0.479-3.634,0.696-5.567   c0.193-1.933,0.402-3.928,0.619-5.984c0.232-2.041,0.371-4.159,0.557-6.324c0.154-2.165,0.387-4.36,0.495-6.618   c0.124-2.258,0.255-4.546,0.387-6.866c0.139-2.304,0.163-4.654,0.263-7.02c0.208-4.732,0.163-9.526,0.224-14.335   c-0.039-2.397-0.085-4.778-0.116-7.175c-0.039-2.382-0.078-4.748-0.216-7.099c-0.108-2.351-0.217-4.7-0.325-6.989   c-0.116-2.319-0.34-4.577-0.502-6.804c-0.286-4.454-0.804-8.722-1.245-12.773c-0.116-1.02-0.225-2.01-0.34-2.999   c-0.139-0.975-0.286-1.934-0.425-2.877c-0.286-1.887-0.549-3.711-0.804-5.474c-0.147-0.866-0.255-1.732-0.402-2.552   c-0.154-0.805-0.302-1.593-0.448-2.366c-0.294-1.515-0.564-2.969-0.827-4.345c-0.279-1.377-0.464-2.583-0.758-3.851   c-0.302-1.269-0.572-2.443-0.828-3.464c-0.99-4.206-1.554-6.588-1.554-6.588l-0.008-0.016c-1.593-6.757,2.575-13.507,9.325-15.107   c6.742-1.601,13.499,2.574,15.092,9.309C306.913,377.037,306.967,377.3,306.998,377.517z"/>
</g>
<path xmlns="http://www.w3.org/2000/svg" fill="#FFFFFF" d="M370.398,552.192l-14.536-19.391c-2.552-3.418-5.822-6.233-9.572-8.242l-2.892-1.547  c-3.34-1.809-7.507-0.541-9.286,2.8l-1.895,3.525c-2.088,3.881-0.626,8.736,3.278,10.84l30.989,16.623  c1.5,0.805,3.355,0.232,4.159-1.252l0,0C371.218,554.481,371.125,553.183,370.398,552.192z"/>
<path xmlns="http://www.w3.org/2000/svg" fill="#FFFFFF" d="M276.712,543.255L276.712,543.255c1.292-3.186,3.812-5.722,6.99-7.021l3.943-1.608  c3.294-1.36,7.075-0.371,9.294,2.413l8.227,10.359c0.712,0.866,1.075,1.995,1.02,3.124l0,0c-0.1,2.599-2.304,4.64-4.909,4.531  l-17.42-0.712C278.282,554.11,274.617,548.45,276.712,543.255z"/>
<g xmlns="http://www.w3.org/2000/svg">
	<path fill="#FEC296" d="M315.395,281.473c0,0,1.183-1.508,3.239-4.145c0.982-1.299,2.057-2.822,3.348-4.601   c1.253-1.84,2.698-3.936,4.183-6.278c1.477-2.351,3.085-4.902,4.662-7.686c1.647-2.737,3.216-5.737,4.894-8.814   c1.593-3.116,3.271-6.332,4.832-9.681c1.631-3.301,3.131-6.757,4.67-10.183c1.461-3.472,2.977-6.912,4.322-10.376   c1.399-3.44,2.675-6.858,3.912-10.175c1.253-3.31,2.327-6.564,3.425-9.626c1.028-3.085,1.995-6,2.885-8.691   c0.842-2.714,1.615-5.196,2.296-7.399c0.704-2.204,1.222-4.152,1.701-5.737c0.92-3.185,1.438-5.002,1.438-5.002l0.031-0.093   c0.796-2.729,3.649-4.307,6.387-3.519c2.69,0.781,4.252,3.557,3.557,6.248c0,0-0.479,1.871-1.33,5.142   c-0.448,1.631-0.912,3.626-1.561,5.899c-0.635,2.265-1.361,4.825-2.135,7.624c-0.835,2.783-1.747,5.791-2.69,8.977   c-1.036,3.17-2.057,6.533-3.247,9.966c-1.168,3.448-2.381,7.005-3.727,10.584c-1.275,3.604-2.745,7.206-4.145,10.833   c-1.516,3.595-2.953,7.213-4.561,10.708c-1.531,3.525-3.178,6.936-4.755,10.245c-1.67,3.278-3.232,6.471-4.887,9.425   c-1.585,2.984-3.217,5.744-4.717,8.296c-1.53,2.552-3,4.824-4.314,6.881c-1.392,2.034-2.613,3.866-3.611,5.273   c-1.987,2.698-3.124,4.237-3.124,4.237c-2.257,3.062-6.564,3.719-9.634,1.461c-3.062-2.258-3.711-6.564-1.461-9.634   c0.031-0.039,0.062-0.085,0.101-0.131L315.395,281.473z"/>
</g>
<path xmlns="http://www.w3.org/2000/svg" fill="#2A94F4" d="M336.054,290.395l-16.793,12.951l-8.984-24.719l15.039-11.969  C330.316,270.199,334.886,277.49,336.054,290.395z"/>
<path xmlns="http://www.w3.org/2000/svg" fill="#FEC296" d="M298.014,288.624c0.966,0.124,1.94,0.148,2.938,0.07c3.155-0.247,5.59-2.938,5.722-6.108l0.75-18.541  l-14.149-0.572l-0.75,18.549C292.393,285.308,294.758,288.215,298.014,288.624z"/>
<path xmlns="http://www.w3.org/2000/svg" fill="#F3A67D" d="M292.624,279.756c5.08,2.946,9.796,4.825,14.08,1.887l0.587-14.451l-14.141-0.572L292.624,279.756z"/>
<path xmlns="http://www.w3.org/2000/svg" fill="#FEC296" d="M299.266,274.545l1.044-0.093c2.683-0.232,7.477-1.918,12.649-6.054l0.804-0.619  c6.58-4.995,9.719-13.306,8.096-21.409l-0.248-1.214c-0.766-3.835-2.946-7.245-6.108-9.564l-1.16-0.85l-6.247-20.165  c-6.943-14.706-24.773-20.605-39.131-12.958l0,0c-13.878,7.407-19.12,24.665-11.698,38.535l8.737,16.361  C272.491,268.638,285.573,275.728,299.266,274.545z"/>
<path xmlns="http://www.w3.org/2000/svg" fill="#1E0F00" d="M269.483,239.156c0.015-0.216,0.031-0.433,0.046-0.642c0.209-2.358,0.835-4.67,0.874-7.043  c0.016-0.673-0.819-7.083-1.879-6.812c6.58-1.67,12.897-3.943,19.252-6.332c1.431-0.541,16.492-7.709,15.866-8.814  c5.219,9.17,7.716,15.572,10.701,25.229c0,0,7.646,3.549,7.948,15.912c0.163,6.804-4.129,13.717-8.528,17.126  c9.967-2.899,17.645-9.139,21.719-18.688c1.407-3.278,2.258-7.229,0.425-10.299c-2.76-4.631-9.564-4.422-14.033-7.438  c-0.664-0.456-1.299-1.013-1.662-1.74c-0.348-0.711-0.402-1.538-0.41-2.335c-0.062-4.438,0.904-8.845,0.858-13.283  c-0.046-4.445-1.33-9.224-4.871-11.899c-3.047-2.296-7.075-2.614-10.848-3.085c-10.291-1.307-19.5-6.031-29.945-5.729  c-5.807,0.17-11.822,1.53-16.222,5.319c-4.863,4.206-5.814,10.592-5.187,16.871c-5.753,4.407-7.183,12.633-5.714,19.391  c0.672,3.085,2.18,5.876,3.727,8.59c1.175,2.057,3.101,4.585,3.44,6.951c0.116,0.858,0.047,1.771-0.394,2.513  c-0.302,0.518-0.766,0.92-1.214,1.314c-1.886,1.709-6.378,10.871-5.736,13.337c0.92,3.557,33.641,6.619,38.272,5.83  c-3.255-1.639-6.541-3.131-9.672-5.033c-3.766-2.289-6.077-6.039-8.799-9.44c2.428-0.124,7.755-4.454,6.077-6.596  C270.674,248.628,269.236,243.842,269.483,239.156z"/>
<path xmlns="http://www.w3.org/2000/svg" fill="#FEC296" d="M375.563,158.406c5.613,3.92,7.887,10.376,5.057,14.412c-2.829,4.036-9.664,4.128-15.277,0.208  c-5.613-3.928-7.879-10.384-5.065-14.419C363.1,154.571,369.935,154.478,375.563,158.406z"/>
<path xmlns="http://www.w3.org/2000/svg" fill="#FEC296" d="M245.979,183.047c-2.775,6.263-8.667,9.727-13.175,7.732c-4.5-1.987-5.907-8.683-3.139-14.946  c2.776-6.27,8.667-9.734,13.175-7.739C247.347,170.089,248.747,176.776,245.979,183.047z"/>
<path xmlns="http://www.w3.org/2000/svg" fill="#ffbe55" d="M323.335,323.348c-0.433,10.701-7.678,19.105-16.183,18.757c-8.513-0.34-15.061-9.301-14.628-20.002  c0.441-10.708,7.677-19.105,16.19-18.765C317.227,303.678,323.775,312.639,323.335,323.348z"/>
<g xmlns="http://www.w3.org/2000/svg">
	<path fill="#FEC296" d="M273.179,300.168c0,0-0.943-1.624-2.606-4.469c-1.654-2.869-4.02-6.959-6.85-11.876   c-1.399-2.482-2.899-5.173-4.5-8.026c-1.546-2.9-3.255-5.884-4.871-9.108c-0.828-1.608-1.678-3.217-2.498-4.887   c-0.811-1.678-1.623-3.379-2.458-5.095c-1.578-3.471-3.186-6.997-4.577-10.646l-1.083-2.722l-0.967-2.76   c-0.649-1.84-1.314-3.657-1.84-5.513c-0.533-1.848-1.152-3.657-1.601-5.489c-0.472-1.825-0.928-3.626-1.376-5.397   c-0.75-3.572-1.531-7.013-2.041-10.291c-0.596-3.278-0.998-6.371-1.384-9.232c-0.425-2.86-0.626-5.474-0.897-7.786   c-0.27-2.327-0.425-4.337-0.557-5.999c-0.278-3.325-0.433-5.219-0.433-5.219c-0.232-2.737,1.801-5.142,4.538-5.365   c2.683-0.225,5.041,1.724,5.343,4.368l0.016,0.116c0,0,0.216,1.84,0.595,5.072c0.186,1.616,0.394,3.58,0.727,5.806   c0.34,2.227,0.602,4.778,1.098,7.484c0.456,2.722,0.936,5.683,1.601,8.753c0.58,3.093,1.415,6.278,2.219,9.595   c0.472,1.632,0.959,3.294,1.438,4.972c0.464,1.686,1.106,3.333,1.639,5.025c0.542,1.701,1.222,3.363,1.863,5.042l0.975,2.52   l1.09,2.498c1.399,3.34,3.023,6.61,4.608,9.827c0.835,1.6,1.662,3.193,2.482,4.755c0.82,1.569,1.708,3.101,2.536,4.608   c1.64,3.031,3.41,5.915,4.995,8.675c1.662,2.745,3.216,5.335,4.662,7.724c2.969,4.77,5.436,8.753,7.168,11.536   c1.74,2.791,2.745,4.384,2.745,4.384c2.018,3.224,1.036,7.477-2.188,9.502c-3.224,2.01-7.477,1.036-9.495-2.188   C273.256,300.307,273.21,300.222,273.179,300.168z"/>
</g>
<polygon xmlns="http://www.w3.org/2000/svg" fill="#2A94F4" points="280.377,316.575 267.048,291.934 279.07,277.599 289.547,296.194 "/>
<path xmlns="http://www.w3.org/2000/svg" fill="#0E538C" d="M405.083,232.7c0.495-0.843,0.773-1.824,0.804-2.799c0.078-3.038-2.211-5.752-4.963-7.051  c-2.737-1.292-5.877-1.438-8.907-1.415c1.948-0.016,5.025-2.227,7.252-2.621c3.479-0.604,7.129-0.657,10.624-0.975  c2.659-0.239,5.412-0.479,7.933,0.41c2.892,1.02,5.18,3.518,6.123,6.44c0.943,2.923,0.588,6.201-0.788,8.945  c-0.604,1.191-1.407,2.312-2.506,3.093c-2.721,1.964-6.433,1.384-9.804,1.253c-5.845-0.225-11.752,1.198-16.854,4.059  c1.777-1.005,2.829-2.745,4.236-4.036c1.686-1.554,3.278-2.234,5.242-3.564C404.124,233.984,404.681,233.389,405.083,232.7z"/>
<path xmlns="http://www.w3.org/2000/svg" fill="#2A94F4" d="M241.139,174.194c1.09,4.948-2.969,10.708-0.016,14.821c1.198,1.663,3.232,2.459,5.149,3.163  c14.984,5.505,30.192,10.399,45.579,14.652c6.023,1.67,12.17,3.247,18.425,3.178c11.52-0.132,22.337-5.899,31.128-13.345  c10.461-8.876,28.994-26.605,25.978-39.084C328.36,173.537,282.31,183.294,241.139,174.194z"/>
<path xmlns="http://www.w3.org/2000/svg" fill="#2A94F4" d="M391.846,222.61c-5.705-0.186-10.886-3.928-14.071-8.69c-3.185-4.755-4.67-10.43-5.768-16.051  c-0.788-4.005-1.406-8.041-1.84-12.093c-0.34-3.147-0.525-6.503,0.943-9.309c1.469-2.807,5.211-4.663,7.918-3.031  c1.747,11.265,5.195,22.26,10.221,32.481c1.377,2.76,2.892,5.536,5.227,7.554c4.654,3.997,11.366,4.167,17.505,4.121  c-4.964,2.142-10.175,3.688-15.51,4.593C394.954,222.448,393.408,222.657,391.846,222.61z"/>
<path xmlns="http://www.w3.org/2000/svg" fill="#2A94F4" d="M379.537,263.713c1.098,2.072,3.418,3.162,5.598,4.028c4.887,1.964,9.928,3.572,15.061,4.809  c-2.458-10.013-0.974-20.93,4.036-29.93c1.315-2.358,3.201-4.801,5.892-5.087c-7.283-0.34-14.845,0.804-21.03,4.678  c-6.17,3.874-10.701,10.833-10.346,18.108C378.81,261.486,378.996,262.677,379.537,263.713z"/>
<path xmlns="http://www.w3.org/2000/svg" fill="#0E538C" d="M198.83,267.393c-0.673-3.386,0.89-7.105,3.781-9c3.703-2.428,8.605-1.724,12.827-3.085  c2.792-0.889,5.397-2.721,8.327-2.652c-3.858,3.904-5.157,9.981-3.727,15.278c1.43,5.304,5.358,9.757,10.198,12.34  c-4.855-0.781-9.727-1.569-14.597-2.35c-3.487-0.564-7.044-1.145-10.198-2.722C202.286,273.617,199.519,270.856,198.83,267.393z"/>
<path xmlns="http://www.w3.org/2000/svg" fill="#2A94F4" d="M241.316,225.301c0.124,8.567-1.145,18-7.469,23.76c-3.982,3.626-9.387,5.227-14.667,6.278  c-4.237,0.843-8.528,1.407-12.835,1.678c9.765-0.557,18.595-8.582,20.079-18.254c2.01-13.075-8.057-25.716-6.239-38.821  c0.989-7.136,5.729-13.646,12.232-16.754c0.124,5.853,2.876,11.273,4.802,16.801C240.048,208.09,241.185,216.719,241.316,225.301z"/>
<g xmlns="http://www.w3.org/2000/svg">
	<path fill="#2A94F4" d="M239.29,292.135c-0.773,0-1.477-0.526-1.678-1.307c-0.387-1.585-1.392-3.185-2.922-4.64   c-1.469-1.392-3.271-2.544-5.018-3.657l-3.789-2.42c-0.804-0.51-1.036-1.577-0.526-2.381c0.518-0.797,1.578-1.036,2.381-0.519   l3.788,2.42c1.879,1.199,3.828,2.443,5.528,4.059c2.018,1.902,3.355,4.09,3.912,6.317c0.216,0.92-0.348,1.856-1.276,2.08   C239.569,292.127,239.422,292.135,239.29,292.135z"/>
</g>
<g xmlns="http://www.w3.org/2000/svg">
	<path fill="#2A94F4" d="M231.953,294.152c-0.758,0-1.454-0.51-1.662-1.283c-1.492-5.69-5.157-10.824-10.036-14.087   c-0.796-0.534-1.005-1.6-0.487-2.389c0.534-0.796,1.601-1.005,2.397-0.48c5.574,3.734,9.757,9.588,11.45,16.082   c0.255,0.92-0.301,1.863-1.222,2.104C232.247,294.137,232.107,294.152,231.953,294.152z"/>
</g>
<g xmlns="http://www.w3.org/2000/svg">
	<path fill="#2A94F4" d="M211.503,292.32c-0.055,0-0.116-0.008-0.17-0.016c-0.951-0.093-1.647-0.936-1.546-1.887   c0.526-5.188-1.469-10.662-5.219-14.296c-0.681-0.657-0.696-1.747-0.039-2.428c0.657-0.688,1.748-0.704,2.436-0.039   c4.554,4.407,6.889,10.802,6.247,17.111C213.134,291.655,212.376,292.32,211.503,292.32z"/>
</g>
<g xmlns="http://www.w3.org/2000/svg">
	<path fill="#2A94F4" d="M217.317,293.155c-0.054,0-0.101,0-0.155-0.008c-0.943-0.077-1.646-0.912-1.569-1.855   c0.224-2.66-0.371-5.605-1.709-8.52c-1.105-2.382-2.667-4.755-5.072-7.701c-0.611-0.734-0.495-1.824,0.24-2.42   c0.734-0.603,1.824-0.495,2.42,0.24c2.598,3.178,4.307,5.784,5.528,8.435c1.601,3.457,2.304,6.998,2.025,10.253   C218.948,292.475,218.198,293.155,217.317,293.155z"/>
</g>
<g xmlns="http://www.w3.org/2000/svg">
	<path fill="#2A94F4" d="M228.041,294.493c-0.766,0-1.461-0.503-1.67-1.268c-2.041-7.554-5.041-12.78-9.178-15.989   c-0.75-0.58-0.882-1.662-0.294-2.412c0.58-0.75,1.654-0.889,2.404-0.31c4.755,3.688,8.157,9.51,10.392,17.807   c0.255,0.92-0.294,1.871-1.206,2.118C228.335,294.478,228.18,294.493,228.041,294.493z"/>
</g>
<g xmlns="http://www.w3.org/2000/svg">
	<path fill="#2A94F4" d="M224.005,294.253c-0.881,0-1.631-0.673-1.717-1.561c-0.518-5.698-3.232-11.204-7.43-15.101   c-0.696-0.649-0.735-1.739-0.085-2.435c0.649-0.695,1.739-0.734,2.436-0.085c4.801,4.461,7.909,10.763,8.513,17.296   c0.093,0.951-0.604,1.786-1.555,1.879C224.121,294.245,224.059,294.253,224.005,294.253z"/>
</g>
<g xmlns="http://www.w3.org/2000/svg">
	<path fill="#2A94F4" d="M220.742,294.563c-0.89,0-1.647-0.681-1.725-1.585c-0.44-5.42-2.28-10.686-5.296-15.216   c-0.17-0.255-0.433-0.672-0.665-0.804c-0.819-0.479-1.105-1.531-0.618-2.351c0.479-0.819,1.53-1.105,2.35-0.618   c0.851,0.487,1.369,1.222,1.801,1.863c3.34,5.018,5.366,10.84,5.869,16.84c0.078,0.951-0.626,1.786-1.577,1.863   C220.835,294.563,220.788,294.563,220.742,294.563z"/>
</g>
<g xmlns="http://www.w3.org/2000/svg">
	<path fill="#2A94F4" d="M410.696,284.411c-0.108,0-0.232-0.008-0.355-0.039c-7.206-1.516-13.299-7.601-14.86-14.791   c-0.201-0.936,0.401-1.848,1.33-2.049c0.912-0.201,1.84,0.387,2.041,1.322c1.267,5.907,6.293,10.901,12.2,12.147   c0.943,0.201,1.531,1.113,1.33,2.041C412.212,283.853,411.5,284.411,410.696,284.411z"/>
</g>
<g xmlns="http://www.w3.org/2000/svg">
	<path fill="#2A94F4" d="M389.759,283.56c-0.371,0-0.758-0.124-1.083-0.379c-3.03-2.443-5.288-5.234-6.727-8.289   c-1.654-3.541-2.103-7.399-1.283-10.863c0.34-1.415,1.16-1.925,1.778-2.11c0.912-0.263,1.871,0.263,2.134,1.183   c0.201,0.688-0.046,1.392-0.572,1.817c-0.618,2.752-0.232,5.737,1.067,8.513c1.206,2.574,3.154,4.956,5.768,7.066   c0.742,0.596,0.866,1.686,0.263,2.42C390.764,283.344,390.269,283.56,389.759,283.56z"/>
</g>
<g xmlns="http://www.w3.org/2000/svg">
	<path fill="#2A94F4" d="M380.342,280.05c-0.557,0-1.113-0.271-1.439-0.781c-1.731-2.644-2.489-5.829-2.149-8.969   c0.34-3.147,1.778-6.085,4.036-8.296c0.681-0.665,1.778-0.657,2.428,0.023c0.681,0.68,0.665,1.771-0.016,2.436   c-1.67,1.631-2.768,3.897-3.016,6.208c-0.263,2.32,0.325,4.763,1.593,6.719c0.525,0.796,0.31,1.863-0.494,2.381   C380.99,279.957,380.666,280.05,380.342,280.05z"/>
</g>
<g xmlns="http://www.w3.org/2000/svg">
	<path fill="#2A94F4" d="M404.14,285.539c-0.247,0-0.495-0.046-0.727-0.162c-6.696-3.131-11.474-10.198-11.892-17.582   c-0.047-0.951,0.681-1.763,1.639-1.817c0.928-0.07,1.748,0.672,1.81,1.631c0.341,6.146,4.314,12.038,9.896,14.651   c0.866,0.402,1.237,1.431,0.835,2.289C405.408,285.176,404.773,285.539,404.14,285.539z"/>
</g>
<g xmlns="http://www.w3.org/2000/svg">
	<path fill="#2A94F4" d="M393.748,283.792c-0.418,0-0.85-0.154-1.175-0.464c-1.794-1.678-4.067-3.959-5.675-6.742   c-1.934-3.294-2.877-7.206-2.676-11.01c0.061-0.943,0.85-1.67,1.824-1.624c0.943,0.046,1.671,0.858,1.624,1.81   c-0.17,3.147,0.618,6.371,2.196,9.092c1.392,2.397,3.433,4.446,5.057,5.961c0.695,0.649,0.727,1.739,0.092,2.428   C394.676,283.606,394.212,283.792,393.748,283.792z"/>
</g>
<g xmlns="http://www.w3.org/2000/svg">
	<path fill="#2A94F4" d="M399.145,285.996c-0.448,0-0.897-0.178-1.236-0.526c-2.258-2.327-4.608-4.731-6.464-7.593   c-2.134-3.309-3.232-6.78-3.17-10.021c0.015-0.951,0.819-1.763,1.747-1.685c0.959,0.015,1.717,0.804,1.701,1.755   c-0.063,3.224,1.392,6.178,2.629,8.087c1.654,2.567,3.881,4.848,6.03,7.052c0.665,0.68,0.649,1.771-0.03,2.436   C400.011,285.833,399.578,285.996,399.145,285.996z"/>
</g>
<path xmlns="http://www.w3.org/2000/svg" fill="#ffbe55" d="M292.794,195.07c0.564,5.892,9.796,9.819,20.597,8.776c10.825-1.044,19.121-6.665,18.549-12.557  c-0.564-5.892-9.796-9.827-20.598-8.775C300.526,183.558,292.23,189.178,292.794,195.07z"/>
<path xmlns="http://www.w3.org/2000/svg" fill="#FEC296" d="M242.87,169.029c1.129,0.533,1.918,1.585,2.645,2.605c0.889,1.253,1.763,2.521,2.613,3.796  c0.92,1.376,1.855,2.969,1.523,4.585c-0.487,2.335-3.248,3.348-5.598,3.711c-2.645,0.41-5.428,0.518-7.918-0.464  c-2.489-0.975-4.615-3.255-4.724-5.931c-0.147-3.363,2.768-6.069,5.76-7.6C238.942,168.836,241.084,168.171,242.87,169.029z"/>
<path xmlns="http://www.w3.org/2000/svg" fill="#FEC296" d="M363.68,167.444c-2.907-2.126-3.773-6.58-1.871-9.634c1.895-3.054,6.27-4.26,9.471-2.598  c0.681,0.348,1.299,0.811,1.871,1.314c2.783,2.396,4.654,5.822,5.165,9.448c-3.108,1.994-6.989,2.249-10.685,2.451  c-0.681,0.038-1.346,0.07-2.003-0.062C364.924,168.218,364.26,167.877,363.68,167.444z"/>
<g xmlns="http://www.w3.org/2000/svg">
	<g>
		<path fill="#E3E3E3" d="M468.716,534.951v-28.686c0-12.37,10.082-22.483,22.483-22.483h159.182    c12.402,0,22.484,10.113,22.484,22.483v28.686c0,12.401-10.082,22.483-22.484,22.483H491.199    C478.798,557.435,468.716,547.352,468.716,534.951z M529.101,496.029c-5.659,0-10.252,4.593-10.252,10.236v28.686    c0,5.659,4.593,10.252,10.252,10.252h78.493c5.659,0,10.252-4.593,10.252-10.252v-28.686c0-5.643-4.593-10.236-10.252-10.236    H529.101z"/>
		<path fill="#D3D3D3" d="M617.846,534.951v-28.686c0-5.087-3.742-9.324-8.629-10.098h41.922c5.366,0,9.727,4.346,9.727,9.727    v29.242c0,5.365-4.36,9.727-9.727,9.727h-40.932C614.599,543.703,617.846,539.698,617.846,534.951z"/>
		<path fill="#D3D3D3" d="M491.199,483.782h39.03h-0.186c-13.283,0-24.046,10.763-24.046,24.062v25.545    c0,13.283,10.763,24.046,24.046,24.046l0,0h-38.845c-12.417,0-22.483-10.051-22.483-22.483v-28.686    C468.716,493.864,478.782,483.782,491.199,483.782z"/>
	</g>
	<g>
		
			<rect x="476.757" y="306.647" transform="matrix(-1 -1.224647e-16 1.224647e-16 -1 1149.6219 752.4512)" fill="#3A3A3A" width="196.108" height="139.156"/>
		
			<rect x="475.612" y="306.647" transform="matrix(-1 -1.224647e-16 1.224647e-16 -1 958.9717 752.4512)" fill="#1E0F00" width="7.747" height="139.156"/>
		<g>
			<path fill="#1E0F00" d="M638.552,423.69H519.08v-90.632h119.472V423.69z M530.646,412.124h96.338v-67.499h-96.338V412.124z"/>
		</g>
		
			<rect x="557.167" y="445.804" transform="matrix(-1 -1.224647e-16 1.224647e-16 -1 1156.9365 929.5244)" fill="#3A3A3A" width="42.602" height="37.917"/>
		
			<rect x="535.379" y="471.35" transform="matrix(-1 -1.224647e-16 1.224647e-16 -1 1156.9354 955.0703)" fill="#1E0F00" width="86.178" height="12.371"/>
		<path fill="#1E0F00" d="M529.673,545.203h77.116c4.222,0,7.64-3.417,7.64-7.623v-7.732c0-4.221-3.418-7.639-7.64-7.639h-77.116    c-4.222,0-7.64,3.418-7.64,7.639v7.732C522.033,541.786,525.451,545.203,529.673,545.203z"/>
		<path fill="#212121" d="M561.605,545.203h45.184c4.222,0,7.64-3.417,7.64-7.623v-7.732c0-4.221-3.418-7.639-7.64-7.639h-45.184    c-4.222,0-7.64,3.418-7.64,7.639v7.732C553.966,541.786,557.384,545.203,561.605,545.203z"/>
		<g>
			<path fill="#212121" d="M583.532,538.523h-12.417c-1.748,0-3.17-1.423-3.17-3.155c0-1.747,1.422-3.17,3.17-3.17h9.263v-92.132     c0-5.118-4.16-9.263-9.263-9.263c-1.748,0-3.17-1.423-3.17-3.154c0-1.747,1.422-3.154,3.17-3.154     c8.582,0,15.571,6.989,15.571,15.571v95.302C586.686,537.101,585.264,538.523,583.532,538.523z"/>
		</g>
		<g>
			<path fill="#212121" d="M600.727,538.523H588.31c-1.747,0-3.17-1.423-3.17-3.155c0-1.747,1.423-3.17,3.17-3.17h9.263v-92.132     c0-5.118-4.159-9.263-9.263-9.263c-1.747,0-3.17-1.423-3.17-3.154c0-1.747,1.423-3.154,3.17-3.154     c8.582,0,15.572,6.989,15.572,15.571v95.302C603.883,537.101,602.46,538.523,600.727,538.523z"/>
		</g>
	</g>
</g>
</svg>